SplineFontDB: 3.2
FontName: Untitled1
FullName: Untitled1
FamilyName: Untitled1
Weight: Regular
Copyright: Copyright (c) 2020, Thomas Hjelm
UComments: "2020-7-19: Created with FontForge (http://fontforge.org)"
Version: 001.000
ItalicAngle: 0
UnderlinePosition: -100
UnderlineWidth: 50
Ascent: 512
Descent: 0
InvalidEm: 0
LayerCount: 5
Layer: 0 0 "Back" 1
Layer: 1 0 "Fore" 0
Layer: 2 0 "Back 2" 1
Layer: 3 0 "Back 3" 1
Layer: 4 0 "Back 4" 1
XUID: [1021 89 -336038520 95879]
StyleMap: 0x0000
FSType: 0
OS2Version: 0
OS2_WeightWidthSlopeOnly: 0
OS2_UseTypoMetrics: 1
CreationTime: 1595169313
ModificationTime: 1609581686
OS2TypoAscent: 0
OS2TypoAOffset: 1
OS2TypoDescent: 0
OS2TypoDOffset: 1
OS2TypoLinegap: 46
OS2WinAscent: 0
OS2WinAOffset: 1
OS2WinDescent: 0
OS2WinDOffset: 1
HheadAscent: 0
HheadAOffset: 1
HheadDescent: 0
HheadDOffset: 1
OS2Vendor: 'PfEd'
MarkAttachClasses: 1
DEI: 91125
Encoding: ISO8859-1
UnicodeInterp: none
NameList: AGL For New Fonts
DisplaySize: -96
AntiAlias: 1
FitToEm: 0
WinInfo: 30 15 6
BeginPrivate: 0
EndPrivate
Grid
258 116 m 6
 290 144.666666667 313.666666667 166.333333333 329 181 c 132
 344.333333333 195.666666667 361 213 379 233 c 132
 397 253 409.5 270.666666667 416.5 286 c 132
 423.5 301.333333333 427 316.333333333 427 331 c 4
 427 352.333333333 419.833333333 370 405.5 384 c 132
 391.166666667 398 373.333333333 405 352 405 c 4
 335.333333333 405 319.833333333 400.333333333 305.5 391 c 132
 291.166666667 381.666666667 281.333333333 369.666666667 276 355 c 5
 236 355 l 5
 230.666666667 369.666666667 220.833333333 381.666666667 206.5 391 c 132
 192.166666667 400.333333333 176.666666667 405 160 405 c 4
 138.666666667 405 120.833333333 398 106.5 384 c 132
 92.1666666667 370 85 352.333333333 85 331 c 4
 85 316.333333333 88.5 301.333333333 95.5 286 c 132
 102.5 270.666666667 115 253 133 233 c 132
 151 213 167.666666667 195.666666667 183 181 c 132
 198.333333333 166.333333333 222 144.666666667 254 116 c 6
 256 114 l 5
 258 116 l 6
352 448 m 4

StartChar: eight
Encoding: 56 56 0
Width: 512
Flags: HW
LayerCount: 5
UndoRedoHistory
Layer: 1
Undoes
UndoOperation
Index: 0
Type: 3
WasModified: 0
WasOrder2: 0
Layer: 2
EndUndoOperation
EndUndoes
Redoes
EndRedoes
EndUndoRedoHistory
Fore
SplineSet
405 449 m 6
 417 449 427.166666667 444.833333333 435.5 436.5 c 132
 443.833333333 428.166666667 448 418 448 406 c 6
 448 108 l 6
 448 96 443.833333333 85.8333333333 435.5 77.5 c 132
 427.166666667 69.1666666667 417 65 405 65 c 6
 107 65 l 6
 95 65 84.8333333333 69.1666666667 76.5 77.5 c 132
 68.1666666667 85.8333333333 64 96 64 108 c 6
 64 406 l 6
 64 418 68.1666666667 428.166666667 76.5 436.5 c 132
 84.8333333333 444.833333333 95 449 107 449 c 6
 405 449 l 6
235 150 m 6
 277 150 l 6
 289 150 299.166666667 154.166666667 307.5 162.5 c 132
 315.833333333 170.833333333 320 181 320 193 c 6
 320 225 l 6
 320 233.666666667 316.833333333 241.166666667 310.5 247.5 c 132
 304.166666667 253.833333333 296.666666667 257 288 257 c 5
 296.666666667 257 304.166666667 260.166666667 310.5 266.5 c 132
 316.833333333 272.833333333 320 280.333333333 320 289 c 6
 320 321 l 6
 320 333 315.833333333 343.166666667 307.5 351.5 c 132
 299.166666667 359.833333333 289 364 277 364 c 6
 235 364 l 6
 223 364 212.833333333 359.833333333 204.5 351.5 c 132
 196.166666667 343.166666667 192 333 192 321 c 6
 192 289 l 6
 192 280.333333333 195.166666667 272.833333333 201.5 266.5 c 132
 207.833333333 260.166666667 215.333333333 257 224 257 c 5
 215.333333333 257 207.833333333 253.833333333 201.5 247.5 c 132
 195.166666667 241.166666667 192 233.666666667 192 225 c 6
 192 193 l 6
 192 181 196.166666667 170.833333333 204.5 162.5 c 132
 212.833333333 154.166666667 223 150 235 150 c 6
235 236 m 5
 277 236 l 5
 277 193 l 5
 235 193 l 5
 235 236 l 5
235 321 m 5
 277 321 l 5
 277 278 l 5
 235 278 l 5
 235 321 l 5
EndSplineSet
Validated: 1
EndChar

StartChar: asterisk
Encoding: 42 42 1
Width: 512
Flags: HW
LayerCount: 5
UndoRedoHistory
Layer: 1
Undoes
UndoOperation
Index: 0
Type: 3
WasModified: 1
WasOrder2: 0
Layer: 2
EndUndoOperation
EndUndoes
Redoes
EndRedoes
EndUndoRedoHistory
Fore
SplineSet
250 351 m 1
 341 352 l 1
 341 427 l 1
 171 427 l 1
 171 352 l 1
 250 351 l 1
341 160 m 1
 256 245 l 1
 171 160 l 1
 171 85 l 5
 341 85 l 1
 341 160 l 1
128 469 m 1
 384 469 l 1
 384 341 l 1
 299 256 l 1
 384 171 l 1
 384 43 l 1
 128 43 l 1
 128 171 l 1
 213 256 l 1
 128 341 l 1
 128 469 l 1
EndSplineSet
Validated: 1
EndChar

StartChar: plus
Encoding: 43 43 2
Width: 512
Flags: HW
LayerCount: 5
UndoRedoHistory
Layer: 1
Undoes
UndoOperation
Index: 0
Type: 3
WasModified: 1
WasOrder2: 0
Layer: 2
EndUndoOperation
EndUndoes
Redoes
EndRedoes
EndUndoRedoHistory
Fore
SplineSet
229.16015625 449.48046875 m 1
 229.16015625 471.440429688 l 1
 383.51953125 471.440429688 l 1
 383.51953125 449.48046875 l 1
 229.16015625 449.48046875 l 1
128.040039062 504.279296875 m 1
 384.51953125 504.279296875 l 1
 384.51953125 482.6796875 l 1
 128.040039062 482.6796875 l 1
 128.040039062 504.279296875 l 1
250 320 m 1
 341 321 l 1
 341 396 l 1
 171 396 l 1
 171 321 l 1
 250 320 l 1
341 129 m 1
 256 214 l 1
 171 129 l 1
 171 54 l 1
 341 54 l 1
 341 129 l 1
128 438 m 1
 384 438 l 1
 384 310 l 1
 299 225 l 1
 384 140 l 1
 384 12 l 1
 128 12 l 1
 128 140 l 1
 213 225 l 1
 128 310 l 1
 128 438 l 1
EndSplineSet
Validated: 1
EndChar

StartChar: comma
Encoding: 44 44 3
Width: 512
Flags: HW
LayerCount: 5
Fore
SplineSet
256 267 m 5
 341 352 l 5
 341 427 l 5
 171 427 l 5
 171 352 l 5
 256 267 l 5
341 160 m 1
 256 245 l 1
 171 160 l 1
 171 160 l 1
 341 160 l 1
 341 160 l 1
128 469 m 1
 384 469 l 1
 384 341 l 1
 299 256 l 1
 384 171 l 1
 384 43 l 1
 128 43 l 1
 128 171 l 1
 213 256 l 1
 128 341 l 1
 128 469 l 1
EndSplineSet
Validated: 5
EndChar

StartChar: hyphen
Encoding: 45 45 4
Width: 512
Flags: HW
LayerCount: 5
UndoRedoHistory
Layer: 1
Undoes
UndoOperation
Index: 0
Type: 1
WasModified: 1
WasOrder2: 0
Layer: 2
Width: 512
VWidth: 512
LBearingChange: 0
UnicodeEnc: 0
InstructionsLength: 0
SplineSet
229.16015625 449.48046875 m 1
 229.16015625 471.440429688 l 1
 383.51953125 471.440429688 l 5
 383.51953125 464.120442708 383.51953125 456.800455729 383.51953125 449.48046875 c 5
 229.16015625 449.48046875 l 1
128.040039062 504.639648438 m 1
 384.51953125 504.639648438 l 5
 384.51953125 497.319661458 384.51953125 489.999674479 384.51953125 482.6796875 c 5
 128.040039062 482.6796875 l 1
 128.040039062 504.639648438 l 1
256 236 m 1
 341 321 l 1
 341 396 l 1
 171 396 l 1
 171 321 l 1
 256 236 l 1
341 129 m 1
 256 214 l 1
 171 129 l 1
 171 129 l 1
 341 129 l 1
 341 129 l 1
128 438 m 1
 384 438 l 1
 384 310 l 1
 299 225 l 1
 384 140 l 1
 384 12 l 1
 128 12 l 1
 128 140 l 1
 213 225 l 1
 128 310 l 1
 128 438 l 1
EndSplineSet
EndUndoOperation
EndUndoes
Redoes
EndRedoes
EndUndoRedoHistory
Fore
SplineSet
229.16015625 449.48046875 m 5
 229.16015625 471.440429688 l 5
 384 471.440429688 l 5
 384 464.120442708 384 456.800455729 384 449.48046875 c 5
 229.16015625 449.48046875 l 5
128.040039062 504.639648438 m 5
 384 504.639648438 l 5
 384 497.319661458 384 489.999674479 384 482.6796875 c 5
 128.040039062 482.6796875 l 5
 128.040039062 504.639648438 l 5
256 236 m 1
 341 321 l 1
 341 396 l 1
 171 396 l 1
 171 321 l 1
 256 236 l 1
341 129 m 1
 256 214 l 1
 171 129 l 1
 171 129 l 1
 341 129 l 1
 341 129 l 1
128 438 m 1
 384 438 l 1
 384 310 l 1
 299 225 l 1
 384 140 l 1
 384 12 l 1
 128 12 l 1
 128 140 l 1
 213 225 l 1
 128 310 l 1
 128 438 l 1
EndSplineSet
Validated: 5
EndChar

StartChar: period
Encoding: 46 46 5
Width: 512
Flags: HW
LayerCount: 5
Fore
SplineSet
256 267 m 5
 341 352 l 5
 341 427 l 5
 171 427 l 5
 171 352 l 5
 256 267 l 5
128 469 m 1
 384 469 l 1
 384 341 l 1
 299 256 l 1
 384 171 l 1
 384 43 l 1
 128 43 l 1
 128 171 l 1
 213 256 l 1
 128 341 l 1
 128 469 l 1
EndSplineSet
Validated: 1
EndChar

StartChar: nine
Encoding: 57 57 6
Width: 512
Flags: HW
LayerCount: 5
UndoRedoHistory
Layer: 1
Undoes
UndoOperation
Index: 0
Type: 3
WasModified: 0
WasOrder2: 0
Layer: 2
EndUndoOperation
EndUndoes
Redoes
EndRedoes
EndUndoRedoHistory
Fore
SplineSet
405 449 m 6
 417 449 427.166666667 444.833333333 435.5 436.5 c 132
 443.833333333 428.166666667 448 418 448 406 c 6
 448 108 l 6
 448 96 443.833333333 85.8333333333 435.5 77.5 c 132
 427.166666667 69.1666666667 417 65 405 65 c 6
 107 65 l 6
 95 65 84.8333333333 69.1666666667 76.5 77.5 c 132
 68.1666666667 85.8333333333 64 96 64 108 c 6
 64 406 l 6
 64 418 68.1666666667 428.166666667 76.5 436.5 c 132
 84.8333333333 444.833333333 95 449 107 449 c 6
 405 449 l 6
277 278 m 5
 235 278 l 5
 235 321 l 5
 277 321 l 5
 277 278 l 5
277 364 m 6
 235 364 l 6
 223 364 212.833333333 359.833333333 204.5 351.5 c 132
 196.166666667 343.166666667 192 333 192 321 c 6
 192 278 l 6
 192 266.666666667 196.166666667 256.833333333 204.5 248.5 c 132
 212.833333333 240.166666667 223 236 235 236 c 6
 277 236 l 5
 277 193 l 5
 192 193 l 5
 192 150 l 5
 277 150 l 6
 289 150 299.166666667 154.166666667 307.5 162.5 c 132
 315.833333333 170.833333333 320 181 320 193 c 6
 320 321 l 6
 320 333 315.833333333 343.166666667 307.5 351.5 c 132
 299.166666667 359.833333333 289 364 277 364 c 6
EndSplineSet
Validated: 1
EndChar

StartChar: greater
Encoding: 62 62 7
Width: 512
Flags: HW
LayerCount: 5
UndoRedoHistory
Layer: 1
Undoes
UndoOperation
Index: 0
Type: 1
WasModified: 1
WasOrder2: 0
Layer: 2
Width: 512
VWidth: 512
LBearingChange: 0
UnicodeEnc: 0
InstructionsLength: 0
SplineSet
405 182 m 5
 277 54 l 5
 247 84 l 5
 324 161 l 5
 85 161 l 5
 85 417 l 5
 128 417 l 5
 128 203 l 5
 324 203 l 5
 247 280 l 5
 277 310 l 5
 405 182 l 5
EndSplineSet
EndUndoOperation
EndUndoes
Redoes
EndRedoes
EndUndoRedoHistory
Fore
SplineSet
405 183 m 5
 277 55 l 5
 247 85 l 5
 324 162 l 5
 85 162 l 5
 85 418 l 5
 128 418 l 5
 128 204 l 5
 324 204 l 5
 247 281 l 5
 277 311 l 5
 405 183 l 5
EndSplineSet
Validated: 1
EndChar

StartChar: question
Encoding: 63 63 8
Width: 512
Flags: HW
LayerCount: 5
UndoRedoHistory
Layer: 1
Undoes
UndoOperation
Index: 0
Type: 1
WasModified: 1
WasOrder2: 0
Layer: 2
Width: 512
VWidth: 512
LBearingChange: 0
UnicodeEnc: 0
InstructionsLength: 0
SplineSet
313 200 m 5
 283 230 l 5
 360 307 l 5
 164 307 l 5
 164 93 l 5
 121 93 l 5
 121 349 l 5
 360 349 l 5
 283 426 l 5
 313 456 l 5
 441 328 l 5
 313 200 l 5
EndSplineSet
EndUndoOperation
EndUndoes
Redoes
EndRedoes
EndUndoRedoHistory
Fore
SplineSet
313 201 m 5
 283 231 l 5
 360 308 l 5
 164 308 l 5
 164 94 l 5
 121 94 l 5
 121 350 l 5
 360 350 l 5
 283 427 l 5
 313 457 l 5
 441 329 l 5
 313 201 l 5
EndSplineSet
Validated: 1
EndChar

StartChar: bracketleft
Encoding: 91 91 9
Width: 247
Flags: HW
LayerCount: 5
UndoRedoHistory
Layer: 1
Undoes
UndoOperation
Index: 0
Type: 1
WasModified: 1
WasOrder2: 0
Layer: 2
Width: 381
VWidth: 512
LBearingChange: 0
UnicodeEnc: 0
InstructionsLength: 0
EndUndoOperation
EndUndoes
Redoes
EndRedoes
EndUndoRedoHistory
Fore
SplineSet
78 384 m 5
 206 256 l 5
 78 128 l 5
 48 158 l 5
 146 256 l 5
 48 354 l 5
 78 384 l 5
EndSplineSet
Validated: 1
EndChar

StartChar: bracketright
Encoding: 93 93 10
Width: 512
Flags: HW
LayerCount: 5
UndoRedoHistory
Layer: 1
Undoes
UndoOperation
Index: 0
Type: 1
WasModified: 1
WasOrder2: 0
Layer: 2
Width: 512
VWidth: 512
LBearingChange: 0
UnicodeEnc: 0
InstructionsLength: 0
SplineSet
51 472 m 5
 24 445 l 5
 68 401 l 5
 51.3333333333 379.666666667 43 355.333333333 43 328 c 4
 43 302 50.6666666667 276 66 250 c 4
 79.3333333333 227.333333333 100.333333333 201.333333333 129 172 c 4
 147 153.333333333 179 123.333333333 225 82 c 6
 256 54 l 5
 339 129 l 5
 427 40 l 5
 454 67 l 5
 51 472 l 5
258 113 m 5
 256 111 l 5
 254 113 l 5
 211.333333333 151.666666667 181.666666667 179.333333333 165 196 c 4
 138.333333333 222.666666667 118.666666667 245.666666667 106 265 c 4
 92 287 85 308 85 328 c 4
 85 344 89.3333333333 358 98 370 c 5
 309 160 l 5
 258 113 l 5
177 400 m 5
 135 442 l 5
 143.666666667 444 152 445 160 445 c 4
 178.666666667 445 196.333333333 441 213 433 c 132
 229.666666667 425 244 414.333333333 256 401 c 5
 268 414.333333333 282.333333333 425 299 433 c 132
 315.666666667 441 333.333333333 445 352 445 c 4
 373.333333333 445 393 439.833333333 411 429.5 c 132
 429 419.166666667 443.166666667 405 453.5 387 c 132
 463.833333333 369 469 349.333333333 469 328 c 4
 469 304 462.333333333 280 449 256 c 4
 437.666666667 234 419.333333333 209.666666667 394 183 c 5
 364 213 l 5
 384.666666667 235.666666667 400 255.666666667 410 273 c 4
 421.333333333 292.333333333 427 310.666666667 427 328 c 4
 427 349.333333333 419.833333333 367 405.5 381 c 132
 391.166666667 395 373.333333333 402 352 402 c 4
 337.333333333 402 323.333333333 398.166666667 310 390.5 c 132
 296.666666667 382.833333333 286.666666667 372.666666667 280 360 c 5
 232 360 l 5
 226.666666667 370 219.166666667 378.5 209.5 385.5 c 132
 199.833333333 392.5 189 397.333333333 177 400 c 5
EndSplineSet
EndUndoOperation
EndUndoes
Redoes
EndRedoes
EndUndoRedoHistory
Fore
SplineSet
51 473 m 5
 24 446 l 5
 68 402 l 5
 51.3333333333 380.666666667 43 356.333333333 43 329 c 4
 43 303 50.6666666667 277 66 251 c 4
 79.3333333333 228.333333333 100.333333333 202.333333333 129 173 c 4
 147 154.333333333 179 124.333333333 225 83 c 6
 256 55 l 5
 339 130 l 5
 427 41 l 5
 454 68 l 5
 51 473 l 5
258 114 m 5
 256 112 l 5
 254 114 l 5
 211.333333333 152.666666667 181.666666667 180.333333333 165 197 c 4
 138.333333333 223.666666667 118.666666667 246.666666667 106 266 c 4
 92 288 85 309 85 329 c 4
 85 345 89.3333333333 359 98 371 c 5
 309 161 l 5
 258 114 l 5
177 401 m 5
 135 443 l 5
 143.666666667 445 152 446 160 446 c 4
 178.666666667 446 196.333333333 442 213 434 c 132
 229.666666667 426 244 415.333333333 256 402 c 5
 268 415.333333333 282.333333333 426 299 434 c 132
 315.666666667 442 333.333333333 446 352 446 c 4
 373.333333333 446 393 440.833333333 411 430.5 c 132
 429 420.166666667 443.166666667 406 453.5 388 c 132
 463.833333333 370 469 350.333333333 469 329 c 4
 469 305 462.333333333 281 449 257 c 4
 437.666666667 235 419.333333333 210.666666667 394 184 c 5
 364 214 l 5
 384.666666667 236.666666667 400 256.666666667 410 274 c 4
 421.333333333 293.333333333 427 311.666666667 427 329 c 4
 427 350.333333333 419.833333333 368 405.5 382 c 132
 391.166666667 396 373.333333333 403 352 403 c 4
 337.333333333 403 323.333333333 399.166666667 310 391.5 c 132
 296.666666667 383.833333333 286.666666667 373.666666667 280 361 c 5
 232 361 l 5
 226.666666667 371 219.166666667 379.5 209.5 386.5 c 132
 199.833333333 393.5 189 398.333333333 177 401 c 5
EndSplineSet
Validated: 9
EndChar

StartChar: asciicircum
Encoding: 94 94 11
Width: 512
Flags: HW
LayerCount: 5
UndoRedoHistory
Layer: 1
Undoes
UndoOperation
Index: 0
Type: 3
WasModified: 1
WasOrder2: 0
Layer: 2
EndUndoOperation
EndUndoes
Redoes
EndRedoes
EndUndoRedoHistory
Fore
SplineSet
258 116 m 6
 290 144.666666667 313.666666667 166.333333333 329 181 c 132
 344.333333333 195.666666667 361 213 379 233 c 132
 397 253 409.5 270.666666667 416.5 286 c 132
 423.5 301.333333333 427 316.333333333 427 331 c 4
 427 352.333333333 419.833333333 370 405.5 384 c 132
 391.166666667 398 373.333333333 405 352 405 c 4
 335.333333333 405 319.833333333 400.333333333 305.5 391 c 132
 291.166666667 381.666666667 281.333333333 369.666666667 276 355 c 5
 236 355 l 5
 230.666666667 369.666666667 220.833333333 381.666666667 206.5 391 c 132
 192.166666667 400.333333333 176.666666667 405 160 405 c 4
 138.666666667 405 120.833333333 398 106.5 384 c 132
 92.1666666667 370 85 352.333333333 85 331 c 4
 85 316.333333333 88.5 301.333333333 95.5 286 c 132
 102.5 270.666666667 115 253 133 233 c 132
 151 213 167.666666667 195.666666667 183 181 c 132
 198.333333333 166.333333333 222 144.666666667 254 116 c 6
 256 114 l 5
 258 116 l 6
352 448 m 4
 385.333333333 448 413.166666667 436.666666667 435.5 414 c 132
 457.833333333 391.333333333 469 363.666666667 469 331 c 4
 469 311.666666667 465.333333333 292.833333333 458 274.5 c 132
 450.666666667 256.166666667 437.166666667 235.666666667 417.5 213 c 132
 397.833333333 190.333333333 380 171.333333333 364 156 c 132
 348 140.666666667 322.333333333 117 287 85 c 6
 256 57 l 5
 225 84 l 6
 179 125.333333333 145.833333333 156.333333333 125.5 177 c 132
 105.166666667 197.666666667 86.3333333333 222 69 250 c 132
 51.6666666667 278 43 305 43 331 c 4
 43 363.666666667 54.1666666667 391.333333333 76.5 414 c 132
 98.8333333333 436.666666667 126.666666667 448 160 448 c 4
 198.666666667 448 230.666666667 433 256 403 c 5
 281.333333333 433 313.333333333 448 352 448 c 4
EndSplineSet
Validated: 1
EndChar

StartChar: one
Encoding: 49 49 12
Width: 512
Flags: HW
LayerCount: 5
UndoRedoHistory
Layer: 1
Undoes
UndoOperation
Index: 0
Type: 3
WasModified: 0
WasOrder2: 0
Layer: 2
EndUndoOperation
EndUndoes
Redoes
EndRedoes
EndUndoRedoHistory
Fore
SplineSet
299 150 m 5
 256 150 l 5
 256 321 l 5
 213 321 l 5
 213 364 l 5
 299 364 l 5
 299 150 l 5
405 449 m 6
 107 449 l 6
 95 449 84.8333333333 444.833333333 76.5 436.5 c 132
 68.1666666667 428.166666667 64 418 64 406 c 6
 64 108 l 6
 64 96 68.1666666667 85.8333333333 76.5 77.5 c 132
 84.8333333333 69.1666666667 95 65 107 65 c 6
 405 65 l 6
 417 65 427.166666667 69.1666666667 435.5 77.5 c 132
 443.833333333 85.8333333333 448 96 448 108 c 6
 448 406 l 6
 448 418 443.833333333 428.166666667 435.5 436.5 c 132
 427.166666667 444.833333333 417 449 405 449 c 6
EndSplineSet
Validated: 9
EndChar

StartChar: percent
Encoding: 37 37 13
Width: 512
Flags: HWO
LayerCount: 5
UndoRedoHistory
Layer: 1
Undoes
UndoOperation
Index: 0
Type: 1
WasModified: 1
WasOrder2: 0
Layer: 2
Width: 512
VWidth: 512
LBearingChange: 0
UnicodeEnc: 0
InstructionsLength: 0
SplineSet
128.040039062 30.6396484375 m 5
 384.51953125 30.6396484375 l 5
 384.51953125 8.6796875 l 5
 128.040039062 8.6796875 l 5
 128.040039062 30.6396484375 l 5
341 179 m 1
 256 264 l 1
 171 179 l 1
 171 104 l 1
 341 104 l 1
 341 179 l 1
128 488 m 1
 384 488 l 1
 384 360 l 1
 299 275 l 1
 384 190 l 1
 384 62 l 1
 128 62 l 1
 128 190 l 1
 213 275 l 1
 128 360 l 1
 128 488 l 1
EndSplineSet
EndUndoOperation
UndoOperation
Index: 1
Type: 1
WasModified: 1
WasOrder2: 0
Layer: 2
Width: 512
VWidth: 512
LBearingChange: 0
UnicodeEnc: 0
InstructionsLength: 0
SplineSet
128.040039062 20.6396484375 m 5
 384.51953125 20.6396484375 l 5
 384.51953125 -1.3203125 l 5
 128.040039062 -1.3203125 l 5
 128.040039062 20.6396484375 l 5
341 179 m 1
 256 264 l 1
 171 179 l 1
 171 104 l 1
 341 104 l 1
 341 179 l 1
128 488 m 1
 384 488 l 1
 384 360 l 1
 299 275 l 1
 384 190 l 1
 384 62 l 1
 128 62 l 1
 128 190 l 1
 213 275 l 1
 128 360 l 1
 128 488 l 1
EndSplineSet
EndUndoOperation
UndoOperation
Index: 2
Type: 1
WasModified: 1
WasOrder2: 0
Layer: 2
Width: 512
VWidth: 512
LBearingChange: 0
UnicodeEnc: 0
InstructionsLength: 0
SplineSet
128.040039062 10.6396484375 m 5
 384.51953125 10.6396484375 l 5
 384.51953125 -11.3203125 l 5
 128.040039062 -11.3203125 l 5
 128.040039062 10.6396484375 l 5
341 179 m 1
 256 264 l 1
 171 179 l 1
 171 104 l 1
 341 104 l 1
 341 179 l 1
128 488 m 1
 384 488 l 1
 384 360 l 1
 299 275 l 1
 384 190 l 1
 384 62 l 1
 128 62 l 1
 128 190 l 1
 213 275 l 1
 128 360 l 1
 128 488 l 1
EndSplineSet
EndUndoOperation
UndoOperation
Index: 3
Type: 1
WasModified: 1
WasOrder2: 0
Layer: 2
Width: 512
VWidth: 512
LBearingChange: 0
UnicodeEnc: 0
InstructionsLength: 0
SplineSet
128.040039062 0.6396484375 m 5
 384.51953125 0.6396484375 l 5
 384.51953125 -21.3203125 l 5
 128.040039062 -21.3203125 l 5
 128.040039062 0.6396484375 l 5
341 179 m 1
 256 264 l 1
 171 179 l 1
 171 104 l 1
 341 104 l 1
 341 179 l 1
128 488 m 1
 384 488 l 1
 384 360 l 1
 299 275 l 1
 384 190 l 1
 384 62 l 1
 128 62 l 1
 128 190 l 1
 213 275 l 1
 128 360 l 1
 128 488 l 1
EndSplineSet
EndUndoOperation
UndoOperation
Index: 4
Type: 1
WasModified: 1
WasOrder2: 0
Layer: 2
Width: 512
VWidth: 512
LBearingChange: 0
UnicodeEnc: 0
InstructionsLength: 0
SplineSet
128.040039062 -9.3603515625 m 5
 384.51953125 -9.3603515625 l 5
 384.51953125 -31.3203125 l 5
 128.040039062 -31.3203125 l 5
 128.040039062 -9.3603515625 l 5
341 179 m 1
 256 264 l 1
 171 179 l 1
 171 104 l 1
 341 104 l 1
 341 179 l 1
128 488 m 1
 384 488 l 1
 384 360 l 1
 299 275 l 1
 384 190 l 1
 384 62 l 1
 128 62 l 1
 128 190 l 1
 213 275 l 1
 128 360 l 1
 128 488 l 1
EndSplineSet
EndUndoOperation
UndoOperation
Index: 5
Type: 1
WasModified: 1
WasOrder2: 0
Layer: 2
Width: 512
VWidth: 512
LBearingChange: 0
UnicodeEnc: 0
InstructionsLength: 0
SplineSet
128.040039062 -9.3603515625 m 1
 384.51953125 -9.3603515625 l 1
 384.51953125 -31.3203125 l 1
 128.040039062 -31.3203125 l 1
 128.040039062 -9.3603515625 l 1
341 169 m 5
 256 254 l 5
 171 169 l 5
 171 94 l 5
 341 94 l 5
 341 169 l 5
128 478 m 5
 384 478 l 5
 384 350 l 5
 299 265 l 5
 384 180 l 5
 384 52 l 5
 128 52 l 5
 128 180 l 5
 213 265 l 5
 128 350 l 5
 128 478 l 5
EndSplineSet
EndUndoOperation
UndoOperation
Index: 6
Type: 1
WasModified: 1
WasOrder2: 0
Layer: 2
Width: 512
VWidth: 512
LBearingChange: 0
UnicodeEnc: 0
InstructionsLength: 0
SplineSet
128.040039062 -9.3603515625 m 1
 384.51953125 -9.3603515625 l 1
 384.51953125 -31.3203125 l 1
 128.040039062 -31.3203125 l 1
 128.040039062 -9.3603515625 l 1
341 159 m 5
 256 244 l 5
 171 159 l 5
 171 84 l 5
 341 84 l 5
 341 159 l 5
128 468 m 5
 384 468 l 5
 384 340 l 5
 299 255 l 5
 384 170 l 5
 384 42 l 5
 128 42 l 5
 128 170 l 5
 213 255 l 5
 128 340 l 5
 128 468 l 5
EndSplineSet
EndUndoOperation
UndoOperation
Index: 7
Type: 1
WasModified: 1
WasOrder2: 0
Layer: 2
Width: 512
VWidth: 512
LBearingChange: 0
UnicodeEnc: 0
InstructionsLength: 0
SplineSet
128.040039062 -9.3603515625 m 1
 384.51953125 -9.3603515625 l 1
 384.51953125 -31.3203125 l 1
 128.040039062 -31.3203125 l 1
 128.040039062 -9.3603515625 l 1
341 149 m 5
 256 234 l 5
 171 149 l 5
 171 74 l 5
 341 74 l 5
 341 149 l 5
128 458 m 5
 384 458 l 5
 384 330 l 5
 299 245 l 5
 384 160 l 5
 384 32 l 5
 128 32 l 5
 128 160 l 5
 213 245 l 5
 128 330 l 5
 128 458 l 5
EndSplineSet
EndUndoOperation
UndoOperation
Index: 8
Type: 1
WasModified: 1
WasOrder2: 0
Layer: 2
Width: 512
VWidth: 512
LBearingChange: 0
UnicodeEnc: 0
InstructionsLength: 0
SplineSet
128.040039062 -9.3603515625 m 1
 384.51953125 -9.3603515625 l 1
 384.51953125 -31.3203125 l 1
 128.040039062 -31.3203125 l 1
 128.040039062 -9.3603515625 l 1
341 139 m 5
 256 224 l 5
 171 139 l 5
 171 64 l 5
 341 64 l 5
 341 139 l 5
128 448 m 5
 384 448 l 5
 384 320 l 5
 299 235 l 5
 384 150 l 5
 384 22 l 5
 128 22 l 5
 128 150 l 5
 213 235 l 5
 128 320 l 5
 128 448 l 5
EndSplineSet
EndUndoOperation
UndoOperation
Index: 9
Type: 1
WasModified: 1
WasOrder2: 0
Layer: 2
Width: 512
VWidth: 512
LBearingChange: 0
UnicodeEnc: 0
InstructionsLength: 0
SplineSet
128.040039062 -9.3603515625 m 1
 384.51953125 -9.3603515625 l 1
 384.51953125 -31.3203125 l 1
 128.040039062 -31.3203125 l 1
 128.040039062 -9.3603515625 l 1
341 129 m 5
 256 214 l 5
 171 129 l 5
 171 54 l 5
 341 54 l 5
 341 129 l 5
128 438 m 5
 384 438 l 5
 384 310 l 5
 299 225 l 5
 384 140 l 5
 384 12 l 5
 128 12 l 5
 128 140 l 5
 213 225 l 5
 128 310 l 5
 128 438 l 5
EndSplineSet
EndUndoOperation
UndoOperation
Index: 10
Type: 1
WasModified: 1
WasOrder2: 0
Layer: 2
Width: 512
VWidth: 512
LBearingChange: 0
UnicodeEnc: 0
InstructionsLength: 0
SplineSet
128.040039062 0.6396484375 m 5
 384.51953125 0.6396484375 l 5
 384.51953125 -21.3203125 l 5
 128.040039062 -21.3203125 l 5
 128.040039062 0.6396484375 l 5
341 129 m 1
 256 214 l 1
 171 129 l 1
 171 54 l 1
 341 54 l 1
 341 129 l 1
128 438 m 1
 384 438 l 1
 384 310 l 1
 299 225 l 1
 384 140 l 1
 384 12 l 1
 128 12 l 1
 128 140 l 1
 213 225 l 1
 128 310 l 1
 128 438 l 1
EndSplineSet
EndUndoOperation
UndoOperation
Index: 11
Type: 1
WasModified: 1
WasOrder2: 0
Layer: 2
Width: 512
VWidth: 512
LBearingChange: 0
UnicodeEnc: 0
InstructionsLength: 0
SplineSet
128.040039062 10.6396484375 m 5
 384.51953125 10.6396484375 l 5
 384.51953125 -11.3203125 l 5
 128.040039062 -11.3203125 l 5
 128.040039062 10.6396484375 l 5
341 129 m 1
 256 214 l 1
 171 129 l 1
 171 54 l 1
 341 54 l 1
 341 129 l 1
128 438 m 1
 384 438 l 1
 384 310 l 1
 299 225 l 1
 384 140 l 1
 384 12 l 1
 128 12 l 1
 128 140 l 1
 213 225 l 1
 128 310 l 1
 128 438 l 1
EndSplineSet
EndUndoOperation
UndoOperation
Index: 12
Type: 1
WasModified: 1
WasOrder2: 0
Layer: 2
Width: 512
VWidth: 512
LBearingChange: 0
UnicodeEnc: 0
InstructionsLength: 0
SplineSet
128.040039062 20.6396484375 m 5
 384.51953125 20.6396484375 l 5
 384.51953125 -1.3203125 l 5
 128.040039062 -1.3203125 l 5
 128.040039062 20.6396484375 l 5
341 129 m 1
 256 214 l 1
 171 129 l 1
 171 54 l 1
 341 54 l 1
 341 129 l 1
128 438 m 1
 384 438 l 1
 384 310 l 1
 299 225 l 1
 384 140 l 1
 384 12 l 1
 128 12 l 1
 128 140 l 1
 213 225 l 1
 128 310 l 1
 128 438 l 1
EndSplineSet
EndUndoOperation
UndoOperation
Index: 13
Type: 1
WasModified: 1
WasOrder2: 0
Layer: 2
Width: 512
VWidth: 512
LBearingChange: 0
UnicodeEnc: 0
InstructionsLength: 0
SplineSet
128.040039062 30.6396484375 m 5
 384.51953125 30.6396484375 l 5
 384.51953125 8.6796875 l 5
 128.040039062 8.6796875 l 5
 128.040039062 30.6396484375 l 5
341 129 m 1
 256 214 l 1
 171 129 l 1
 171 54 l 1
 341 54 l 1
 341 129 l 1
128 438 m 1
 384 438 l 1
 384 310 l 1
 299 225 l 1
 384 140 l 1
 384 12 l 1
 128 12 l 1
 128 140 l 1
 213 225 l 1
 128 310 l 1
 128 438 l 1
EndSplineSet
EndUndoOperation
UndoOperation
Index: 14
Type: 1
WasModified: 1
WasOrder2: 0
Layer: 2
Width: 512
VWidth: 512
LBearingChange: 0
UnicodeEnc: 0
InstructionsLength: 0
SplineSet
128.040039062 40.6396484375 m 5
 384.51953125 40.6396484375 l 5
 384.51953125 18.6796875 l 5
 128.040039062 18.6796875 l 5
 128.040039062 40.6396484375 l 5
341 129 m 1
 256 214 l 1
 171 129 l 1
 171 54 l 1
 341 54 l 1
 341 129 l 1
128 438 m 1
 384 438 l 1
 384 310 l 1
 299 225 l 1
 384 140 l 1
 384 12 l 1
 128 12 l 1
 128 140 l 1
 213 225 l 1
 128 310 l 1
 128 438 l 1
EndSplineSet
EndUndoOperation
UndoOperation
Index: 15
Type: 1
WasModified: 1
WasOrder2: 0
Layer: 2
Width: 512
VWidth: 512
LBearingChange: 0
UnicodeEnc: 0
InstructionsLength: 0
SplineSet
128.040039062 50.6396484375 m 5
 384.51953125 50.6396484375 l 5
 384.51953125 28.6796875 l 5
 128.040039062 28.6796875 l 5
 128.040039062 50.6396484375 l 5
341 129 m 1
 256 214 l 1
 171 129 l 1
 171 54 l 1
 341 54 l 1
 341 129 l 1
128 438 m 1
 384 438 l 1
 384 310 l 1
 299 225 l 1
 384 140 l 1
 384 12 l 1
 128 12 l 1
 128 140 l 1
 213 225 l 1
 128 310 l 1
 128 438 l 1
EndSplineSet
EndUndoOperation
UndoOperation
Index: 16
Type: 1
WasModified: 1
WasOrder2: 0
Layer: 2
Width: 512
VWidth: 512
LBearingChange: 0
UnicodeEnc: 0
InstructionsLength: 0
SplineSet
128.040039062 60.6396484375 m 5
 384.51953125 60.6396484375 l 5
 384.51953125 38.6796875 l 5
 128.040039062 38.6796875 l 5
 128.040039062 60.6396484375 l 5
341 129 m 1
 256 214 l 1
 171 129 l 1
 171 54 l 1
 341 54 l 1
 341 129 l 1
128 438 m 1
 384 438 l 1
 384 310 l 1
 299 225 l 1
 384 140 l 1
 384 12 l 1
 128 12 l 1
 128 140 l 1
 213 225 l 1
 128 310 l 1
 128 438 l 1
EndSplineSet
EndUndoOperation
UndoOperation
Index: 17
Type: 1
WasModified: 1
WasOrder2: 0
Layer: 2
Width: 512
VWidth: 512
LBearingChange: 0
UnicodeEnc: 0
InstructionsLength: 0
SplineSet
128.040039062 70.6396484375 m 5
 384.51953125 70.6396484375 l 5
 384.51953125 48.6796875 l 5
 128.040039062 48.6796875 l 5
 128.040039062 70.6396484375 l 5
341 129 m 1
 256 214 l 1
 171 129 l 1
 171 54 l 1
 341 54 l 1
 341 129 l 1
128 438 m 1
 384 438 l 1
 384 310 l 1
 299 225 l 1
 384 140 l 1
 384 12 l 1
 128 12 l 1
 128 140 l 1
 213 225 l 1
 128 310 l 1
 128 438 l 1
EndSplineSet
EndUndoOperation
UndoOperation
Index: 18
Type: 1
WasModified: 1
WasOrder2: 0
Layer: 2
Width: 512
VWidth: 512
LBearingChange: 0
UnicodeEnc: 0
InstructionsLength: 0
SplineSet
128.040039062 80.6396484375 m 5
 384.51953125 80.6396484375 l 5
 384.51953125 58.6796875 l 5
 128.040039062 58.6796875 l 5
 128.040039062 80.6396484375 l 5
341 129 m 1
 256 214 l 1
 171 129 l 1
 171 54 l 1
 341 54 l 1
 341 129 l 1
128 438 m 1
 384 438 l 1
 384 310 l 1
 299 225 l 1
 384 140 l 1
 384 12 l 1
 128 12 l 1
 128 140 l 1
 213 225 l 1
 128 310 l 1
 128 438 l 1
EndSplineSet
EndUndoOperation
UndoOperation
Index: 19
Type: 1
WasModified: 1
WasOrder2: 0
Layer: 2
Width: 512
VWidth: 512
LBearingChange: 0
UnicodeEnc: 0
InstructionsLength: 0
SplineSet
128.040039062 90.6396484375 m 5
 384.51953125 90.6396484375 l 5
 384.51953125 68.6796875 l 5
 128.040039062 68.6796875 l 5
 128.040039062 90.6396484375 l 5
341 129 m 1
 256 214 l 1
 171 129 l 1
 171 54 l 1
 341 54 l 1
 341 129 l 1
128 438 m 1
 384 438 l 1
 384 310 l 1
 299 225 l 1
 384 140 l 1
 384 12 l 1
 128 12 l 1
 128 140 l 1
 213 225 l 1
 128 310 l 1
 128 438 l 1
EndSplineSet
EndUndoOperation
UndoOperation
Index: 20
Type: 1
WasModified: 1
WasOrder2: 0
Layer: 2
Width: 512
VWidth: 512
LBearingChange: 0
UnicodeEnc: 0
InstructionsLength: 0
SplineSet
128.040039062 100.639648438 m 5
 384.51953125 100.639648438 l 5
 384.51953125 78.6796875 l 5
 128.040039062 78.6796875 l 5
 128.040039062 100.639648438 l 5
341 129 m 1
 256 214 l 1
 171 129 l 1
 171 54 l 1
 341 54 l 1
 341 129 l 1
128 438 m 1
 384 438 l 1
 384 310 l 1
 299 225 l 1
 384 140 l 1
 384 12 l 1
 128 12 l 1
 128 140 l 1
 213 225 l 1
 128 310 l 1
 128 438 l 1
EndSplineSet
EndUndoOperation
UndoOperation
Index: 21
Type: 1
WasModified: 1
WasOrder2: 0
Layer: 2
Width: 512
VWidth: 512
LBearingChange: 0
UnicodeEnc: 0
InstructionsLength: 0
SplineSet
128.040039062 110.639648438 m 5
 384.51953125 110.639648438 l 5
 384.51953125 88.6796875 l 5
 128.040039062 88.6796875 l 5
 128.040039062 110.639648438 l 5
341 129 m 1
 256 214 l 1
 171 129 l 1
 171 54 l 1
 341 54 l 1
 341 129 l 1
128 438 m 1
 384 438 l 1
 384 310 l 1
 299 225 l 1
 384 140 l 1
 384 12 l 1
 128 12 l 1
 128 140 l 1
 213 225 l 1
 128 310 l 1
 128 438 l 1
EndSplineSet
EndUndoOperation
UndoOperation
Index: 22
Type: 1
WasModified: 1
WasOrder2: 0
Layer: 2
Width: 512
VWidth: 512
LBearingChange: 0
UnicodeEnc: 0
InstructionsLength: 0
SplineSet
128.040039062 120.639648438 m 5
 384.51953125 120.639648438 l 5
 384.51953125 98.6796875 l 5
 128.040039062 98.6796875 l 5
 128.040039062 120.639648438 l 5
341 129 m 1
 256 214 l 1
 171 129 l 1
 171 54 l 1
 341 54 l 1
 341 129 l 1
128 438 m 1
 384 438 l 1
 384 310 l 1
 299 225 l 1
 384 140 l 1
 384 12 l 1
 128 12 l 1
 128 140 l 1
 213 225 l 1
 128 310 l 1
 128 438 l 1
EndSplineSet
EndUndoOperation
UndoOperation
Index: 23
Type: 1
WasModified: 1
WasOrder2: 0
Layer: 2
Width: 512
VWidth: 512
LBearingChange: 0
UnicodeEnc: 0
InstructionsLength: 0
SplineSet
128.040039062 130.639648438 m 5
 384.51953125 130.639648438 l 5
 384.51953125 108.6796875 l 5
 128.040039062 108.6796875 l 5
 128.040039062 130.639648438 l 5
341 129 m 1
 256 214 l 1
 171 129 l 1
 171 54 l 1
 341 54 l 1
 341 129 l 1
128 438 m 1
 384 438 l 1
 384 310 l 1
 299 225 l 1
 384 140 l 1
 384 12 l 1
 128 12 l 1
 128 140 l 1
 213 225 l 1
 128 310 l 1
 128 438 l 1
EndSplineSet
EndUndoOperation
UndoOperation
Index: 24
Type: 1
WasModified: 1
WasOrder2: 0
Layer: 2
Width: 512
VWidth: 512
LBearingChange: 0
UnicodeEnc: 0
InstructionsLength: 0
SplineSet
128.040039062 140.639648438 m 5
 384.51953125 140.639648438 l 5
 384.51953125 118.6796875 l 5
 128.040039062 118.6796875 l 5
 128.040039062 140.639648438 l 5
341 129 m 1
 256 214 l 1
 171 129 l 1
 171 54 l 1
 341 54 l 1
 341 129 l 1
128 438 m 1
 384 438 l 1
 384 310 l 1
 299 225 l 1
 384 140 l 1
 384 12 l 1
 128 12 l 1
 128 140 l 1
 213 225 l 1
 128 310 l 1
 128 438 l 1
EndSplineSet
EndUndoOperation
UndoOperation
Index: 25
Type: 1
WasModified: 1
WasOrder2: 0
Layer: 2
Width: 512
VWidth: 512
LBearingChange: 0
UnicodeEnc: 0
InstructionsLength: 0
SplineSet
128.040039062 150.639648438 m 5
 384.51953125 150.639648438 l 5
 384.51953125 128.6796875 l 5
 128.040039062 128.6796875 l 5
 128.040039062 150.639648438 l 5
341 129 m 1
 256 214 l 1
 171 129 l 1
 171 54 l 1
 341 54 l 1
 341 129 l 1
128 438 m 1
 384 438 l 1
 384 310 l 1
 299 225 l 1
 384 140 l 1
 384 12 l 1
 128 12 l 1
 128 140 l 1
 213 225 l 1
 128 310 l 1
 128 438 l 1
EndSplineSet
EndUndoOperation
UndoOperation
Index: 26
Type: 1
WasModified: 1
WasOrder2: 0
Layer: 2
Width: 512
VWidth: 512
LBearingChange: 0
UnicodeEnc: 0
InstructionsLength: 0
SplineSet
128.040039062 160.639648438 m 5
 384.51953125 160.639648438 l 5
 384.51953125 138.6796875 l 5
 128.040039062 138.6796875 l 5
 128.040039062 160.639648438 l 5
341 129 m 1
 256 214 l 1
 171 129 l 1
 171 54 l 1
 341 54 l 1
 341 129 l 1
128 438 m 1
 384 438 l 1
 384 310 l 1
 299 225 l 1
 384 140 l 1
 384 12 l 1
 128 12 l 1
 128 140 l 1
 213 225 l 1
 128 310 l 1
 128 438 l 1
EndSplineSet
EndUndoOperation
UndoOperation
Index: 27
Type: 1
WasModified: 1
WasOrder2: 0
Layer: 2
Width: 512
VWidth: 512
LBearingChange: 0
UnicodeEnc: 0
InstructionsLength: 0
SplineSet
128.040039062 170.639648438 m 5
 384.51953125 170.639648438 l 5
 384.51953125 148.6796875 l 5
 128.040039062 148.6796875 l 5
 128.040039062 170.639648438 l 5
341 129 m 1
 256 214 l 1
 171 129 l 1
 171 54 l 1
 341 54 l 1
 341 129 l 1
128 438 m 1
 384 438 l 1
 384 310 l 1
 299 225 l 1
 384 140 l 1
 384 12 l 1
 128 12 l 1
 128 140 l 1
 213 225 l 1
 128 310 l 1
 128 438 l 1
EndSplineSet
EndUndoOperation
UndoOperation
Index: 28
Type: 1
WasModified: 1
WasOrder2: 0
Layer: 2
Width: 512
VWidth: 512
LBearingChange: 0
UnicodeEnc: 0
InstructionsLength: 0
SplineSet
128.040039062 180.639648438 m 5
 384.51953125 180.639648438 l 5
 384.51953125 158.6796875 l 5
 128.040039062 158.6796875 l 5
 128.040039062 180.639648438 l 5
341 129 m 1
 256 214 l 1
 171 129 l 1
 171 54 l 1
 341 54 l 1
 341 129 l 1
128 438 m 1
 384 438 l 1
 384 310 l 1
 299 225 l 1
 384 140 l 1
 384 12 l 1
 128 12 l 1
 128 140 l 1
 213 225 l 1
 128 310 l 1
 128 438 l 1
EndSplineSet
EndUndoOperation
UndoOperation
Index: 29
Type: 1
WasModified: 1
WasOrder2: 0
Layer: 2
Width: 512
VWidth: 512
LBearingChange: 0
UnicodeEnc: 0
InstructionsLength: 0
SplineSet
128.040039062 190.639648438 m 5
 384.51953125 190.639648438 l 5
 384.51953125 168.6796875 l 5
 128.040039062 168.6796875 l 5
 128.040039062 190.639648438 l 5
341 129 m 1
 256 214 l 1
 171 129 l 1
 171 54 l 1
 341 54 l 1
 341 129 l 1
128 438 m 1
 384 438 l 1
 384 310 l 1
 299 225 l 1
 384 140 l 1
 384 12 l 1
 128 12 l 1
 128 140 l 1
 213 225 l 1
 128 310 l 1
 128 438 l 1
EndSplineSet
EndUndoOperation
UndoOperation
Index: 30
Type: 1
WasModified: 1
WasOrder2: 0
Layer: 2
Width: 512
VWidth: 512
LBearingChange: 0
UnicodeEnc: 0
InstructionsLength: 0
SplineSet
128.040039062 200.639648438 m 5
 384.51953125 200.639648438 l 5
 384.51953125 178.6796875 l 5
 128.040039062 178.6796875 l 5
 128.040039062 200.639648438 l 5
341 129 m 1
 256 214 l 1
 171 129 l 1
 171 54 l 1
 341 54 l 1
 341 129 l 1
128 438 m 1
 384 438 l 1
 384 310 l 1
 299 225 l 1
 384 140 l 1
 384 12 l 1
 128 12 l 1
 128 140 l 1
 213 225 l 1
 128 310 l 1
 128 438 l 1
EndSplineSet
EndUndoOperation
UndoOperation
Index: 31
Type: 1
WasModified: 1
WasOrder2: 0
Layer: 2
Width: 512
VWidth: 512
LBearingChange: 0
UnicodeEnc: 0
InstructionsLength: 0
SplineSet
128.040039062 210.639648438 m 5
 384.51953125 210.639648438 l 5
 384.51953125 188.6796875 l 5
 128.040039062 188.6796875 l 5
 128.040039062 210.639648438 l 5
341 129 m 1
 256 214 l 1
 171 129 l 1
 171 54 l 1
 341 54 l 1
 341 129 l 1
128 438 m 1
 384 438 l 1
 384 310 l 1
 299 225 l 1
 384 140 l 1
 384 12 l 1
 128 12 l 1
 128 140 l 1
 213 225 l 1
 128 310 l 1
 128 438 l 1
EndSplineSet
EndUndoOperation
UndoOperation
Index: 32
Type: 1
WasModified: 1
WasOrder2: 0
Layer: 2
Width: 512
VWidth: 512
LBearingChange: 0
UnicodeEnc: 0
InstructionsLength: 0
SplineSet
128.040039062 220.639648438 m 5
 384.51953125 220.639648438 l 5
 384.51953125 198.6796875 l 5
 128.040039062 198.6796875 l 5
 128.040039062 220.639648438 l 5
341 129 m 1
 256 214 l 1
 171 129 l 1
 171 54 l 1
 341 54 l 1
 341 129 l 1
128 438 m 1
 384 438 l 1
 384 310 l 1
 299 225 l 1
 384 140 l 1
 384 12 l 1
 128 12 l 1
 128 140 l 1
 213 225 l 1
 128 310 l 1
 128 438 l 1
EndSplineSet
EndUndoOperation
UndoOperation
Index: 33
Type: 1
WasModified: 1
WasOrder2: 0
Layer: 2
Width: 512
VWidth: 512
LBearingChange: 0
UnicodeEnc: 0
InstructionsLength: 0
SplineSet
128.040039062 230.639648438 m 5
 384.51953125 230.639648438 l 5
 384.51953125 208.6796875 l 5
 128.040039062 208.6796875 l 5
 128.040039062 230.639648438 l 5
341 129 m 1
 256 214 l 1
 171 129 l 1
 171 54 l 1
 341 54 l 1
 341 129 l 1
128 438 m 1
 384 438 l 1
 384 310 l 1
 299 225 l 1
 384 140 l 1
 384 12 l 1
 128 12 l 1
 128 140 l 1
 213 225 l 1
 128 310 l 1
 128 438 l 1
EndSplineSet
EndUndoOperation
UndoOperation
Index: 34
Type: 1
WasModified: 1
WasOrder2: 0
Layer: 2
Width: 512
VWidth: 512
LBearingChange: 0
UnicodeEnc: 0
InstructionsLength: 0
SplineSet
128.040039062 240.639648438 m 5
 384.51953125 240.639648438 l 5
 384.51953125 218.6796875 l 5
 128.040039062 218.6796875 l 5
 128.040039062 240.639648438 l 5
341 129 m 1
 256 214 l 1
 171 129 l 1
 171 54 l 1
 341 54 l 1
 341 129 l 1
128 438 m 1
 384 438 l 1
 384 310 l 1
 299 225 l 1
 384 140 l 1
 384 12 l 1
 128 12 l 1
 128 140 l 1
 213 225 l 1
 128 310 l 1
 128 438 l 1
EndSplineSet
EndUndoOperation
UndoOperation
Index: 35
Type: 1
WasModified: 1
WasOrder2: 0
Layer: 2
Width: 512
VWidth: 512
LBearingChange: 0
UnicodeEnc: 0
InstructionsLength: 0
SplineSet
128.040039062 250.639648438 m 5
 384.51953125 250.639648438 l 5
 384.51953125 228.6796875 l 5
 128.040039062 228.6796875 l 5
 128.040039062 250.639648438 l 5
341 129 m 1
 256 214 l 1
 171 129 l 1
 171 54 l 1
 341 54 l 1
 341 129 l 1
128 438 m 1
 384 438 l 1
 384 310 l 1
 299 225 l 1
 384 140 l 1
 384 12 l 1
 128 12 l 1
 128 140 l 1
 213 225 l 1
 128 310 l 1
 128 438 l 1
EndSplineSet
EndUndoOperation
UndoOperation
Index: 36
Type: 1
WasModified: 1
WasOrder2: 0
Layer: 2
Width: 512
VWidth: 512
LBearingChange: 0
UnicodeEnc: 0
InstructionsLength: 0
SplineSet
128.040039062 260.639648438 m 5
 384.51953125 260.639648438 l 5
 384.51953125 238.6796875 l 5
 128.040039062 238.6796875 l 5
 128.040039062 260.639648438 l 5
341 129 m 1
 256 214 l 1
 171 129 l 1
 171 54 l 1
 341 54 l 1
 341 129 l 1
128 438 m 1
 384 438 l 1
 384 310 l 1
 299 225 l 1
 384 140 l 1
 384 12 l 1
 128 12 l 1
 128 140 l 1
 213 225 l 1
 128 310 l 1
 128 438 l 1
EndSplineSet
EndUndoOperation
UndoOperation
Index: 37
Type: 1
WasModified: 1
WasOrder2: 0
Layer: 2
Width: 512
VWidth: 512
LBearingChange: 0
UnicodeEnc: 0
InstructionsLength: 0
SplineSet
128.040039062 270.639648438 m 5
 384.51953125 270.639648438 l 5
 384.51953125 248.6796875 l 5
 128.040039062 248.6796875 l 5
 128.040039062 270.639648438 l 5
341 129 m 1
 256 214 l 1
 171 129 l 1
 171 54 l 1
 341 54 l 1
 341 129 l 1
128 438 m 1
 384 438 l 1
 384 310 l 1
 299 225 l 1
 384 140 l 1
 384 12 l 1
 128 12 l 1
 128 140 l 1
 213 225 l 1
 128 310 l 1
 128 438 l 1
EndSplineSet
EndUndoOperation
UndoOperation
Index: 38
Type: 1
WasModified: 1
WasOrder2: 0
Layer: 2
Width: 512
VWidth: 512
LBearingChange: 0
UnicodeEnc: 0
InstructionsLength: 0
SplineSet
128.040039062 280.639648438 m 5
 384.51953125 280.639648438 l 5
 384.51953125 258.6796875 l 5
 128.040039062 258.6796875 l 5
 128.040039062 280.639648438 l 5
341 129 m 1
 256 214 l 1
 171 129 l 1
 171 54 l 1
 341 54 l 1
 341 129 l 1
128 438 m 1
 384 438 l 1
 384 310 l 1
 299 225 l 1
 384 140 l 1
 384 12 l 1
 128 12 l 1
 128 140 l 1
 213 225 l 1
 128 310 l 1
 128 438 l 1
EndSplineSet
EndUndoOperation
UndoOperation
Index: 39
Type: 1
WasModified: 1
WasOrder2: 0
Layer: 2
Width: 512
VWidth: 512
LBearingChange: 0
UnicodeEnc: 0
InstructionsLength: 0
SplineSet
128.040039062 290.639648438 m 5
 384.51953125 290.639648438 l 5
 384.51953125 268.6796875 l 5
 128.040039062 268.6796875 l 5
 128.040039062 290.639648438 l 5
341 129 m 1
 256 214 l 1
 171 129 l 1
 171 54 l 1
 341 54 l 1
 341 129 l 1
128 438 m 1
 384 438 l 1
 384 310 l 1
 299 225 l 1
 384 140 l 1
 384 12 l 1
 128 12 l 1
 128 140 l 1
 213 225 l 1
 128 310 l 1
 128 438 l 1
EndSplineSet
EndUndoOperation
UndoOperation
Index: 40
Type: 1
WasModified: 1
WasOrder2: 0
Layer: 2
Width: 512
VWidth: 512
LBearingChange: 0
UnicodeEnc: 0
InstructionsLength: 0
SplineSet
128.040039062 300.639648438 m 5
 384.51953125 300.639648438 l 5
 384.51953125 278.6796875 l 5
 128.040039062 278.6796875 l 5
 128.040039062 300.639648438 l 5
341 129 m 1
 256 214 l 1
 171 129 l 1
 171 54 l 1
 341 54 l 1
 341 129 l 1
128 438 m 1
 384 438 l 1
 384 310 l 1
 299 225 l 1
 384 140 l 1
 384 12 l 1
 128 12 l 1
 128 140 l 1
 213 225 l 1
 128 310 l 1
 128 438 l 1
EndSplineSet
EndUndoOperation
UndoOperation
Index: 41
Type: 1
WasModified: 1
WasOrder2: 0
Layer: 2
Width: 512
VWidth: 512
LBearingChange: 0
UnicodeEnc: 0
InstructionsLength: 0
SplineSet
128.040039062 310.639648438 m 5
 384.51953125 310.639648438 l 5
 384.51953125 288.6796875 l 5
 128.040039062 288.6796875 l 5
 128.040039062 310.639648438 l 5
341 129 m 1
 256 214 l 1
 171 129 l 1
 171 54 l 1
 341 54 l 1
 341 129 l 1
128 438 m 1
 384 438 l 1
 384 310 l 1
 299 225 l 1
 384 140 l 1
 384 12 l 1
 128 12 l 1
 128 140 l 1
 213 225 l 1
 128 310 l 1
 128 438 l 1
EndSplineSet
EndUndoOperation
UndoOperation
Index: 42
Type: 1
WasModified: 1
WasOrder2: 0
Layer: 2
Width: 512
VWidth: 512
LBearingChange: 0
UnicodeEnc: 0
InstructionsLength: 0
SplineSet
128.040039062 320.639648438 m 5
 384.51953125 320.639648438 l 5
 384.51953125 298.6796875 l 5
 128.040039062 298.6796875 l 5
 128.040039062 320.639648438 l 5
341 129 m 1
 256 214 l 1
 171 129 l 1
 171 54 l 1
 341 54 l 1
 341 129 l 1
128 438 m 1
 384 438 l 1
 384 310 l 1
 299 225 l 1
 384 140 l 1
 384 12 l 1
 128 12 l 1
 128 140 l 1
 213 225 l 1
 128 310 l 1
 128 438 l 1
EndSplineSet
EndUndoOperation
UndoOperation
Index: 43
Type: 1
WasModified: 1
WasOrder2: 0
Layer: 2
Width: 512
VWidth: 512
LBearingChange: 0
UnicodeEnc: 0
InstructionsLength: 0
SplineSet
128.040039062 330.639648438 m 5
 384.51953125 330.639648438 l 5
 384.51953125 308.6796875 l 5
 128.040039062 308.6796875 l 5
 128.040039062 330.639648438 l 5
341 129 m 1
 256 214 l 1
 171 129 l 1
 171 54 l 1
 341 54 l 1
 341 129 l 1
128 438 m 1
 384 438 l 1
 384 310 l 1
 299 225 l 1
 384 140 l 1
 384 12 l 1
 128 12 l 1
 128 140 l 1
 213 225 l 1
 128 310 l 1
 128 438 l 1
EndSplineSet
EndUndoOperation
UndoOperation
Index: 44
Type: 1
WasModified: 1
WasOrder2: 0
Layer: 2
Width: 512
VWidth: 512
LBearingChange: 0
UnicodeEnc: 0
InstructionsLength: 0
SplineSet
128.040039062 340.639648438 m 5
 384.51953125 340.639648438 l 5
 384.51953125 318.6796875 l 5
 128.040039062 318.6796875 l 5
 128.040039062 340.639648438 l 5
341 129 m 1
 256 214 l 1
 171 129 l 1
 171 54 l 1
 341 54 l 1
 341 129 l 1
128 438 m 1
 384 438 l 1
 384 310 l 1
 299 225 l 1
 384 140 l 1
 384 12 l 1
 128 12 l 1
 128 140 l 1
 213 225 l 1
 128 310 l 1
 128 438 l 1
EndSplineSet
EndUndoOperation
UndoOperation
Index: 45
Type: 1
WasModified: 1
WasOrder2: 0
Layer: 2
Width: 512
VWidth: 512
LBearingChange: 0
UnicodeEnc: 0
InstructionsLength: 0
SplineSet
128.040039062 350.639648438 m 5
 384.51953125 350.639648438 l 5
 384.51953125 328.6796875 l 5
 128.040039062 328.6796875 l 5
 128.040039062 350.639648438 l 5
341 129 m 1
 256 214 l 1
 171 129 l 1
 171 54 l 1
 341 54 l 1
 341 129 l 1
128 438 m 1
 384 438 l 1
 384 310 l 1
 299 225 l 1
 384 140 l 1
 384 12 l 1
 128 12 l 1
 128 140 l 1
 213 225 l 1
 128 310 l 1
 128 438 l 1
EndSplineSet
EndUndoOperation
UndoOperation
Index: 46
Type: 1
WasModified: 1
WasOrder2: 0
Layer: 2
Width: 512
VWidth: 512
LBearingChange: 0
UnicodeEnc: 0
InstructionsLength: 0
SplineSet
128.040039062 360.639648438 m 5
 384.51953125 360.639648438 l 5
 384.51953125 338.6796875 l 5
 128.040039062 338.6796875 l 5
 128.040039062 360.639648438 l 5
341 129 m 1
 256 214 l 1
 171 129 l 1
 171 54 l 1
 341 54 l 1
 341 129 l 1
128 438 m 1
 384 438 l 1
 384 310 l 1
 299 225 l 1
 384 140 l 1
 384 12 l 1
 128 12 l 1
 128 140 l 1
 213 225 l 1
 128 310 l 1
 128 438 l 1
EndSplineSet
EndUndoOperation
UndoOperation
Index: 47
Type: 1
WasModified: 1
WasOrder2: 0
Layer: 2
Width: 512
VWidth: 512
LBearingChange: 0
UnicodeEnc: 0
InstructionsLength: 0
SplineSet
128.040039062 370.639648438 m 5
 384.51953125 370.639648438 l 5
 384.51953125 348.6796875 l 5
 128.040039062 348.6796875 l 5
 128.040039062 370.639648438 l 5
341 129 m 1
 256 214 l 1
 171 129 l 1
 171 54 l 1
 341 54 l 1
 341 129 l 1
128 438 m 1
 384 438 l 1
 384 310 l 1
 299 225 l 1
 384 140 l 1
 384 12 l 1
 128 12 l 1
 128 140 l 1
 213 225 l 1
 128 310 l 1
 128 438 l 1
EndSplineSet
EndUndoOperation
UndoOperation
Index: 48
Type: 1
WasModified: 1
WasOrder2: 0
Layer: 2
Width: 512
VWidth: 512
LBearingChange: 0
UnicodeEnc: 0
InstructionsLength: 0
SplineSet
128.040039062 380.639648438 m 5
 384.51953125 380.639648438 l 5
 384.51953125 358.6796875 l 5
 128.040039062 358.6796875 l 5
 128.040039062 380.639648438 l 5
341 129 m 1
 256 214 l 1
 171 129 l 1
 171 54 l 1
 341 54 l 1
 341 129 l 1
128 438 m 1
 384 438 l 1
 384 310 l 1
 299 225 l 1
 384 140 l 1
 384 12 l 1
 128 12 l 1
 128 140 l 1
 213 225 l 1
 128 310 l 1
 128 438 l 1
EndSplineSet
EndUndoOperation
UndoOperation
Index: 49
Type: 1
WasModified: 1
WasOrder2: 0
Layer: 2
Width: 512
VWidth: 512
LBearingChange: 0
UnicodeEnc: 0
InstructionsLength: 0
SplineSet
128.040039062 390.639648438 m 5
 384.51953125 390.639648438 l 5
 384.51953125 368.6796875 l 5
 128.040039062 368.6796875 l 5
 128.040039062 390.639648438 l 5
341 129 m 1
 256 214 l 1
 171 129 l 1
 171 54 l 1
 341 54 l 1
 341 129 l 1
128 438 m 1
 384 438 l 1
 384 310 l 1
 299 225 l 1
 384 140 l 1
 384 12 l 1
 128 12 l 1
 128 140 l 1
 213 225 l 1
 128 310 l 1
 128 438 l 1
EndSplineSet
EndUndoOperation
UndoOperation
Index: 50
Type: 1
WasModified: 1
WasOrder2: 0
Layer: 2
Width: 512
VWidth: 512
LBearingChange: 0
UnicodeEnc: 0
InstructionsLength: 0
SplineSet
128.040039062 400.639648438 m 5
 384.51953125 400.639648438 l 5
 384.51953125 378.6796875 l 5
 128.040039062 378.6796875 l 5
 128.040039062 400.639648438 l 5
341 129 m 1
 256 214 l 1
 171 129 l 1
 171 54 l 1
 341 54 l 1
 341 129 l 1
128 438 m 1
 384 438 l 1
 384 310 l 1
 299 225 l 1
 384 140 l 1
 384 12 l 1
 128 12 l 1
 128 140 l 1
 213 225 l 1
 128 310 l 1
 128 438 l 1
EndSplineSet
EndUndoOperation
UndoOperation
Index: 51
Type: 1
WasModified: 1
WasOrder2: 0
Layer: 2
Width: 512
VWidth: 512
LBearingChange: 0
UnicodeEnc: 0
InstructionsLength: 0
SplineSet
128.040039062 410.639648438 m 5
 384.51953125 410.639648438 l 5
 384.51953125 388.6796875 l 5
 128.040039062 388.6796875 l 5
 128.040039062 410.639648438 l 5
341 129 m 1
 256 214 l 1
 171 129 l 1
 171 54 l 1
 341 54 l 1
 341 129 l 1
128 438 m 1
 384 438 l 1
 384 310 l 1
 299 225 l 1
 384 140 l 1
 384 12 l 1
 128 12 l 1
 128 140 l 1
 213 225 l 1
 128 310 l 1
 128 438 l 1
EndSplineSet
EndUndoOperation
UndoOperation
Index: 52
Type: 1
WasModified: 1
WasOrder2: 0
Layer: 2
Width: 512
VWidth: 512
LBearingChange: 0
UnicodeEnc: 0
InstructionsLength: 0
SplineSet
128.040039062 420.639648438 m 5
 384.51953125 420.639648438 l 5
 384.51953125 398.6796875 l 5
 128.040039062 398.6796875 l 5
 128.040039062 420.639648438 l 5
341 129 m 1
 256 214 l 1
 171 129 l 1
 171 54 l 1
 341 54 l 1
 341 129 l 1
128 438 m 1
 384 438 l 1
 384 310 l 1
 299 225 l 1
 384 140 l 1
 384 12 l 1
 128 12 l 1
 128 140 l 1
 213 225 l 1
 128 310 l 1
 128 438 l 1
EndSplineSet
EndUndoOperation
UndoOperation
Index: 53
Type: 1
WasModified: 1
WasOrder2: 0
Layer: 2
Width: 512
VWidth: 512
LBearingChange: 0
UnicodeEnc: 0
InstructionsLength: 0
SplineSet
128.040039062 430.639648438 m 5
 384.51953125 430.639648438 l 5
 384.51953125 408.6796875 l 5
 128.040039062 408.6796875 l 5
 128.040039062 430.639648438 l 5
341 129 m 1
 256 214 l 1
 171 129 l 1
 171 54 l 1
 341 54 l 1
 341 129 l 1
128 438 m 1
 384 438 l 1
 384 310 l 1
 299 225 l 1
 384 140 l 1
 384 12 l 1
 128 12 l 1
 128 140 l 1
 213 225 l 1
 128 310 l 1
 128 438 l 1
EndSplineSet
EndUndoOperation
UndoOperation
Index: 54
Type: 1
WasModified: 1
WasOrder2: 0
Layer: 2
Width: 512
VWidth: 512
LBearingChange: 0
UnicodeEnc: 0
InstructionsLength: 0
SplineSet
128.040039062 440.639648438 m 5
 384.51953125 440.639648438 l 5
 384.51953125 418.6796875 l 5
 128.040039062 418.6796875 l 5
 128.040039062 440.639648438 l 5
341 129 m 1
 256 214 l 1
 171 129 l 1
 171 54 l 1
 341 54 l 1
 341 129 l 1
128 438 m 1
 384 438 l 1
 384 310 l 1
 299 225 l 1
 384 140 l 1
 384 12 l 1
 128 12 l 1
 128 140 l 1
 213 225 l 1
 128 310 l 1
 128 438 l 1
EndSplineSet
EndUndoOperation
UndoOperation
Index: 55
Type: 1
WasModified: 1
WasOrder2: 0
Layer: 2
Width: 512
VWidth: 512
LBearingChange: 0
UnicodeEnc: 0
InstructionsLength: 0
SplineSet
128.040039062 450.639648438 m 5
 384.51953125 450.639648438 l 5
 384.51953125 428.6796875 l 5
 128.040039062 428.6796875 l 5
 128.040039062 450.639648438 l 5
341 129 m 1
 256 214 l 1
 171 129 l 1
 171 54 l 1
 341 54 l 1
 341 129 l 1
128 438 m 1
 384 438 l 1
 384 310 l 1
 299 225 l 1
 384 140 l 1
 384 12 l 1
 128 12 l 1
 128 140 l 1
 213 225 l 1
 128 310 l 1
 128 438 l 1
EndSplineSet
EndUndoOperation
UndoOperation
Index: 56
Type: 1
WasModified: 1
WasOrder2: 0
Layer: 2
Width: 512
VWidth: 512
LBearingChange: 0
UnicodeEnc: 0
InstructionsLength: 0
SplineSet
128.040039062 460.639648438 m 5
 384.51953125 460.639648438 l 5
 384.51953125 438.6796875 l 5
 128.040039062 438.6796875 l 5
 128.040039062 460.639648438 l 5
341 129 m 1
 256 214 l 1
 171 129 l 1
 171 54 l 1
 341 54 l 1
 341 129 l 1
128 438 m 1
 384 438 l 1
 384 310 l 1
 299 225 l 1
 384 140 l 1
 384 12 l 1
 128 12 l 1
 128 140 l 1
 213 225 l 1
 128 310 l 1
 128 438 l 1
EndSplineSet
EndUndoOperation
UndoOperation
Index: 57
Type: 1
WasModified: 1
WasOrder2: 0
Layer: 2
Width: 512
VWidth: 512
LBearingChange: 0
UnicodeEnc: 0
InstructionsLength: 0
SplineSet
128.040039062 461.639648438 m 5
 384.51953125 461.639648438 l 5
 384.51953125 439.6796875 l 5
 128.040039062 439.6796875 l 5
 128.040039062 461.639648438 l 5
341 129 m 1
 256 214 l 1
 171 129 l 1
 171 54 l 1
 341 54 l 1
 341 129 l 1
128 438 m 1
 384 438 l 1
 384 310 l 1
 299 225 l 1
 384 140 l 1
 384 12 l 1
 128 12 l 1
 128 140 l 1
 213 225 l 1
 128 310 l 1
 128 438 l 1
EndSplineSet
EndUndoOperation
UndoOperation
Index: 58
Type: 1
WasModified: 1
WasOrder2: 0
Layer: 2
Width: 512
VWidth: 512
LBearingChange: 0
UnicodeEnc: 0
InstructionsLength: 0
SplineSet
128.040039062 462.639648438 m 5
 384.51953125 462.639648438 l 5
 384.51953125 440.6796875 l 5
 128.040039062 440.6796875 l 5
 128.040039062 462.639648438 l 5
341 129 m 1
 256 214 l 1
 171 129 l 1
 171 54 l 1
 341 54 l 1
 341 129 l 1
128 438 m 1
 384 438 l 1
 384 310 l 1
 299 225 l 1
 384 140 l 1
 384 12 l 1
 128 12 l 1
 128 140 l 1
 213 225 l 1
 128 310 l 1
 128 438 l 1
EndSplineSet
EndUndoOperation
UndoOperation
Index: 59
Type: 1
WasModified: 1
WasOrder2: 0
Layer: 2
Width: 512
VWidth: 512
LBearingChange: 0
UnicodeEnc: 0
InstructionsLength: 0
SplineSet
128.040039062 463.639648438 m 5
 384.51953125 463.639648438 l 5
 384.51953125 441.6796875 l 5
 128.040039062 441.6796875 l 5
 128.040039062 463.639648438 l 5
341 129 m 1
 256 214 l 1
 171 129 l 1
 171 54 l 1
 341 54 l 1
 341 129 l 1
128 438 m 1
 384 438 l 1
 384 310 l 1
 299 225 l 1
 384 140 l 1
 384 12 l 1
 128 12 l 1
 128 140 l 1
 213 225 l 1
 128 310 l 1
 128 438 l 1
EndSplineSet
EndUndoOperation
UndoOperation
Index: 60
Type: 1
WasModified: 1
WasOrder2: 0
Layer: 2
Width: 512
VWidth: 512
LBearingChange: 0
UnicodeEnc: 0
InstructionsLength: 0
SplineSet
128.040039062 464.639648438 m 5
 384.51953125 464.639648438 l 5
 384.51953125 442.6796875 l 5
 128.040039062 442.6796875 l 5
 128.040039062 464.639648438 l 5
341 129 m 1
 256 214 l 1
 171 129 l 1
 171 54 l 1
 341 54 l 1
 341 129 l 1
128 438 m 1
 384 438 l 1
 384 310 l 1
 299 225 l 1
 384 140 l 1
 384 12 l 1
 128 12 l 1
 128 140 l 1
 213 225 l 1
 128 310 l 1
 128 438 l 1
EndSplineSet
EndUndoOperation
UndoOperation
Index: 61
Type: 1
WasModified: 1
WasOrder2: 0
Layer: 2
Width: 512
VWidth: 512
LBearingChange: 0
UnicodeEnc: 0
InstructionsLength: 0
SplineSet
128.040039062 465.639648438 m 5
 384.51953125 465.639648438 l 5
 384.51953125 443.6796875 l 5
 128.040039062 443.6796875 l 5
 128.040039062 465.639648438 l 5
341 129 m 1
 256 214 l 1
 171 129 l 1
 171 54 l 1
 341 54 l 1
 341 129 l 1
128 438 m 1
 384 438 l 1
 384 310 l 1
 299 225 l 1
 384 140 l 1
 384 12 l 1
 128 12 l 1
 128 140 l 1
 213 225 l 1
 128 310 l 1
 128 438 l 1
EndSplineSet
EndUndoOperation
UndoOperation
Index: 62
Type: 1
WasModified: 1
WasOrder2: 0
Layer: 2
Width: 512
VWidth: 512
LBearingChange: 0
UnicodeEnc: 0
InstructionsLength: 0
SplineSet
128.040039062 466.639648438 m 5
 384.51953125 466.639648438 l 5
 384.51953125 444.6796875 l 5
 128.040039062 444.6796875 l 5
 128.040039062 466.639648438 l 5
341 129 m 1
 256 214 l 1
 171 129 l 1
 171 54 l 1
 341 54 l 1
 341 129 l 1
128 438 m 1
 384 438 l 1
 384 310 l 1
 299 225 l 1
 384 140 l 1
 384 12 l 1
 128 12 l 1
 128 140 l 1
 213 225 l 1
 128 310 l 1
 128 438 l 1
EndSplineSet
EndUndoOperation
UndoOperation
Index: 63
Type: 1
WasModified: 1
WasOrder2: 0
Layer: 2
Width: 512
VWidth: 512
LBearingChange: 0
UnicodeEnc: 0
InstructionsLength: 0
SplineSet
128.040039062 467.639648438 m 5
 384.51953125 467.639648438 l 5
 384.51953125 445.6796875 l 5
 128.040039062 445.6796875 l 5
 128.040039062 467.639648438 l 5
341 129 m 1
 256 214 l 1
 171 129 l 1
 171 54 l 1
 341 54 l 1
 341 129 l 1
128 438 m 1
 384 438 l 1
 384 310 l 1
 299 225 l 1
 384 140 l 1
 384 12 l 1
 128 12 l 1
 128 140 l 1
 213 225 l 1
 128 310 l 1
 128 438 l 1
EndSplineSet
EndUndoOperation
UndoOperation
Index: 64
Type: 1
WasModified: 1
WasOrder2: 0
Layer: 2
Width: 512
VWidth: 512
LBearingChange: 0
UnicodeEnc: 0
InstructionsLength: 0
SplineSet
128.040039062 468.639648438 m 5
 384.51953125 468.639648438 l 5
 384.51953125 446.6796875 l 5
 128.040039062 446.6796875 l 5
 128.040039062 468.639648438 l 5
341 129 m 1
 256 214 l 1
 171 129 l 1
 171 54 l 1
 341 54 l 1
 341 129 l 1
128 438 m 1
 384 438 l 1
 384 310 l 1
 299 225 l 1
 384 140 l 1
 384 12 l 1
 128 12 l 1
 128 140 l 1
 213 225 l 1
 128 310 l 1
 128 438 l 1
EndSplineSet
EndUndoOperation
UndoOperation
Index: 65
Type: 1
WasModified: 1
WasOrder2: 0
Layer: 2
Width: 512
VWidth: 512
LBearingChange: 0
UnicodeEnc: 0
InstructionsLength: 0
SplineSet
128.040039062 469.639648438 m 5
 384.51953125 469.639648438 l 5
 384.51953125 447.6796875 l 5
 128.040039062 447.6796875 l 5
 128.040039062 469.639648438 l 5
341 129 m 1
 256 214 l 1
 171 129 l 1
 171 54 l 1
 341 54 l 1
 341 129 l 1
128 438 m 1
 384 438 l 1
 384 310 l 1
 299 225 l 1
 384 140 l 1
 384 12 l 1
 128 12 l 1
 128 140 l 1
 213 225 l 1
 128 310 l 1
 128 438 l 1
EndSplineSet
EndUndoOperation
UndoOperation
Index: 66
Type: 1
WasModified: 1
WasOrder2: 0
Layer: 2
Width: 512
VWidth: 512
LBearingChange: 0
UnicodeEnc: 0
InstructionsLength: 0
SplineSet
128.040039062 470.639648438 m 5
 384.51953125 470.639648438 l 5
 384.51953125 448.6796875 l 5
 128.040039062 448.6796875 l 5
 128.040039062 470.639648438 l 5
341 129 m 1
 256 214 l 1
 171 129 l 1
 171 54 l 1
 341 54 l 1
 341 129 l 1
128 438 m 1
 384 438 l 1
 384 310 l 1
 299 225 l 1
 384 140 l 1
 384 12 l 1
 128 12 l 1
 128 140 l 1
 213 225 l 1
 128 310 l 1
 128 438 l 1
EndSplineSet
EndUndoOperation
UndoOperation
Index: 67
Type: 1
WasModified: 1
WasOrder2: 0
Layer: 2
Width: 512
VWidth: 512
LBearingChange: 0
UnicodeEnc: 0
InstructionsLength: 0
SplineSet
128.040039062 471.639648438 m 5
 384.51953125 471.639648438 l 5
 384.51953125 449.6796875 l 5
 128.040039062 449.6796875 l 5
 128.040039062 471.639648438 l 5
341 129 m 1
 256 214 l 1
 171 129 l 1
 171 54 l 1
 341 54 l 1
 341 129 l 1
128 438 m 1
 384 438 l 1
 384 310 l 1
 299 225 l 1
 384 140 l 1
 384 12 l 1
 128 12 l 1
 128 140 l 1
 213 225 l 1
 128 310 l 1
 128 438 l 1
EndSplineSet
EndUndoOperation
UndoOperation
Index: 68
Type: 1
WasModified: 1
WasOrder2: 0
Layer: 2
Width: 512
VWidth: 512
LBearingChange: 0
UnicodeEnc: 0
InstructionsLength: 0
SplineSet
128.040039062 472.639648438 m 5
 384.51953125 472.639648438 l 5
 384.51953125 450.6796875 l 5
 128.040039062 450.6796875 l 5
 128.040039062 472.639648438 l 5
341 129 m 1
 256 214 l 1
 171 129 l 1
 171 54 l 1
 341 54 l 1
 341 129 l 1
128 438 m 1
 384 438 l 1
 384 310 l 1
 299 225 l 1
 384 140 l 1
 384 12 l 1
 128 12 l 1
 128 140 l 1
 213 225 l 1
 128 310 l 1
 128 438 l 1
EndSplineSet
EndUndoOperation
UndoOperation
Index: 69
Type: 1
WasModified: 1
WasOrder2: 0
Layer: 2
Width: 512
VWidth: 512
LBearingChange: 0
UnicodeEnc: 0
InstructionsLength: 0
SplineSet
128.040039062 473.639648438 m 5
 384.51953125 473.639648438 l 5
 384.51953125 451.6796875 l 5
 128.040039062 451.6796875 l 5
 128.040039062 473.639648438 l 5
341 129 m 1
 256 214 l 1
 171 129 l 1
 171 54 l 1
 341 54 l 1
 341 129 l 1
128 438 m 1
 384 438 l 1
 384 310 l 1
 299 225 l 1
 384 140 l 1
 384 12 l 1
 128 12 l 1
 128 140 l 1
 213 225 l 1
 128 310 l 1
 128 438 l 1
EndSplineSet
EndUndoOperation
UndoOperation
Index: 70
Type: 1
WasModified: 1
WasOrder2: 0
Layer: 2
Width: 512
VWidth: 512
LBearingChange: 0
UnicodeEnc: 0
InstructionsLength: 0
SplineSet
128.040039062 474.639648438 m 5
 384.51953125 474.639648438 l 5
 384.51953125 452.6796875 l 5
 128.040039062 452.6796875 l 5
 128.040039062 474.639648438 l 5
341 129 m 1
 256 214 l 1
 171 129 l 1
 171 54 l 1
 341 54 l 1
 341 129 l 1
128 438 m 1
 384 438 l 1
 384 310 l 1
 299 225 l 1
 384 140 l 1
 384 12 l 1
 128 12 l 1
 128 140 l 1
 213 225 l 1
 128 310 l 1
 128 438 l 1
EndSplineSet
EndUndoOperation
UndoOperation
Index: 71
Type: 1
WasModified: 1
WasOrder2: 0
Layer: 2
Width: 512
VWidth: 512
LBearingChange: 0
UnicodeEnc: 0
InstructionsLength: 0
SplineSet
128.040039062 475.639648438 m 5
 384.51953125 475.639648438 l 5
 384.51953125 453.6796875 l 5
 128.040039062 453.6796875 l 5
 128.040039062 475.639648438 l 5
341 129 m 1
 256 214 l 1
 171 129 l 1
 171 54 l 1
 341 54 l 1
 341 129 l 1
128 438 m 1
 384 438 l 1
 384 310 l 1
 299 225 l 1
 384 140 l 1
 384 12 l 1
 128 12 l 1
 128 140 l 1
 213 225 l 1
 128 310 l 1
 128 438 l 1
EndSplineSet
EndUndoOperation
UndoOperation
Index: 72
Type: 1
WasModified: 1
WasOrder2: 0
Layer: 2
Width: 512
VWidth: 512
LBearingChange: 0
UnicodeEnc: 0
InstructionsLength: 0
SplineSet
128.040039062 476.639648438 m 5
 384.51953125 476.639648438 l 5
 384.51953125 454.6796875 l 5
 128.040039062 454.6796875 l 5
 128.040039062 476.639648438 l 5
341 129 m 1
 256 214 l 1
 171 129 l 1
 171 54 l 1
 341 54 l 1
 341 129 l 1
128 438 m 1
 384 438 l 1
 384 310 l 1
 299 225 l 1
 384 140 l 1
 384 12 l 1
 128 12 l 1
 128 140 l 1
 213 225 l 1
 128 310 l 1
 128 438 l 1
EndSplineSet
EndUndoOperation
UndoOperation
Index: 73
Type: 1
WasModified: 1
WasOrder2: 0
Layer: 2
Width: 512
VWidth: 512
LBearingChange: 0
UnicodeEnc: 0
InstructionsLength: 0
SplineSet
128.040039062 477.639648438 m 5
 384.51953125 477.639648438 l 5
 384.51953125 455.6796875 l 5
 128.040039062 455.6796875 l 5
 128.040039062 477.639648438 l 5
341 129 m 1
 256 214 l 1
 171 129 l 1
 171 54 l 1
 341 54 l 1
 341 129 l 1
128 438 m 1
 384 438 l 1
 384 310 l 1
 299 225 l 1
 384 140 l 1
 384 12 l 1
 128 12 l 1
 128 140 l 1
 213 225 l 1
 128 310 l 1
 128 438 l 1
EndSplineSet
EndUndoOperation
UndoOperation
Index: 74
Type: 1
WasModified: 1
WasOrder2: 0
Layer: 2
Width: 512
VWidth: 512
LBearingChange: 0
UnicodeEnc: 0
InstructionsLength: 0
SplineSet
128.040039062 478.639648438 m 5
 384.51953125 478.639648438 l 5
 384.51953125 456.6796875 l 5
 128.040039062 456.6796875 l 5
 128.040039062 478.639648438 l 5
341 129 m 1
 256 214 l 1
 171 129 l 1
 171 54 l 1
 341 54 l 1
 341 129 l 1
128 438 m 1
 384 438 l 1
 384 310 l 1
 299 225 l 1
 384 140 l 1
 384 12 l 1
 128 12 l 1
 128 140 l 1
 213 225 l 1
 128 310 l 1
 128 438 l 1
EndSplineSet
EndUndoOperation
UndoOperation
Index: 75
Type: 1
WasModified: 1
WasOrder2: 0
Layer: 2
Width: 512
VWidth: 512
LBearingChange: 0
UnicodeEnc: 0
InstructionsLength: 0
SplineSet
128.040039062 479.639648438 m 5
 384.51953125 479.639648438 l 5
 384.51953125 457.6796875 l 5
 128.040039062 457.6796875 l 5
 128.040039062 479.639648438 l 5
341 129 m 1
 256 214 l 1
 171 129 l 1
 171 54 l 1
 341 54 l 1
 341 129 l 1
128 438 m 1
 384 438 l 1
 384 310 l 1
 299 225 l 1
 384 140 l 1
 384 12 l 1
 128 12 l 1
 128 140 l 1
 213 225 l 1
 128 310 l 1
 128 438 l 1
EndSplineSet
EndUndoOperation
UndoOperation
Index: 76
Type: 1
WasModified: 1
WasOrder2: 0
Layer: 2
Width: 512
VWidth: 512
LBearingChange: 0
UnicodeEnc: 0
InstructionsLength: 0
SplineSet
128.040039062 480.639648438 m 5
 384.51953125 480.639648438 l 5
 384.51953125 458.6796875 l 5
 128.040039062 458.6796875 l 5
 128.040039062 480.639648438 l 5
341 129 m 1
 256 214 l 1
 171 129 l 1
 171 54 l 1
 341 54 l 1
 341 129 l 1
128 438 m 1
 384 438 l 1
 384 310 l 1
 299 225 l 1
 384 140 l 1
 384 12 l 1
 128 12 l 1
 128 140 l 1
 213 225 l 1
 128 310 l 1
 128 438 l 1
EndSplineSet
EndUndoOperation
UndoOperation
Index: 77
Type: 1
WasModified: 1
WasOrder2: 0
Layer: 2
Width: 512
VWidth: 512
LBearingChange: 0
UnicodeEnc: 0
InstructionsLength: 0
SplineSet
128.040039062 481.639648438 m 5
 384.51953125 481.639648438 l 5
 384.51953125 459.6796875 l 5
 128.040039062 459.6796875 l 5
 128.040039062 481.639648438 l 5
341 129 m 1
 256 214 l 1
 171 129 l 1
 171 54 l 1
 341 54 l 1
 341 129 l 1
128 438 m 1
 384 438 l 1
 384 310 l 1
 299 225 l 1
 384 140 l 1
 384 12 l 1
 128 12 l 1
 128 140 l 1
 213 225 l 1
 128 310 l 1
 128 438 l 1
EndSplineSet
EndUndoOperation
UndoOperation
Index: 78
Type: 1
WasModified: 1
WasOrder2: 0
Layer: 2
Width: 512
VWidth: 512
LBearingChange: 0
UnicodeEnc: 0
InstructionsLength: 0
SplineSet
128.040039062 482.639648438 m 5
 384.51953125 482.639648438 l 5
 384.51953125 460.6796875 l 5
 128.040039062 460.6796875 l 5
 128.040039062 482.639648438 l 5
341 129 m 1
 256 214 l 1
 171 129 l 1
 171 54 l 1
 341 54 l 1
 341 129 l 1
128 438 m 1
 384 438 l 1
 384 310 l 1
 299 225 l 1
 384 140 l 1
 384 12 l 1
 128 12 l 1
 128 140 l 1
 213 225 l 1
 128 310 l 1
 128 438 l 1
EndSplineSet
EndUndoOperation
UndoOperation
Index: 79
Type: 1
WasModified: 1
WasOrder2: 0
Layer: 2
Width: 512
VWidth: 512
LBearingChange: 0
UnicodeEnc: 0
InstructionsLength: 0
SplineSet
128.040039062 483.639648438 m 5
 384.51953125 483.639648438 l 5
 384.51953125 461.6796875 l 5
 128.040039062 461.6796875 l 5
 128.040039062 483.639648438 l 5
341 129 m 1
 256 214 l 1
 171 129 l 1
 171 54 l 1
 341 54 l 1
 341 129 l 1
128 438 m 1
 384 438 l 1
 384 310 l 1
 299 225 l 1
 384 140 l 1
 384 12 l 1
 128 12 l 1
 128 140 l 1
 213 225 l 1
 128 310 l 1
 128 438 l 1
EndSplineSet
EndUndoOperation
UndoOperation
Index: 80
Type: 1
WasModified: 1
WasOrder2: 0
Layer: 2
Width: 512
VWidth: 512
LBearingChange: 0
UnicodeEnc: 0
InstructionsLength: 0
SplineSet
128.040039062 484.639648438 m 5
 384.51953125 484.639648438 l 5
 384.51953125 462.6796875 l 5
 128.040039062 462.6796875 l 5
 128.040039062 484.639648438 l 5
341 129 m 1
 256 214 l 1
 171 129 l 1
 171 54 l 1
 341 54 l 1
 341 129 l 1
128 438 m 1
 384 438 l 1
 384 310 l 1
 299 225 l 1
 384 140 l 1
 384 12 l 1
 128 12 l 1
 128 140 l 1
 213 225 l 1
 128 310 l 1
 128 438 l 1
EndSplineSet
EndUndoOperation
UndoOperation
Index: 81
Type: 1
WasModified: 1
WasOrder2: 0
Layer: 2
Width: 512
VWidth: 512
LBearingChange: 0
UnicodeEnc: 0
InstructionsLength: 0
SplineSet
128.040039062 485.639648438 m 5
 384.51953125 485.639648438 l 5
 384.51953125 463.6796875 l 5
 128.040039062 463.6796875 l 5
 128.040039062 485.639648438 l 5
341 129 m 1
 256 214 l 1
 171 129 l 1
 171 54 l 1
 341 54 l 1
 341 129 l 1
128 438 m 1
 384 438 l 1
 384 310 l 1
 299 225 l 1
 384 140 l 1
 384 12 l 1
 128 12 l 1
 128 140 l 1
 213 225 l 1
 128 310 l 1
 128 438 l 1
EndSplineSet
EndUndoOperation
UndoOperation
Index: 82
Type: 1
WasModified: 1
WasOrder2: 0
Layer: 2
Width: 512
VWidth: 512
LBearingChange: 0
UnicodeEnc: 0
InstructionsLength: 0
SplineSet
128.040039062 486.639648438 m 5
 384.51953125 486.639648438 l 5
 384.51953125 464.6796875 l 5
 128.040039062 464.6796875 l 5
 128.040039062 486.639648438 l 5
341 129 m 1
 256 214 l 1
 171 129 l 1
 171 54 l 1
 341 54 l 1
 341 129 l 1
128 438 m 1
 384 438 l 1
 384 310 l 1
 299 225 l 1
 384 140 l 1
 384 12 l 1
 128 12 l 1
 128 140 l 1
 213 225 l 1
 128 310 l 1
 128 438 l 1
EndSplineSet
EndUndoOperation
UndoOperation
Index: 83
Type: 1
WasModified: 1
WasOrder2: 0
Layer: 2
Width: 512
VWidth: 512
LBearingChange: 0
UnicodeEnc: 0
InstructionsLength: 0
SplineSet
128.040039062 487.639648438 m 5
 384.51953125 487.639648438 l 5
 384.51953125 465.6796875 l 5
 128.040039062 465.6796875 l 5
 128.040039062 487.639648438 l 5
341 129 m 1
 256 214 l 1
 171 129 l 1
 171 54 l 1
 341 54 l 1
 341 129 l 1
128 438 m 1
 384 438 l 1
 384 310 l 1
 299 225 l 1
 384 140 l 1
 384 12 l 1
 128 12 l 1
 128 140 l 1
 213 225 l 1
 128 310 l 1
 128 438 l 1
EndSplineSet
EndUndoOperation
UndoOperation
Index: 84
Type: 1
WasModified: 1
WasOrder2: 0
Layer: 2
Width: 512
VWidth: 512
LBearingChange: 0
UnicodeEnc: 0
InstructionsLength: 0
SplineSet
128.040039062 488.639648438 m 5
 384.51953125 488.639648438 l 5
 384.51953125 466.6796875 l 5
 128.040039062 466.6796875 l 5
 128.040039062 488.639648438 l 5
341 129 m 1
 256 214 l 1
 171 129 l 1
 171 54 l 1
 341 54 l 1
 341 129 l 1
128 438 m 1
 384 438 l 1
 384 310 l 1
 299 225 l 1
 384 140 l 1
 384 12 l 1
 128 12 l 1
 128 140 l 1
 213 225 l 1
 128 310 l 1
 128 438 l 1
EndSplineSet
EndUndoOperation
UndoOperation
Index: 85
Type: 3
WasModified: 0
WasOrder2: 0
Layer: 2
EndUndoOperation
UndoOperation
Index: 86
Type: 4
WasModified: 0
WasOrder2: 0
Layer: 2
EndUndoOperation
EndUndoes
Redoes
EndRedoes
EndUndoRedoHistory
Fore
SplineSet
128.040039062 40.6396484375 m 5
 384.51953125 40.6396484375 l 5
 384.51953125 18.6796875 l 5
 128.040039062 18.6796875 l 5
 128.040039062 40.6396484375 l 5
341 179 m 1
 256 264 l 1
 171 179 l 1
 171 104 l 1
 341 104 l 1
 341 179 l 1
128 488 m 1
 384 488 l 1
 384 360 l 1
 299 275 l 1
 384 190 l 1
 384 62 l 1
 128 62 l 1
 128 190 l 1
 213 275 l 1
 128 360 l 1
 128 488 l 1
EndSplineSet
Layer: 2
SplineSet
223.93359375 260.014648438 m 1
 153.571289062 260.014648438 l 1
 153.571289062 189.369140625 l 1
 223.93359375 189.369140625 l 1
 223.93359375 260.014648438 l 1
405 107 m 1
 405 341 l 1
 107 341 l 1
 107 107 l 1
 405 107 l 1
341 491 m 1
 384 491 l 1
 384 448 l 1
 405 448 l 2
 416.333333333 448 426.333333333 443.666666667 435 435 c 128
 443.666666667 426.333333333 448 416.333333333 448 405 c 2
 448 107 l 2
 448 95.6666666667 443.666666667 85.6666666667 435 77 c 128
 426.333333333 68.3333333333 416.333333333 64 405 64 c 2
 107 64 l 2
 95 64 84.8333333333 68.3333333333 76.5 77 c 128
 68.1666666667 85.6666666667 64 95.6666666667 64 107 c 2
 64 405 l 2
 64 416.333333333 68.1666666667 426.333333333 76.5 435 c 128
 84.8333333333 443.666666667 95 448 107 448 c 2
 128 448 l 1
 128 491 l 1
 171 491 l 1
 171 448 l 1
 341 448 l 1
 341 491 l 1
405 107 m 1
 405 341 l 1
 107 341 l 1
 107 107 l 1
 405 107 l 1
341 491 m 1
 384 491 l 1
 384 448 l 1
 405 448 l 2
 416.333333333 448 426.333333333 443.666666667 435 435 c 128
 443.666666667 426.333333333 448 416.333333333 448 405 c 2
 448 107 l 2
 448 95.6666666667 443.666666667 85.6666666667 435 77 c 128
 426.333333333 68.3333333333 416.333333333 64 405 64 c 2
 107 64 l 2
 95 64 84.8333333333 68.3333333333 76.5 77 c 128
 68.1666666667 85.6666666667 64 95.6666666667 64 107 c 2
 64 405 l 2
 64 416.333333333 68.1666666667 426.333333333 76.5 435 c 128
 84.8333333333 443.666666667 95 448 107 448 c 2
 128 448 l 1
 128 491 l 1
 171 491 l 1
 171 448 l 1
 341 448 l 1
 341 491 l 1
EndSplineSet
EndChar

StartChar: parenleft
Encoding: 40 40 14
Width: 512
Flags: HW
LayerCount: 5
UndoRedoHistory
Layer: 1
Undoes
UndoOperation
Index: 0
Type: 3
WasModified: 1
WasOrder2: 0
Layer: 2
EndUndoOperation
EndUndoes
Redoes
EndRedoes
EndUndoRedoHistory
Fore
SplineSet
341 160 m 5
 256 245 l 5
 171 160 l 5
 171 85 l 5
 341 85 l 5
 341 160 l 5
128 469 m 5
 384 469 l 5
 384 341 l 5
 299 256 l 5
 384 171 l 5
 384 43 l 5
 128 43 l 5
 128 171 l 5
 213 256 l 5
 128 341 l 5
 128 469 l 5
EndSplineSet
Validated: 1
EndChar

StartChar: equal
Encoding: 61 61 15
Width: 512
Flags: HW
LayerCount: 5
UndoRedoHistory
Layer: 1
Undoes
UndoOperation
Index: 0
Type: 3
WasModified: 1
WasOrder2: 0
Layer: 2
EndUndoOperation
EndUndoes
Redoes
EndRedoes
EndUndoRedoHistory
Fore
SplineSet
426 288 m 5
 424.666666667 312 416.666666667 337.333333333 402 364 c 132
 387.333333333 390.666666667 370.333333333 411 351 425 c 5
 381 455 l 5
 436.333333333 412.333333333 465.666666667 356.666666667 469 288 c 5
 426 288 l 5
162 425 m 5
 142.666666667 411 125.5 390.666666667 110.5 364 c 132
 95.5 337.333333333 87.3333333333 312 86 288 c 5
 43 288 l 5
 46.3333333333 356.666666667 75.6666666667 412.333333333 131 455 c 5
 162 425 l 5
272.828125 176.918945312 m 1
 272.828125 316.896484375 l 1
 307.9375 316.896484375 l 1
 307.9375 176.918945312 l 1
 272.828125 176.918945312 l 1
203.42578125 176.918945312 m 1
 203.42578125 316.896484375 l 1
 238.53515625 316.896484375 l 1
 238.53515625 176.918945312 l 1
 203.42578125 176.918945312 l 1
341 149 m 1
 341 277 l 2
 341 304.333333333 333.333333333 327.166666667 318 345.5 c 128
 302.666666667 363.833333333 282 373 256 373 c 128
 230 373 209.333333333 363.833333333 194 345.5 c 128
 178.666666667 327.166666667 171 304.333333333 171 277 c 2
 171 149 l 1
 341 149 l 1
384 171 m 1
 427 128 l 1
 427 107 l 1
 85 107 l 1
 85 128 l 1
 128 171 l 1
 128 277 l 2
 128 310.333333333 136.5 339.333333333 153.5 364 c 128
 170.5 388.666666667 194 404.666666667 224 412 c 1
 224 427 l 2
 224 435.666666667 227 443.166666667 233 449.5 c 128
 239 455.833333333 246.666666667 459 256 459 c 128
 265.333333333 459 273 455.833333333 279 449.5 c 128
 285 443.166666667 288 435.666666667 288 427 c 2
 288 412 l 1
 318 404.666666667 341.5 388.666666667 358.5 364 c 128
 375.5 339.333333333 384 310.333333333 384 277 c 2
 384 171 l 1
256 43 m 128
 244.666666667 43 234.666666667 47.1666666667 226 55.5 c 128
 217.333333333 63.8333333333 213 73.6666666667 213 85 c 1
 299 85 l 1
 299 73.6666666667 294.666666667 63.8333333333 286 55.5 c 128
 277.333333333 47.1666666667 267.333333333 43 256 43 c 128
EndSplineSet
Validated: 1
EndChar

StartChar: slash
Encoding: 47 47 16
Width: 512
Flags: HW
LayerCount: 5
UndoRedoHistory
Layer: 1
Undoes
UndoOperation
Index: 0
Type: 3
WasModified: 1
WasOrder2: 0
Layer: 2
EndUndoOperation
EndUndoes
Redoes
EndRedoes
EndUndoRedoHistory
Fore
SplineSet
229.16015625 449.48046875 m 1
 229.16015625 471.440429688 l 1
 384 471.440429688 l 1
 384 464.120442708 384 456.800455729 384 449.48046875 c 1
 229.16015625 449.48046875 l 1
128.040039062 504.639648438 m 1
 384 504.639648438 l 1
 384 497.319661458 384 489.999674479 384 482.6796875 c 1
 128.040039062 482.6796875 l 1
 128.040039062 504.639648438 l 1
256 236 m 1
 341 321 l 1
 341 396 l 1
 171 396 l 1
 171 321 l 1
 256 236 l 1
128 438 m 1
 384 438 l 1
 384 310 l 1
 299 225 l 1
 384 140 l 1
 384 12 l 1
 128 12 l 1
 128 140 l 1
 213 225 l 1
 128 310 l 1
 128 438 l 1
EndSplineSet
Validated: 1
EndChar

StartChar: two
Encoding: 50 50 17
Width: 512
Flags: HW
LayerCount: 5
UndoRedoHistory
Layer: 1
Undoes
UndoOperation
Index: 0
Type: 3
WasModified: 0
WasOrder2: 0
Layer: 2
EndUndoOperation
EndUndoes
Redoes
EndRedoes
EndUndoRedoHistory
Fore
SplineSet
320 278 m 6
 320 266.666666667 315.833333333 256.833333333 307.5 248.5 c 132
 299.166666667 240.166666667 289 236 277 236 c 6
 235 236 l 5
 235 193 l 5
 320 193 l 5
 320 150 l 5
 192 150 l 5
 192 236 l 6
 192 247.333333333 196.166666667 257.166666667 204.5 265.5 c 132
 212.833333333 273.833333333 223 278 235 278 c 6
 277 278 l 5
 277 321 l 5
 192 321 l 5
 192 364 l 5
 277 364 l 6
 289 364 299.166666667 359.833333333 307.5 351.5 c 132
 315.833333333 343.166666667 320 333 320 321 c 6
 320 278 l 6
405 449 m 6
 107 449 l 6
 95 449 84.8333333333 444.833333333 76.5 436.5 c 132
 68.1666666667 428.166666667 64 418 64 406 c 6
 64 108 l 6
 64 96 68.1666666667 85.8333333333 76.5 77.5 c 132
 84.8333333333 69.1666666667 95 65 107 65 c 6
 405 65 l 6
 417 65 427.166666667 69.1666666667 435.5 77.5 c 132
 443.833333333 85.8333333333 448 96 448 108 c 6
 448 406 l 6
 448 418 443.833333333 428.166666667 435.5 436.5 c 132
 427.166666667 444.833333333 417 449 405 449 c 6
EndSplineSet
Validated: 9
EndChar

StartChar: three
Encoding: 51 51 18
Width: 512
Flags: HW
LayerCount: 5
UndoRedoHistory
Layer: 1
Undoes
UndoOperation
Index: 0
Type: 3
WasModified: 0
WasOrder2: 0
Layer: 2
EndUndoOperation
EndUndoes
Redoes
EndRedoes
EndUndoRedoHistory
Fore
SplineSet
320 289 m 6
 320 280.333333333 316.833333333 272.833333333 310.5 266.5 c 132
 304.166666667 260.166666667 296.666666667 257 288 257 c 5
 296.666666667 257 304.166666667 253.833333333 310.5 247.5 c 132
 316.833333333 241.166666667 320 233.666666667 320 225 c 6
 320 193 l 6
 320 181 315.833333333 170.833333333 307.5 162.5 c 132
 299.166666667 154.166666667 289 150 277 150 c 6
 192 150 l 5
 192 193 l 5
 277 193 l 5
 277 236 l 5
 235 236 l 5
 235 278 l 5
 277 278 l 5
 277 321 l 5
 192 321 l 5
 192 364 l 5
 277 364 l 6
 289 364 299.166666667 359.833333333 307.5 351.5 c 132
 315.833333333 343.166666667 320 333 320 321 c 6
 320 289 l 6
405 449 m 6
 107 449 l 6
 95 449 84.8333333333 444.833333333 76.5 436.5 c 132
 68.1666666667 428.166666667 64 418 64 406 c 6
 64 108 l 6
 64 96 68.1666666667 85.8333333333 76.5 77.5 c 132
 84.8333333333 69.1666666667 95 65 107 65 c 6
 405 65 l 6
 417 65 427.166666667 69.1666666667 435.5 77.5 c 132
 443.833333333 85.8333333333 448 96 448 108 c 6
 448 406 l 6
 448 418 443.833333333 428.166666667 435.5 436.5 c 132
 427.166666667 444.833333333 417 449 405 449 c 6
EndSplineSet
Validated: 9
EndChar

StartChar: four
Encoding: 52 52 19
Width: 512
Flags: HW
LayerCount: 5
UndoRedoHistory
Layer: 1
Undoes
UndoOperation
Index: 0
Type: 3
WasModified: 0
WasOrder2: 0
Layer: 2
EndUndoOperation
EndUndoes
Redoes
EndRedoes
EndUndoRedoHistory
Fore
SplineSet
320 150 m 5
 277 150 l 5
 277 236 l 5
 192 236 l 5
 192 364 l 5
 235 364 l 5
 235 278 l 5
 277 278 l 5
 277 364 l 5
 320 364 l 5
 320 150 l 5
405 449 m 6
 107 449 l 6
 95 449 84.8333333333 444.833333333 76.5 436.5 c 132
 68.1666666667 428.166666667 64 418 64 406 c 6
 64 108 l 6
 64 96 68.1666666667 85.8333333333 76.5 77.5 c 132
 84.8333333333 69.1666666667 95 65 107 65 c 6
 405 65 l 6
 417 65 427.166666667 69.1666666667 435.5 77.5 c 132
 443.833333333 85.8333333333 448 96 448 108 c 6
 448 406 l 6
 448 418 443.833333333 428.166666667 435.5 436.5 c 132
 427.166666667 444.833333333 417 449 405 449 c 6
EndSplineSet
Validated: 9
EndChar

StartChar: five
Encoding: 53 53 20
Width: 512
Flags: HW
LayerCount: 5
UndoRedoHistory
Layer: 1
Undoes
UndoOperation
Index: 0
Type: 1
WasModified: 1
WasOrder2: 0
Layer: 2
Width: 512
VWidth: 512
LBearingChange: 0
UnicodeEnc: 0
InstructionsLength: 0
SplineSet
321 321 m 5
 236 321 l 5
 236 278 l 5
 278 278 l 6
 290 278 300.166666667 273.833333333 308.5 265.5 c 132
 316.833333333 257.166666667 321 247.333333333 321 236 c 6
 321 193 l 6
 321 181 316.833333333 170.833333333 308.5 162.5 c 132
 300.166666667 154.166666667 290 150 278 150 c 6
 193 150 l 5
 193 193 l 5
 278 193 l 5
 278 236 l 5
 193 236 l 5
 193 364 l 5
 321 364 l 5
 321 321 l 5
406 449 m 6
 108 449 l 6
 96 449 85.8333333333 444.833333333 77.5 436.5 c 132
 69.1666666667 428.166666667 65 418 65 406 c 6
 65 108 l 6
 65 96 69.1666666667 85.8333333333 77.5 77.5 c 132
 85.8333333333 69.1666666667 96 65 108 65 c 6
 406 65 l 6
 418 65 428.166666667 69.1666666667 436.5 77.5 c 132
 444.833333333 85.8333333333 449 96 449 108 c 6
 449 406 l 6
 449 418 444.833333333 428.166666667 436.5 436.5 c 132
 428.166666667 444.833333333 418 449 406 449 c 6
EndSplineSet
EndUndoOperation
EndUndoes
Redoes
EndRedoes
EndUndoRedoHistory
Fore
SplineSet
320 321 m 1
 235 321 l 1
 235 278 l 1
 277 278 l 2
 289 278 299.166666667 273.833333333 307.5 265.5 c 128
 315.833333333 257.166666667 320 247.333333333 320 236 c 2
 320 193 l 2
 320 181 315.833333333 170.833333333 307.5 162.5 c 128
 299.166666667 154.166666667 289 150 277 150 c 2
 192 150 l 1
 192 193 l 1
 277 193 l 1
 277 236 l 1
 192 236 l 1
 192 364 l 1
 320 364 l 1
 320 321 l 1
405 449 m 2
 107 449 l 2
 95 449 84.8333333333 444.833333333 76.5 436.5 c 128
 68.1666666667 428.166666667 64 418 64 406 c 2
 64 108 l 2
 64 96 68.1666666667 85.8333333333 76.5 77.5 c 128
 84.8333333333 69.1666666667 95 65 107 65 c 2
 405 65 l 2
 417 65 427.166666667 69.1666666667 435.5 77.5 c 128
 443.833333333 85.8333333333 448 96 448 108 c 2
 448 406 l 2
 448 418 443.833333333 428.166666667 435.5 436.5 c 128
 427.166666667 444.833333333 417 449 405 449 c 2
EndSplineSet
Validated: 9
EndChar

StartChar: six
Encoding: 54 54 21
Width: 512
Flags: HW
LayerCount: 5
UndoRedoHistory
Layer: 1
Undoes
UndoOperation
Index: 0
Type: 3
WasModified: 0
WasOrder2: 0
Layer: 2
EndUndoOperation
EndUndoes
Redoes
EndRedoes
EndUndoRedoHistory
Fore
SplineSet
320 321 m 5
 235 321 l 5
 235 278 l 5
 277 278 l 6
 289 278 299.166666667 273.833333333 307.5 265.5 c 132
 315.833333333 257.166666667 320 247.333333333 320 236 c 6
 320 193 l 6
 320 181 315.833333333 170.833333333 307.5 162.5 c 132
 299.166666667 154.166666667 289 150 277 150 c 6
 235 150 l 6
 223 150 212.833333333 154.166666667 204.5 162.5 c 132
 196.166666667 170.833333333 192 181 192 193 c 6
 192 321 l 6
 192 333 196.166666667 343.166666667 204.5 351.5 c 132
 212.833333333 359.833333333 223 364 235 364 c 6
 320 364 l 5
 320 321 l 5
405 449 m 6
 107 449 l 6
 95 449 84.8333333333 444.833333333 76.5 436.5 c 132
 68.1666666667 428.166666667 64 418 64 406 c 6
 64 108 l 6
 64 96 68.1666666667 85.8333333333 76.5 77.5 c 132
 84.8333333333 69.1666666667 95 65 107 65 c 6
 405 65 l 6
 417 65 427.166666667 69.1666666667 435.5 77.5 c 132
 443.833333333 85.8333333333 448 96 448 108 c 6
 448 406 l 6
 448 418 443.833333333 428.166666667 435.5 436.5 c 132
 427.166666667 444.833333333 417 449 405 449 c 6
235 193 m 5
 277 193 l 5
 277 236 l 5
 235 236 l 5
 235 193 l 5
EndSplineSet
Validated: 9
EndChar

StartChar: seven
Encoding: 55 55 22
Width: 512
Flags: HW
LayerCount: 5
UndoRedoHistory
Layer: 1
Undoes
UndoOperation
Index: 0
Type: 3
WasModified: 0
WasOrder2: 0
Layer: 2
EndUndoOperation
EndUndoes
Redoes
EndRedoes
EndUndoRedoHistory
Fore
SplineSet
405 449 m 6
 417 449 427.166666667 444.833333333 435.5 436.5 c 132
 443.833333333 428.166666667 448 418 448 406 c 6
 448 108 l 6
 448 96 443.833333333 85.8333333333 435.5 77.5 c 132
 427.166666667 69.1666666667 417 65 405 65 c 6
 107 65 l 6
 95 65 84.8333333333 69.1666666667 76.5 77.5 c 132
 68.1666666667 85.8333333333 64 96 64 108 c 6
 64 406 l 6
 64 418 68.1666666667 428.166666667 76.5 436.5 c 132
 84.8333333333 444.833333333 95 449 107 449 c 6
 405 449 l 6
235 150 m 5
 320 321 l 5
 320 364 l 5
 192 364 l 5
 192 321 l 5
 277 321 l 5
 192 150 l 5
 235 150 l 5
EndSplineSet
Validated: 1
EndChar

StartChar: p
Encoding: 112 112 23
Width: 512
Flags: HW
LayerCount: 5
UndoRedoHistory
Layer: 1
Undoes
UndoOperation
Index: 0
Type: 3
WasModified: 0
WasOrder2: 0
Layer: 2
EndUndoOperation
EndUndoes
Redoes
EndRedoes
EndUndoRedoHistory
Fore
SplineSet
255.833007812 263.58203125 m 5
 257.479492188 263.58203125 l 6
 266.990234375 263.58203125 275.220703125 260.106445312 282.170898438 253.15625 c 132
 289.12109375 246.206054688 292.596679688 237.975585938 292.596679688 228.46484375 c 6
 292.596679688 226.270507812 l 5
 255.833007812 263.58203125 l 5
205.352539062 254.25390625 m 5
 200.962890625 245.474609375 198.768554688 236.877929688 198.768554688 228.46484375 c 4
 198.768554688 212.369140625 204.530273438 198.560546875 216.052734375 187.038085938 c 132
 227.575195312 175.514648438 241.383789062 169.75390625 257.479492188 169.75390625 c 4
 265.892578125 169.75390625 274.489257812 171.94921875 283.268554688 176.338867188 c 5
 265.161132812 194.4453125 l 5
 262.235351562 193.713867188 259.673828125 193.34765625 257.479492188 193.34765625 c 4
 247.96875 193.34765625 239.73828125 196.823242188 232.788085938 203.7734375 c 132
 225.837890625 210.72265625 222.362304688 218.954101562 222.362304688 228.46484375 c 4
 222.362304688 230.66015625 222.727539062 233.220703125 223.459960938 236.146484375 c 5
 205.352539062 254.25390625 l 5
140.606445312 319 m 5
 155.420898438 333.814453125 l 5
 362.830078125 126.407226562 l 5
 348.014648438 111.591796875 l 5
 346.185546875 113.420898438 340.424804688 119.090820312 330.73046875 128.6015625 c 132
 321.037109375 138.112304688 313.629882812 145.428710938 308.5078125 150.548828125 c 5
 292.779296875 143.96484375 275.76953125 140.671875 257.479492188 140.671875 c 4
 228.58203125 140.671875 202.426757812 148.720703125 179.015625 164.815429688 c 132
 155.604492188 180.91015625 138.77734375 202.126953125 128.53515625 228.46484375 c 5
 132.559570312 237.975585938 138.869140625 248.4921875 147.46484375 260.014648438 c 132
 156.061523438 271.537109375 164.383789062 280.408203125 172.430664062 286.626953125 c 5
 168.041015625 291.016601562 161.9140625 297.235351562 154.049804688 305.282226562 c 132
 146.184570312 313.330078125 141.704101562 317.903320312 140.606445312 319 c 5
257.479492188 287.174804688 m 4
 250.163085938 287.174804688 243.030273438 285.711914062 236.080078125 282.786132812 c 5
 210.83984375 308.026367188 l 5
 225.106445312 313.513671875 240.65234375 316.256835938 257.479492188 316.256835938 c 4
 286.377929688 316.256835938 312.440429688 308.209960938 335.668945312 292.11328125 c 132
 358.897460938 276.018554688 375.6328125 254.802734375 385.875 228.46484375 c 5
 377.095703125 206.881835938 363.744140625 188.409179688 345.8203125 173.045898438 c 5
 311.80078125 207.065429688 l 5
 314.727539062 214.015625 316.190429688 221.1484375 316.190429688 228.46484375 c 4
 316.190429688 244.559570312 310.428710938 258.368164062 298.90625 269.891601562 c 132
 287.383789062 281.4140625 273.575195312 287.174804688 257.479492188 287.174804688 c 4
405 107 m 1
 405 341 l 1
 107 341 l 1
 107 107 l 1
 405 107 l 1
341 491 m 1
 384 491 l 1
 384 448 l 1
 405 448 l 2
 416.333333333 448 426.333333333 443.666666667 435 435 c 128
 443.666666667 426.333333333 448 416.333333333 448 405 c 2
 448 107 l 2
 448 95.6666666667 443.666666667 85.6666666667 435 77 c 128
 426.333333333 68.3333333333 416.333333333 64 405 64 c 2
 107 64 l 2
 95 64 84.8333333333 68.3333333333 76.5 77 c 128
 68.1666666667 85.6666666667 64 95.6666666667 64 107 c 2
 64 405 l 2
 64 416.333333333 68.1666666667 426.333333333 76.5 435 c 128
 84.8333333333 443.666666667 95 448 107 448 c 2
 128 448 l 1
 128 491 l 1
 171 491 l 1
 171 448 l 1
 341 448 l 1
 341 491 l 1
EndSplineSet
Validated: 1
EndChar

StartChar: parenright
Encoding: 41 41 24
Width: 512
Flags: HW
LayerCount: 5
UndoRedoHistory
Layer: 1
Undoes
UndoOperation
Index: 0
Type: 3
WasModified: 0
WasOrder2: 0
Layer: 2
EndUndoOperation
EndUndoes
Redoes
EndRedoes
EndUndoRedoHistory
Fore
SplineSet
229.16015625 449.48046875 m 5
 229.16015625 471.440429688 l 5
 383.51953125 471.440429688 l 5
 383.51953125 449.48046875 l 5
 229.16015625 449.48046875 l 5
128.040039062 504.639648438 m 5
 384.51953125 504.639648438 l 5
 384.51953125 482.6796875 l 5
 128.040039062 482.6796875 l 5
 128.040039062 504.639648438 l 5
341 129 m 1
 256 214 l 1
 171 129 l 1
 171 54 l 1
 341 54 l 1
 341 129 l 1
128 438 m 1
 384 438 l 1
 384 310 l 1
 299 225 l 1
 384 140 l 1
 384 12 l 1
 128 12 l 1
 128 140 l 1
 213 225 l 1
 128 310 l 1
 128 438 l 1
EndSplineSet
Validated: 1
EndChar

StartChar: q
Encoding: 113 113 25
Width: 512
Flags: HW
LayerCount: 5
UndoRedoHistory
Layer: 1
Undoes
UndoOperation
Index: 0
Type: 3
WasModified: 0
WasOrder2: 0
Layer: 2
EndUndoOperation
EndUndoes
Redoes
EndRedoes
EndUndoRedoHistory
Fore
SplineSet
288 224 m 4
 288 214.666992188 284.833007812 207 278.5 201 c 132
 272.166992188 195 264.666992188 192 256 192 c 260
 247.333007812 192 239.833007812 195 233.5 201 c 132
 227.166992188 207 224 214.666992188 224 224 c 4
 224 232.666992188 227.166992188 240.166992188 233.5 246.5 c 132
 239.833007812 252.833007812 247.333007812 256 256 256 c 260
 264.666992188 256 272.166992188 252.833007812 278.5 246.5 c 132
 284.833007812 240.166992188 288 232.666992188 288 224 c 4
256 309 m 260
 236.666992188 309 218.5 305.333007812 201.5 298 c 132
 184.5 290.666992188 169.666992188 280.666992188 157 268 c 132
 144.333007812 255.333007812 134.666992188 240.666992188 128 224 c 5
 134.666992188 207.333007812 144.333007812 192.5 157 179.5 c 132
 169.666992188 166.5 184.5 156.333007812 201.5 149 c 132
 218.5 141.666992188 236.666992188 138 256 138 c 260
 275.333007812 138 293.5 141.666992188 310.5 149 c 132
 327.5 156.333007812 342.333007812 166.5 355 179.5 c 132
 367.666992188 192.5 377.333007812 207.333007812 384 224 c 5
 377.333007812 240.666992188 367.666992188 255.333007812 355 268 c 132
 342.333007812 280.666992188 327.5 290.666992188 310.5 298 c 132
 293.5 305.333007812 275.333007812 309 256 309 c 260
256 170 m 260
 241.333007812 170 228.833007812 175.333007812 218.5 186 c 132
 208.166992188 196.666992188 203 209.333007812 203 224 c 260
 203 238.666992188 208.166992188 251.166992188 218.5 261.5 c 132
 228.833007812 271.833007812 241.333007812 277 256 277 c 260
 270.666992188 277 283.166992188 271.833007812 293.5 261.5 c 132
 303.833007812 251.166992188 309 238.666992188 309 224 c 260
 309 209.333007812 303.833007812 196.666992188 293.5 186 c 132
 283.166992188 175.333007812 270.666992188 170 256 170 c 260
405 107 m 1
 405 341 l 1
 107 341 l 1
 107 107 l 1
 405 107 l 1
341 491 m 1
 384 491 l 1
 384 448 l 1
 405 448 l 2
 416.333333333 448 426.333333333 443.666666667 435 435 c 128
 443.666666667 426.333333333 448 416.333333333 448 405 c 2
 448 107 l 2
 448 95.6666666667 443.666666667 85.6666666667 435 77 c 128
 426.333333333 68.3333333333 416.333333333 64 405 64 c 2
 107 64 l 2
 95 64 84.8333333333 68.3333333333 76.5 77 c 128
 68.1666666667 85.6666666667 64 95.6666666667 64 107 c 2
 64 405 l 2
 64 416.333333333 68.1666666667 426.333333333 76.5 435 c 128
 84.8333333333 443.666666667 95 448 107 448 c 2
 128 448 l 1
 128 491 l 1
 171 491 l 1
 171 448 l 1
 341 448 l 1
 341 491 l 1
EndSplineSet
Validated: 9
EndChar

StartChar: colon
Encoding: 58 58 26
Width: 512
Flags: HW
LayerCount: 5
UndoRedoHistory
Layer: 1
Undoes
UndoOperation
Index: 0
Type: 3
WasModified: 0
WasOrder2: 0
Layer: 2
EndUndoOperation
EndUndoes
Redoes
EndRedoes
EndUndoRedoHistory
Fore
SplineSet
189.952148438 325.849609375 m 1025
324.046875 192.754882812 m 1025
342.046875 370.682617188 m 2
 348.591796875 370.682617188 354.3671875 368.1796875 359.372070312 363.174804688 c 128
 364.376953125 358.169921875 366.879882812 352.39453125 366.879882812 345.849609375 c 2
 366.879882812 173.754882812 l 2
 366.879882812 167.209960938 364.376953125 161.434570312 359.372070312 156.4296875 c 128
 354.3671875 151.424804688 348.591796875 148.922851562 342.046875 148.922851562 c 2
 169.952148438 148.922851562 l 2
 163.407226562 148.922851562 157.631835938 151.424804688 152.626953125 156.4296875 c 128
 147.622070312 161.434570312 145.120117188 167.209960938 145.120117188 173.754882812 c 2
 145.120117188 345.849609375 l 2
 145.120117188 352.39453125 147.622070312 358.169921875 152.626953125 363.174804688 c 128
 157.631835938 368.1796875 163.407226562 370.682617188 169.952148438 370.682617188 c 2
 342.046875 370.682617188 l 2
342.046875 345.849609375 m 1
 169.952148438 345.849609375 l 1
 169.952148438 173.754882812 l 1
 342.046875 173.754882812 l 1
 342.046875 345.849609375 l 1
EndSplineSet
Validated: 1
EndChar

StartChar: semicolon
Encoding: 59 59 27
Width: 512
Flags: HW
LayerCount: 5
UndoRedoHistory
Layer: 1
Undoes
UndoOperation
Index: 0
Type: 3
WasModified: 0
WasOrder2: 0
Layer: 2
EndUndoOperation
EndUndoes
Redoes
EndRedoes
EndUndoRedoHistory
Fore
SplineSet
322.046875 325.849609375 m 1
 189.952148438 325.849609375 l 1
 189.952148438 193.754882812 l 5
 322.046875 193.754882812 l 5
 322.046875 325.849609375 l 1
342.046875 370.682617188 m 2
 348.591796875 370.682617188 354.3671875 368.1796875 359.372070312 363.174804688 c 128
 364.376953125 358.169921875 366.879882812 352.39453125 366.879882812 345.849609375 c 2
 366.879882812 173.754882812 l 2
 366.879882812 167.209960938 364.376953125 161.434570312 359.372070312 156.4296875 c 128
 354.3671875 151.424804688 348.591796875 148.922851562 342.046875 148.922851562 c 2
 169.952148438 148.922851562 l 2
 163.407226562 148.922851562 157.631835938 151.424804688 152.626953125 156.4296875 c 128
 147.622070312 161.434570312 145.120117188 167.209960938 145.120117188 173.754882812 c 2
 145.120117188 345.849609375 l 2
 145.120117188 352.39453125 147.622070312 358.169921875 152.626953125 363.174804688 c 128
 157.631835938 368.1796875 163.407226562 370.682617188 169.952148438 370.682617188 c 2
 342.046875 370.682617188 l 2
342.046875 345.849609375 m 1
 169.952148438 345.849609375 l 1
 169.952148438 173.754882812 l 1
 342.046875 173.754882812 l 1
 342.046875 345.849609375 l 1
EndSplineSet
Validated: 1
EndChar

StartChar: i
Encoding: 105 105 28
Width: 512
Flags: HW
LayerCount: 5
UndoRedoHistory
Layer: 1
Undoes
UndoOperation
Index: 0
Type: 3
WasModified: 0
WasOrder2: 0
Layer: 2
EndUndoOperation
EndUndoes
Redoes
EndRedoes
EndUndoRedoHistory
Fore
SplineSet
301.96875 209.032226562 m 5
 344.704101562 252.173828125 l 5
 354.065429688 242.813476562 l 5
 301.96875 190.716796875 l 5
 274.29296875 218.393554688 l 5
 283.247070312 227.346679688 l 5
 301.96875 209.032226562 l 5
314.5859375 161.413085938 m 132
 331.408594984 161.413085938 345.721428749 167.382478829 357.524414062 179.321289062 c 132
 369.327148438 191.25984547 375.228515625 205.640379324 375.228515625 222.462890625 c 132
 375.228515625 239.285548109 369.327082104 253.598307298 357.524414062 265.401367188 c 132
 345.721420505 277.204752604 331.408594984 283.106445312 314.5859375 283.106445312 c 132
 297.763280016 283.106445312 283.450520831 277.20468627 271.647460938 265.401367188 c 132
 259.844726562 253.59837363 253.943359375 239.285548109 253.943359375 222.462890625 c 132
 253.943359375 205.640379324 259.844718319 191.25983732 271.647460938 179.321289062 c 132
 283.450454495 167.382486979 297.763280016 161.413085938 314.5859375 161.413085938 c 132
314.5859375 300.606445312 m 132
 336.292815564 300.606445312 354.743858103 292.941600702 369.938476562 277.611328125 c 132
 385.133138021 262.281012166 392.73046875 243.898199666 392.73046875 222.462890625 c 132
 392.73046875 201.027581584 385.133008701 182.644897259 369.938476562 167.314453125 c 132
 354.743661918 151.983723958 336.292815564 144.318359375 314.5859375 144.318359375 c 132
 292.879059436 144.318359375 274.428342404 151.983852135 259.233398438 167.314453125 c 132
 244.038736979 182.644769084 236.44140625 201.027581584 236.44140625 222.462890625 c 132
 236.44140625 243.898199666 244.038540793 262.281206618 259.233398438 277.611328125 c 132
 274.428213082 292.94140625 292.879059436 300.606445312 314.5859375 300.606445312 c 132
220.004882812 224.125976562 m 1
 182.263671875 176.384765625 l 1
 182.263671875 212.331054688 l 1
 125.013671875 212.331054688 l 1
 125.013671875 235.920898438 l 1
 182.263671875 235.920898438 l 1
 182.263671875 271.8671875 l 1
 220.004882812 224.125976562 l 1
405 107 m 1
 405 341 l 1
 107 341 l 1
 107 107 l 1
 405 107 l 1
341 491 m 1
 384 491 l 1
 384 448 l 1
 405 448 l 2
 416.333333333 448 426.333333333 443.666666667 435 435 c 128
 443.666666667 426.333333333 448 416.333333333 448 405 c 2
 448 107 l 2
 448 95.6666666667 443.666666667 85.6666666667 435 77 c 128
 426.333333333 68.3333333333 416.333333333 64 405 64 c 2
 107 64 l 2
 95 64 84.8333333333 68.3333333333 76.5 77 c 128
 68.1666666667 85.6666666667 64 95.6666666667 64 107 c 2
 64 405 l 2
 64 416.333333333 68.1666666667 426.333333333 76.5 435 c 128
 84.8333333333 443.666666667 95 448 107 448 c 2
 128 448 l 1
 128 491 l 1
 171 491 l 1
 171 448 l 1
 341 448 l 1
 341 491 l 1
EndSplineSet
Validated: 1
EndChar

StartChar: h
Encoding: 104 104 29
Width: 512
Flags: HW
LayerCount: 5
UndoRedoHistory
Layer: 1
Undoes
UndoOperation
Index: 0
Type: 3
WasModified: 0
WasOrder2: 0
Layer: 2
EndUndoOperation
EndUndoes
Redoes
EndRedoes
EndUndoRedoHistory
Fore
SplineSet
328.606445312 266.272460938 m 6
 313.270507812 250.936523438 l 5
 281.8125 282.39453125 l 5
 297.1484375 297.73046875 l 6
 298.72109375 299.303385417 300.686914063 300.08984375 303.045898438 300.08984375 c 132
 305.405273438 300.08984375 307.371419271 299.303385417 308.944335938 297.73046875 c 6
 328.606445312 278.069335938 l 6
 330.178710938 276.496419271 330.96484375 274.530273438 330.96484375 272.170898438 c 132
 330.96484375 269.811523438 330.178710938 267.845377604 328.606445312 266.272460938 c 6
179.966796875 180.549804688 m 5
 272.767578125 273.350585938 l 5
 304.2265625 241.892578125 l 5
 211.424804688 149.090820312 l 5
 179.966796875 149.090820312 l 5
 179.966796875 180.549804688 l 5
405 107 m 1
 405 341 l 1
 107 341 l 1
 107 107 l 1
 405 107 l 1
341 491 m 1
 384 491 l 1
 384 448 l 1
 405 448 l 2
 416.333333333 448 426.333333333 443.666666667 435 435 c 128
 443.666666667 426.333333333 448 416.333333333 448 405 c 2
 448 107 l 2
 448 95.6666666667 443.666666667 85.6666666667 435 77 c 128
 426.333333333 68.3333333333 416.333333333 64 405 64 c 2
 107 64 l 2
 95 64 84.8333333333 68.3333333333 76.5 77 c 128
 68.1666666667 85.6666666667 64 95.6666666667 64 107 c 2
 64 405 l 2
 64 416.333333333 68.1666666667 426.333333333 76.5 435 c 128
 84.8333333333 443.666666667 95 448 107 448 c 2
 128 448 l 1
 128 491 l 1
 171 491 l 1
 171 448 l 1
 341 448 l 1
 341 491 l 1
EndSplineSet
Validated: 1
EndChar

StartChar: j
Encoding: 106 106 30
Width: 512
Flags: HW
LayerCount: 5
UndoRedoHistory
Layer: 1
Undoes
UndoOperation
Index: 0
Type: 3
WasModified: 0
WasOrder2: 0
Layer: 2
EndUndoOperation
EndUndoes
Redoes
EndRedoes
EndUndoRedoHistory
Fore
SplineSet
256.424804688 145.596679688 m 132
 277.746454402 145.596679688 296.098342422 153.167643228 311.48046875 168.309570312 c 132
 326.861979166 183.451593917 334.552734375 201.518112803 334.552734375 222.505859375 c 132
 334.552734375 243.49611893 326.861979166 261.560747372 311.48046875 276.704101562 c 132
 296.098342422 291.845014538 277.746454402 299.416015625 256.424804688 299.416015625 c 132
 235.103583472 299.416015625 216.752064266 291.845014538 201.369140625 276.704101562 c 132
 185.98865006 261.560747372 178.297851562 243.49611893 178.297851562 222.505859375 c 132
 178.297851562 201.518112803 185.98865006 183.451593917 201.369140625 168.309570312 c 132
 216.752064266 153.167643228 235.103583472 145.596679688 256.424804688 145.596679688 c 132
256.424804688 318.306640625 m 132
 283.228283262 318.306640625 306.149268283 308.935872395 325.185546875 290.194335938 c 132
 344.222938457 271.455699671 353.7421875 248.892874151 353.7421875 222.505859375 c 132
 353.7421875 196.11997771 344.222938457 173.557189734 325.185546875 154.81640625 c 132
 306.149268283 136.077185974 283.228283262 126.70703125 256.424804688 126.70703125 c 132
 229.620945441 126.70703125 206.700741342 136.077185974 187.663085938 154.81640625 c 132
 168.626541051 173.557189734 159.109375 196.11997771 159.109375 222.505859375 c 132
 159.109375 248.892874151 168.626541051 271.455699671 187.663085938 290.194335938 c 132
 206.700741342 308.935872395 229.620945441 318.306640625 256.424804688 318.306640625 c 132
297.544921875 262.984375 m 132
 309.119964768 251.591180871 314.905273438 238.097979257 314.905273438 222.505859375 c 132
 314.905273438 206.91520485 309.272351891 193.421239576 298.000976562 182.028320312 c 132
 286.731745143 170.63415213 273.024996116 164.936523438 256.881835938 164.936523438 c 132
 240.739079793 164.936523438 226.879987026 170.63415213 215.305664062 182.028320312 c 5
 256.424804688 222.505859375 l 5
 256.424804688 280.076171875 l 5
 272.264066253 280.076171875 285.971140808 274.378543181 297.544921875 262.984375 c 132
405 107 m 1
 405 341 l 1
 107 341 l 1
 107 107 l 1
 405 107 l 1
341 491 m 1
 384 491 l 1
 384 448 l 1
 405 448 l 2
 416.333333333 448 426.333333333 443.666666667 435 435 c 128
 443.666666667 426.333333333 448 416.333333333 448 405 c 2
 448 107 l 2
 448 95.6666666667 443.666666667 85.6666666667 435 77 c 128
 426.333333333 68.3333333333 416.333333333 64 405 64 c 2
 107 64 l 2
 95 64 84.8333333333 68.3333333333 76.5 77 c 128
 68.1666666667 85.6666666667 64 95.6666666667 64 107 c 2
 64 405 l 2
 64 416.333333333 68.1666666667 426.333333333 76.5 435 c 128
 84.8333333333 443.666666667 95 448 107 448 c 2
 128 448 l 1
 128 491 l 1
 171 491 l 1
 171 448 l 1
 341 448 l 1
 341 491 l 1
EndSplineSet
Validated: 1
EndChar

StartChar: k
Encoding: 107 107 31
Width: 512
Flags: HW
LayerCount: 5
UndoRedoHistory
Layer: 1
Undoes
UndoOperation
Index: 0
Type: 3
WasModified: 0
WasOrder2: 0
Layer: 2
EndUndoOperation
EndUndoes
Redoes
EndRedoes
EndUndoRedoHistory
Fore
SplineSet
277 299 m 5
 320 299 l 5
 320 150 l 5
 277 150 l 5
 277 299 l 5
235 299 m 5
 235 150 l 5
 192 150 l 5
 192 299 l 5
 235 299 l 5
405 107 m 1
 405 341 l 1
 107 341 l 1
 107 107 l 1
 405 107 l 1
341 491 m 1
 384 491 l 1
 384 448 l 1
 405 448 l 2
 416.333333333 448 426.333333333 443.666666667 435 435 c 128
 443.666666667 426.333333333 448 416.333333333 448 405 c 2
 448 107 l 2
 448 95.6666666667 443.666666667 85.6666666667 435 77 c 128
 426.333333333 68.3333333333 416.333333333 64 405 64 c 2
 107 64 l 2
 95 64 84.8333333333 68.3333333333 76.5 77 c 128
 68.1666666667 85.6666666667 64 95.6666666667 64 107 c 2
 64 405 l 2
 64 416.333333333 68.1666666667 426.333333333 76.5 435 c 128
 84.8333333333 443.666666667 95 448 107 448 c 2
 128 448 l 1
 128 491 l 1
 171 491 l 1
 171 448 l 1
 341 448 l 1
 341 491 l 1
EndSplineSet
Validated: 1
EndChar

StartChar: l
Encoding: 108 108 32
Width: 512
Flags: HW
LayerCount: 5
UndoRedoHistory
Layer: 1
Undoes
UndoOperation
Index: 0
Type: 1
WasModified: 0
WasOrder2: 0
Layer: 2
Width: 512
VWidth: 512
LBearingChange: 0
UnicodeEnc: 0
InstructionsLength: 0
SplineSet
233.93359375 260.014648438 m 1
 163.571289062 260.014648438 l 1
 163.571289062 189.369140625 l 1
 233.93359375 189.369140625 l 1
 233.93359375 260.014648438 l 1
252 278 m 1
 252 171 l 1
 145 171 l 1
 145 278 l 1
 252 278 l 1
355.004882812 224.125976562 m 5
 317.263671875 176.384765625 l 5
 317.263671875 212.331054688 l 5
 260.013671875 212.331054688 l 5
 260.013671875 235.920898438 l 5
 317.263671875 235.920898438 l 5
 317.263671875 271.8671875 l 5
 355.004882812 224.125976562 l 5
405 107 m 1
 405 341 l 1
 107 341 l 1
 107 107 l 1
 405 107 l 1
341 491 m 1
 384 491 l 1
 384 448 l 1
 405 448 l 2
 416.333333333 448 426.333333333 443.666666667 435 435 c 128
 443.666666667 426.333333333 448 416.333333333 448 405 c 2
 448 107 l 2
 448 95.6666666667 443.666666667 85.6666666667 435 77 c 128
 426.333333333 68.3333333333 416.333333333 64 405 64 c 2
 107 64 l 2
 95 64 84.8333333333 68.3333333333 76.5 77 c 128
 68.1666666667 85.6666666667 64 95.6666666667 64 107 c 2
 64 405 l 2
 64 416.333333333 68.1666666667 426.333333333 76.5 435 c 128
 84.8333333333 443.666666667 95 448 107 448 c 2
 128 448 l 1
 128 491 l 1
 171 491 l 1
 171 448 l 1
 341 448 l 1
 341 491 l 1
405 107 m 1
 405 341 l 1
 107 341 l 1
 107 107 l 1
 405 107 l 1
341 491 m 1
 384 491 l 1
 384 448 l 1
 405 448 l 2
 416.333333333 448 426.333333333 443.666666667 435 435 c 128
 443.666666667 426.333333333 448 416.333333333 448 405 c 2
 448 107 l 2
 448 95.6666666667 443.666666667 85.6666666667 435 77 c 128
 426.333333333 68.3333333333 416.333333333 64 405 64 c 2
 107 64 l 2
 95 64 84.8333333333 68.3333333333 76.5 77 c 128
 68.1666666667 85.6666666667 64 95.6666666667 64 107 c 2
 64 405 l 2
 64 416.333333333 68.1666666667 426.333333333 76.5 435 c 128
 84.8333333333 443.666666667 95 448 107 448 c 2
 128 448 l 1
 128 491 l 1
 171 491 l 1
 171 448 l 1
 341 448 l 1
 341 491 l 1
EndSplineSet
EndUndoOperation
EndUndoes
Redoes
EndRedoes
EndUndoRedoHistory
Fore
SplineSet
233.93359375 260.014648438 m 1
 163.571289062 260.014648438 l 1
 163.571289062 189.369140625 l 1
 233.93359375 189.369140625 l 1
 233.93359375 260.014648438 l 1
252 278 m 1
 252 171 l 1
 145 171 l 1
 145 278 l 1
 252 278 l 1
365.004882812 224.125976562 m 5
 327.263671875 176.384765625 l 5
 327.263671875 212.331054688 l 5
 270.013671875 212.331054688 l 5
 270.013671875 235.920898438 l 5
 327.263671875 235.920898438 l 5
 327.263671875 271.8671875 l 5
 365.004882812 224.125976562 l 5
405 107 m 1
 405 341 l 1
 107 341 l 1
 107 107 l 1
 405 107 l 1
341 491 m 1
 384 491 l 1
 384 448 l 1
 405 448 l 2
 416.333333333 448 426.333333333 443.666666667 435 435 c 128
 443.666666667 426.333333333 448 416.333333333 448 405 c 2
 448 107 l 2
 448 95.6666666667 443.666666667 85.6666666667 435 77 c 128
 426.333333333 68.3333333333 416.333333333 64 405 64 c 2
 107 64 l 2
 95 64 84.8333333333 68.3333333333 76.5 77 c 128
 68.1666666667 85.6666666667 64 95.6666666667 64 107 c 2
 64 405 l 2
 64 416.333333333 68.1666666667 426.333333333 76.5 435 c 128
 84.8333333333 443.666666667 95 448 107 448 c 2
 128 448 l 1
 128 491 l 1
 171 491 l 1
 171 448 l 1
 341 448 l 1
 341 491 l 1
405 107 m 1
 405 341 l 1
 107 341 l 1
 107 107 l 1
 405 107 l 1
341 491 m 1
 384 491 l 1
 384 448 l 1
 405 448 l 2
 416.333333333 448 426.333333333 443.666666667 435 435 c 128
 443.666666667 426.333333333 448 416.333333333 448 405 c 2
 448 107 l 2
 448 95.6666666667 443.666666667 85.6666666667 435 77 c 128
 426.333333333 68.3333333333 416.333333333 64 405 64 c 2
 107 64 l 2
 95 64 84.8333333333 68.3333333333 76.5 77 c 128
 68.1666666667 85.6666666667 64 95.6666666667 64 107 c 2
 64 405 l 2
 64 416.333333333 68.1666666667 426.333333333 76.5 435 c 128
 84.8333333333 443.666666667 95 448 107 448 c 2
 128 448 l 1
 128 491 l 1
 171 491 l 1
 171 448 l 1
 341 448 l 1
 341 491 l 1
EndSplineSet
Validated: 5
EndChar

StartChar: b
Encoding: 98 98 33
Width: 512
Flags: HW
LayerCount: 5
UndoRedoHistory
Layer: 1
Undoes
UndoOperation
Index: 0
Type: 1
WasModified: 1
WasOrder2: 0
Layer: 2
Width: 512
VWidth: 512
LBearingChange: 0
UnicodeEnc: 0
InstructionsLength: 0
SplineSet
277 448 m 4
 304.333333333 448 329.5 441.333333333 352.5 428 c 132
 375.5 414.666666667 393.666666667 396.666666667 407 374 c 132
 420.333333333 351.333333333 427 326.333333333 427 299 c 4
 427 269 419.166666667 242 403.5 218 c 132
 387.833333333 194 367 176 341 164 c 5
 341 64 l 5
 192 64 l 5
 192 128 l 5
 171 128 l 6
 159 128 148.833333333 132.166666667 140.5 140.5 c 132
 132.166666667 148.833333333 128 159 128 171 c 6
 128 235 l 5
 96 235 l 6
 91.3333333333 235 88 237 86 241 c 132
 84 245 84.3333333333 248.666666667 87 252 c 6
 128 305 l 5
 129.333333333 331.666666667 136.833333333 355.833333333 150.5 377.5 c 132
 164.166666667 399.166666667 182 416.333333333 204 429 c 132
 226 441.666666667 250.333333333 448 277 448 c 4
277 491 m 4
 245 491 215.166666667 483.666666667 187.5 469 c 132
 159.833333333 454.333333333 137.166666667 434.166666667 119.5 408.5 c 132
 101.833333333 382.833333333 91 354 87 322 c 5
 53 277 l 6
 47 269 43.6666666667 260 43 250 c 132
 42.3333333333 240 44.3333333333 230.666666667 49 222 c 4
 58.3333333333 205.333333333 70.3333333333 196 85 194 c 5
 85 171 l 6
 85 151 91 133.5 103 118.5 c 132
 115 103.5 130.333333333 93 149 87 c 5
 149 21 l 5
 384 21 l 5
 384 139 l 5
 410.666666667 157 431.5 180 446.5 208 c 132
 461.5 236 469 266.333333333 469 299 c 4
 469 333.666666667 460.5 365.666666667 443.5 395 c 132
 426.5 424.333333333 403.333333333 447.666666667 374 465 c 132
 344.666666667 482.333333333 312.333333333 491 277 491 c 4
299 213 m 5
 256 213 l 5
 256 235 l 5
 299 235 l 5
 299 213 l 5
333 309 m 4
 324.333333333 297.666666667 316.333333333 290 309 286 c 5
 309 256 l 5
 245 256 l 5
 245 286 l 5
 230.333333333 294.666666667 220.666666667 307.666666667 216 325 c 132
 211.333333333 342.333333333 213.333333333 358.5 222 373.5 c 132
 230.666666667 388.5 243.666666667 398.333333333 261 403 c 132
 278.333333333 407.666666667 294.5 405.666666667 309.5 397 c 132
 324.5 388.333333333 334.333333333 375.333333333 339 358 c 132
 343.666666667 340.666666667 341.666666667 324.333333333 333 309 c 4
EndSplineSet
EndUndoOperation
EndUndoes
Redoes
EndRedoes
EndUndoRedoHistory
Fore
SplineSet
277 449 m 4
 304.333333333 449 329.5 442.333333333 352.5 429 c 132
 375.5 415.666666667 393.666666667 397.666666667 407 375 c 132
 420.333333333 352.333333333 427 327.333333333 427 300 c 4
 427 270 419.166666667 243 403.5 219 c 132
 387.833333333 195 367 177 341 165 c 5
 341 65 l 5
 192 65 l 5
 192 129 l 5
 171 129 l 6
 159 129 148.833333333 133.166666667 140.5 141.5 c 132
 132.166666667 149.833333333 128 160 128 172 c 6
 128 236 l 5
 96 236 l 6
 91.3333333333 236 88 238 86 242 c 132
 84 246 84.3333333333 249.666666667 87 253 c 6
 128 306 l 5
 129.333333333 332.666666667 136.833333333 356.833333333 150.5 378.5 c 132
 164.166666667 400.166666667 182 417.333333333 204 430 c 132
 226 442.666666667 250.333333333 449 277 449 c 4
277 492 m 4
 245 492 215.166666667 484.666666667 187.5 470 c 132
 159.833333333 455.333333333 137.166666667 435.166666667 119.5 409.5 c 132
 101.833333333 383.833333333 91 355 87 323 c 5
 53 278 l 6
 47 270 43.6666666667 261 43 251 c 132
 42.3333333333 241 44.3333333333 231.666666667 49 223 c 4
 58.3333333333 206.333333333 70.3333333333 197 85 195 c 5
 85 172 l 6
 85 152 91 134.5 103 119.5 c 132
 115 104.5 130.333333333 94 149 88 c 5
 149 22 l 5
 384 22 l 5
 384 140 l 5
 410.666666667 158 431.5 181 446.5 209 c 132
 461.5 237 469 267.333333333 469 300 c 4
 469 334.666666667 460.5 366.666666667 443.5 396 c 132
 426.5 425.333333333 403.333333333 448.666666667 374 466 c 132
 344.666666667 483.333333333 312.333333333 492 277 492 c 4
299 214 m 5
 256 214 l 5
 256 236 l 5
 299 236 l 5
 299 214 l 5
333 310 m 4
 324.333333333 298.666666667 316.333333333 291 309 287 c 5
 309 257 l 5
 245 257 l 5
 245 287 l 5
 230.333333333 295.666666667 220.666666667 308.666666667 216 326 c 132
 211.333333333 343.333333333 213.333333333 359.5 222 374.5 c 132
 230.666666667 389.5 243.666666667 399.333333333 261 404 c 132
 278.333333333 408.666666667 294.5 406.666666667 309.5 398 c 132
 324.5 389.333333333 334.333333333 376.333333333 339 359 c 132
 343.666666667 341.666666667 341.666666667 325.333333333 333 310 c 4
EndSplineSet
Validated: 41
EndChar

StartChar: c
Encoding: 99 99 34
Width: 512
Flags: HW
LayerCount: 5
UndoRedoHistory
Layer: 1
Undoes
UndoOperation
Index: 0
Type: 1
WasModified: 1
WasOrder2: 0
Layer: 2
Width: 512
VWidth: 512
LBearingChange: 0
UnicodeEnc: 0
InstructionsLength: 0
SplineSet
277 448 m 4
 304.333333333 448 329.5 441.333333333 352.5 428 c 132
 375.5 414.666666667 393.666666667 396.5 407 373.5 c 132
 420.333333333 350.5 427 325.666666667 427 299 c 4
 427 269.666666667 419.166666667 242.833333333 403.5 218.5 c 132
 387.833333333 194.166666667 367 176 341 164 c 5
 341 64 l 5
 192 64 l 5
 192 128 l 5
 171 128 l 6
 159 128 148.833333333 132.166666667 140.5 140.5 c 132
 132.166666667 148.833333333 128 159 128 171 c 6
 128 235 l 5
 96 235 l 6
 91.3333333333 235 88 237 86 241 c 132
 84 245 84.3333333333 248.666666667 87 252 c 6
 128 306 l 5
 129.333333333 332 136.833333333 355.833333333 150.5 377.5 c 132
 164.166666667 399.166666667 182.166666667 416.333333333 204.5 429 c 132
 226.833333333 441.666666667 251 448 277 448 c 4
277 491 m 4
 245 491 215.166666667 483.5 187.5 468.5 c 132
 159.833333333 453.5 137 433.166666667 119 407.5 c 132
 101 381.833333333 90.3333333333 353.333333333 87 322 c 5
 53 277 l 6
 47 269.666666667 43.5 261 42.5 251 c 132
 41.5 241 43.3333333333 231.333333333 48 222 c 4
 56 206 68.3333333333 196.333333333 85 193 c 5
 85 171 l 6
 85 151 91.1666666667 133.333333333 103.5 118 c 132
 115.833333333 102.666666667 131 92.6666666667 149 88 c 5
 149 21 l 5
 384 21 l 5
 384 139 l 5
 410.666666667 157 431.5 180 446.5 208 c 132
 461.5 236 469 266.333333333 469 299 c 4
 469 333.666666667 460.5 365.666666667 443.5 395 c 132
 426.5 424.333333333 403.166666667 447.666666667 373.5 465 c 132
 343.833333333 482.333333333 311.666666667 491 277 491 c 4
343 311 m 5
 343 320 l 6
 343 323.333333333 342.666666667 326 342 328 c 6
 361 342 l 6
 362.333333333 342.666666667 363 344.666666667 363 348 c 6
 345 377 l 6
 344.333333333 378.333333333 343.5 379.166666667 342.5 379.5 c 132
 341.5 379.833333333 340.333333333 379.666666667 339 379 c 6
 318 370 l 5
 314.666666667 374 310 377 304 379 c 5
 301 401 l 6
 300.333333333 403.666666667 298.666666667 405 296 405 c 6
 262 405 l 6
 259.333333333 405 258 403.666666667 258 401 c 6
 255 379 l 5
 249.666666667 377 245 374 241 370 c 5
 219 379 l 6
 217 380.333333333 215.333333333 379.666666667 214 377 c 6
 197 348 l 6
 195.666666667 344.666666667 196 342.666666667 198 342 c 6
 216 328 l 5
 215 320 l 5
 216 311 l 5
 198 297 l 6
 196 296.333333333 195.666666667 294.666666667 197 292 c 6
 214 262 l 6
 214.666666667 260.666666667 216.333333333 260 219 260 c 6
 240 269 l 5
 244.666666667 265.666666667 249.666666667 263 255 261 c 5
 258 238 l 6
 258 236 259.333333333 235 262 235 c 6
 296 235 l 6
 298.666666667 235 300.333333333 236 301 238 c 6
 304 261 l 5
 310.666666667 263.666666667 315.333333333 266.333333333 318 269 c 5
 339 260 l 6
 342.333333333 260 344.333333333 260.666666667 345 262 c 6
 363 292 l 6
 363 294.666666667 362.333333333 296.333333333 361 297 c 6
 343 311 l 5
279 289 m 4
 271 289 264 292 258 298 c 132
 252 304 249 311.333333333 249 320 c 132
 249 328.666666667 252 335.833333333 258 341.5 c 132
 264 347.166666667 271.166666667 350 279.5 350 c 132
 287.833333333 350 295 347.166666667 301 341.5 c 132
 307 335.833333333 310 328.666666667 310 320 c 132
 310 311.333333333 307 304 301 298 c 132
 295 292 287.666666667 289 279 289 c 4
EndSplineSet
EndUndoOperation
EndUndoes
Redoes
EndRedoes
EndUndoRedoHistory
Fore
SplineSet
277 449 m 4
 304.333333333 449 329.5 442.333333333 352.5 429 c 132
 375.5 415.666666667 393.666666667 397.5 407 374.5 c 132
 420.333333333 351.5 427 326.666666667 427 300 c 4
 427 270.666666667 419.166666667 243.833333333 403.5 219.5 c 132
 387.833333333 195.166666667 367 177 341 165 c 5
 341 65 l 5
 192 65 l 5
 192 129 l 5
 171 129 l 6
 159 129 148.833333333 133.166666667 140.5 141.5 c 132
 132.166666667 149.833333333 128 160 128 172 c 6
 128 236 l 5
 96 236 l 6
 91.3333333333 236 88 238 86 242 c 132
 84 246 84.3333333333 249.666666667 87 253 c 6
 128 307 l 5
 129.333333333 333 136.833333333 356.833333333 150.5 378.5 c 132
 164.166666667 400.166666667 182.166666667 417.333333333 204.5 430 c 132
 226.833333333 442.666666667 251 449 277 449 c 4
277 492 m 4
 245 492 215.166666667 484.5 187.5 469.5 c 132
 159.833333333 454.5 137 434.166666667 119 408.5 c 132
 101 382.833333333 90.3333333333 354.333333333 87 323 c 5
 53 278 l 6
 47 270.666666667 43.5 262 42.5 252 c 132
 41.5 242 43.3333333333 232.333333333 48 223 c 4
 56 207 68.3333333333 197.333333333 85 194 c 5
 85 172 l 6
 85 152 91.1666666667 134.333333333 103.5 119 c 132
 115.833333333 103.666666667 131 93.6666666667 149 89 c 5
 149 22 l 5
 384 22 l 5
 384 140 l 5
 410.666666667 158 431.5 181 446.5 209 c 132
 461.5 237 469 267.333333333 469 300 c 4
 469 334.666666667 460.5 366.666666667 443.5 396 c 132
 426.5 425.333333333 403.166666667 448.666666667 373.5 466 c 132
 343.833333333 483.333333333 311.666666667 492 277 492 c 4
343 312 m 5
 343 321 l 6
 343 324.333333333 342.666666667 327 342 329 c 6
 361 343 l 6
 362.333333333 343.666666667 363 345.666666667 363 349 c 6
 345 378 l 6
 344.333333333 379.333333333 343.5 380.166666667 342.5 380.5 c 132
 341.5 380.833333333 340.333333333 380.666666667 339 380 c 6
 318 371 l 5
 314.666666667 375 310 378 304 380 c 5
 301 402 l 6
 300.333333333 404.666666667 298.666666667 406 296 406 c 6
 262 406 l 6
 259.333333333 406 258 404.666666667 258 402 c 6
 255 380 l 5
 249.666666667 378 245 375 241 371 c 5
 219 380 l 6
 217 381.333333333 215.333333333 380.666666667 214 378 c 6
 197 349 l 6
 195.666666667 345.666666667 196 343.666666667 198 343 c 6
 216 329 l 5
 215 321 l 5
 216 312 l 5
 198 298 l 6
 196 297.333333333 195.666666667 295.666666667 197 293 c 6
 214 263 l 6
 214.666666667 261.666666667 216.333333333 261 219 261 c 6
 240 270 l 5
 244.666666667 266.666666667 249.666666667 264 255 262 c 5
 258 239 l 6
 258 237 259.333333333 236 262 236 c 6
 296 236 l 6
 298.666666667 236 300.333333333 237 301 239 c 6
 304 262 l 5
 310.666666667 264.666666667 315.333333333 267.333333333 318 270 c 5
 339 261 l 6
 342.333333333 261 344.333333333 261.666666667 345 263 c 6
 363 293 l 6
 363 295.666666667 362.333333333 297.333333333 361 298 c 6
 343 312 l 5
279 290 m 4
 271 290 264 293 258 299 c 132
 252 305 249 312.333333333 249 321 c 132
 249 329.666666667 252 336.833333333 258 342.5 c 132
 264 348.166666667 271.166666667 351 279.5 351 c 132
 287.833333333 351 295 348.166666667 301 342.5 c 132
 307 336.833333333 310 329.666666667 310 321 c 132
 310 312.333333333 307 305 301 299 c 132
 295 293 287.666666667 290 279 290 c 4
EndSplineSet
Validated: 41
EndChar

StartChar: zero
Encoding: 48 48 35
Width: 512
Flags: HW
LayerCount: 5
UndoRedoHistory
Layer: 1
Undoes
UndoOperation
Index: 0
Type: 3
WasModified: 0
WasOrder2: 0
Layer: 2
EndUndoOperation
EndUndoes
Redoes
EndRedoes
EndUndoRedoHistory
Fore
SplineSet
405 449 m 6
 417 449 427.166666667 444.833333333 435.5 436.5 c 132
 443.833333333 428.166666667 448 418 448 406 c 6
 448 108 l 6
 448 96 443.833333333 85.8333333333 435.5 77.5 c 132
 427.166666667 69.1666666667 417 65 405 65 c 6
 107 65 l 6
 95 65 84.8333333333 69.1666666667 76.5 77.5 c 132
 68.1666666667 85.8333333333 64 96 64 108 c 6
 64 406 l 6
 64 418 68.1666666667 428.166666667 76.5 436.5 c 132
 84.8333333333 444.833333333 95 449 107 449 c 6
 405 449 l 6
235 364 m 6
 223 364 212.833333333 359.833333333 204.5 351.5 c 132
 196.166666667 343.166666667 192 333 192 321 c 6
 192 193 l 6
 192 181 196.166666667 170.833333333 204.5 162.5 c 132
 212.833333333 154.166666667 223 150 235 150 c 6
 277 150 l 6
 289 150 299.166666667 154.166666667 307.5 162.5 c 132
 315.833333333 170.833333333 320 181 320 193 c 6
 320 321 l 6
 320 333 315.833333333 343.166666667 307.5 351.5 c 132
 299.166666667 359.833333333 289 364 277 364 c 6
 235 364 l 6
235 321 m 5
 277 321 l 5
 277 193 l 5
 235 193 l 5
 235 321 l 5
EndSplineSet
Validated: 1
EndChar

StartChar: at
Encoding: 64 64 36
Width: 512
Flags: HW
LayerCount: 5
UndoRedoHistory
Layer: 1
Undoes
UndoOperation
Index: 0
Type: 3
WasModified: 0
WasOrder2: 0
Layer: 2
EndUndoOperation
EndUndoes
Redoes
EndRedoes
EndUndoRedoHistory
Fore
SplineSet
313.342773438 181.19921875 m 5
 313.342773438 326.990234375 l 5
 274.3203125 326.990234375 l 5
 274.3203125 181.19921875 l 5
 313.342773438 181.19921875 l 5
236.205078125 181.19921875 m 5
 236.205078125 326.990234375 l 5
 197.182617188 326.990234375 l 5
 197.182617188 181.19921875 l 5
 236.205078125 181.19921875 l 5
384 171 m 1
 427 128 l 1
 427 107 l 1
 85 107 l 1
 85 128 l 1
 128 171 l 1
 128 277 l 2
 128 310.333333333 136.5 339.333333333 153.5 364 c 128
 170.5 388.666666667 194 404.666666667 224 412 c 1
 224 427 l 2
 224 435.666666667 227 443.166666667 233 449.5 c 128
 239 455.833333333 246.666666667 459 256 459 c 128
 265.333333333 459 273 455.833333333 279 449.5 c 128
 285 443.166666667 288 435.666666667 288 427 c 2
 288 412 l 1
 318 404.666666667 341.5 388.666666667 358.5 364 c 128
 375.5 339.333333333 384 310.333333333 384 277 c 2
 384 171 l 1
256 43 m 0
 244 43 233.833333333 47.1666666667 225.5 55.5 c 128
 217.166666667 63.8333333333 213 73.6666666667 213 85 c 1
 299 85 l 1
 299 73.6666666667 294.666666667 63.8333333333 286 55.5 c 128
 277.333333333 47.1666666667 267.333333333 43 256 43 c 0
EndSplineSet
Validated: 1
EndChar

StartChar: A
Encoding: 65 65 37
Width: 512
Flags: HW
LayerCount: 5
UndoRedoHistory
Layer: 1
Undoes
UndoOperation
Index: 0
Type: 3
WasModified: 0
WasOrder2: 0
Layer: 2
EndUndoOperation
EndUndoes
Redoes
EndRedoes
EndUndoRedoHistory
Fore
SplineSet
272.828125 176.918945312 m 5
 272.828125 316.896484375 l 5
 307.9375 316.896484375 l 5
 307.9375 176.918945312 l 5
 272.828125 176.918945312 l 5
203.42578125 176.918945312 m 5
 203.42578125 316.896484375 l 5
 238.53515625 316.896484375 l 5
 238.53515625 176.918945312 l 5
 203.42578125 176.918945312 l 5
341 149 m 1
 341 277 l 2
 341 304.333333333 333.333333333 327.166666667 318 345.5 c 128
 302.666666667 363.833333333 282 373 256 373 c 128
 230 373 209.333333333 363.833333333 194 345.5 c 128
 178.666666667 327.166666667 171 304.333333333 171 277 c 2
 171 149 l 1
 341 149 l 1
384 171 m 1
 427 128 l 1
 427 107 l 1
 85 107 l 1
 85 128 l 1
 128 171 l 1
 128 277 l 2
 128 310.333333333 136.5 339.333333333 153.5 364 c 128
 170.5 388.666666667 194 404.666666667 224 412 c 1
 224 427 l 2
 224 435.666666667 227 443.166666667 233 449.5 c 128
 239 455.833333333 246.666666667 459 256 459 c 128
 265.333333333 459 273 455.833333333 279 449.5 c 128
 285 443.166666667 288 435.666666667 288 427 c 2
 288 412 l 1
 318 404.666666667 341.5 388.666666667 358.5 364 c 128
 375.5 339.333333333 384 310.333333333 384 277 c 2
 384 171 l 1
256 43 m 128
 244.666666667 43 234.666666667 47.1666666667 226 55.5 c 128
 217.333333333 63.8333333333 213 73.6666666667 213 85 c 1
 299 85 l 1
 299 73.6666666667 294.666666667 63.8333333333 286 55.5 c 128
 277.333333333 47.1666666667 267.333333333 43 256 43 c 128
EndSplineSet
Validated: 1
EndChar

StartChar: B
Encoding: 66 66 38
Width: 512
Flags: HW
LayerCount: 5
UndoRedoHistory
Layer: 1
Undoes
UndoOperation
Index: 0
Type: 1
WasModified: 1
WasOrder2: 0
Layer: 2
Width: 512
VWidth: 512
LBearingChange: 0
UnicodeEnc: 0
InstructionsLength: 0
SplineSet
235 194 m 5
 235 236 l 5
 448 236 l 5
 448 194 l 5
 235 194 l 5
235 279 m 5
 235 322 l 5
 448 322 l 5
 448 279 l 5
 235 279 l 5
64 407 m 5
 448 407 l 5
 448 364 l 5
 64 364 l 5
 64 407 l 5
235 108 m 5
 235 151 l 5
 448 151 l 5
 448 108 l 5
 235 108 l 5
EndSplineSet
EndUndoOperation
EndUndoes
Redoes
EndRedoes
EndUndoRedoHistory
Fore
SplineSet
235 193 m 5
 235 235 l 5
 448 235 l 5
 448 193 l 5
 235 193 l 5
235 278 m 5
 235 321 l 5
 448 321 l 5
 448 278 l 5
 235 278 l 5
64 406 m 5
 448 406 l 5
 448 363 l 5
 64 363 l 5
 64 406 l 5
235 107 m 5
 235 150 l 5
 448 150 l 5
 448 107 l 5
 235 107 l 5
EndSplineSet
Validated: 1
EndChar

StartChar: C
Encoding: 67 67 39
Width: 512
Flags: HW
LayerCount: 5
UndoRedoHistory
Layer: 1
Undoes
UndoOperation
Index: 0
Type: 1
WasModified: 1
WasOrder2: 0
Layer: 2
Width: 512
VWidth: 512
LBearingChange: 0
UnicodeEnc: 0
InstructionsLength: 0
SplineSet
235 192 m 5
 235 234 l 5
 448 234 l 5
 448 192 l 5
 235 192 l 5
235 277 m 5
 235 320 l 5
 448 320 l 5
 448 277 l 5
 235 277 l 5
64 405 m 5
 448 405 l 5
 448 362 l 5
 64 362 l 5
 64 405 l 5
235 106 m 5
 235 149 l 5
 448 149 l 5
 448 106 l 5
 235 106 l 5
64 298 m 5
 149 213 l 5
 64 128 l 5
 64 298 l 5
EndSplineSet
EndUndoOperation
EndUndoes
Redoes
EndRedoes
EndUndoRedoHistory
Fore
SplineSet
235 193 m 5
 235 235 l 5
 448 235 l 5
 448 193 l 5
 235 193 l 5
235 278 m 5
 235 321 l 5
 448 321 l 5
 448 278 l 5
 235 278 l 5
64 406 m 5
 448 406 l 5
 448 363 l 5
 64 363 l 5
 64 406 l 5
235 107 m 5
 235 150 l 5
 448 150 l 5
 448 107 l 5
 235 107 l 5
64 299 m 5
 149 214 l 5
 64 129 l 5
 64 299 l 5
EndSplineSet
Validated: 1
EndChar

StartChar: D
Encoding: 68 68 40
Width: 512
Flags: HW
LayerCount: 5
UndoRedoHistory
Layer: 1
Undoes
UndoOperation
Index: 0
Type: 3
WasModified: 0
WasOrder2: 0
Layer: 2
EndUndoOperation
EndUndoes
Redoes
EndRedoes
EndUndoRedoHistory
Fore
SplineSet
323 326 m 5
 196 199 l 5
 128 267 l 5
 151 290 l 5
 196 245 l 5
 300 349 l 5
 323 326 l 5
323 326 m 5
 196 199 l 5
 128 267 l 5
 151 290 l 5
 196 245 l 5
 300 349 l 5
 323 326 l 5
436 109 m 1
 402 109 l 1
 402 75 l 1
 436 75 l 1
 436 109 l 1
370 109 m 1
 76 109 l 1
 76 75 l 1
 370 75 l 1
 370 109 l 1
402 141 m 1
 436 141 l 1
 436 433 l 1
 402 433 l 1
 402 141 l 1
76 141 m 1
 370 141 l 1
 370 433 l 1
 76 433 l 1
 76 141 l 1
44 465 m 1
 468 465 l 1
 468 43 l 1
 44 43 l 1
 44 465 l 1
EndSplineSet
Validated: 5
EndChar

StartChar: E
Encoding: 69 69 41
Width: 512
Flags: HW
LayerCount: 5
UndoRedoHistory
Layer: 1
Undoes
UndoOperation
Index: 0
Type: 3
WasModified: 0
WasOrder2: 0
Layer: 2
EndUndoOperation
EndUndoes
Redoes
EndRedoes
EndUndoRedoHistory
Fore
SplineSet
349.450195312 211.8203125 m 5
 349.450195312 309.950195312 l 5
 228.83984375 309.950195312 l 5
 228.83984375 211.8203125 l 5
 349.450195312 211.8203125 l 5
326.969726562 376.700195312 m 5
 346.10546875 376.700195312 l 5
 346.10546875 357.565429688 l 5
 355.450195312 357.565429688 l 6
 360.493381076 357.565429688 364.943250868 355.637044271 368.799804688 351.780273438 c 132
 372.656575521 347.9234375 374.584960938 343.473242187 374.584960938 338.4296875 c 6
 374.584960938 205.8203125 l 6
 374.584960938 200.776757813 372.656575521 196.3265625 368.799804688 192.469726562 c 132
 364.943250868 188.612955729 360.493381076 186.684570312 355.450195312 186.684570312 c 6
 222.83984375 186.684570312 l 6
 217.499935963 186.684570312 212.975847421 188.612955729 209.267578125 192.469726562 c 132
 205.559244792 196.3265625 203.705078125 200.776757813 203.705078125 205.8203125 c 6
 203.705078125 338.4296875 l 6
 203.705078125 343.473242187 205.559244792 347.9234375 209.267578125 351.780273438 c 132
 212.975847421 355.637044271 217.499935963 357.565429688 222.83984375 357.565429688 c 6
 232.184570312 357.565429688 l 5
 232.184570312 376.700195312 l 5
 251.3203125 376.700195312 l 5
 251.3203125 357.565429688 l 5
 326.969726562 357.565429688 l 5
 326.969726562 376.700195312 l 5
111 74 m 1
 111 108 l 1
 77 108 l 1
 77 74 l 1
 111 74 l 1
111 140 m 1
 111 434 l 1
 77 434 l 1
 77 140 l 1
 111 140 l 1
143 108 m 1
 143 74 l 1
 435 74 l 1
 435 108 l 1
 143 108 l 1
143 434 m 1
 143 140 l 1
 435 140 l 1
 435 434 l 1
 143 434 l 1
467 466 m 1
 467 42 l 1
 45 42 l 1
 45 466 l 1
 467 466 l 1
EndSplineSet
Validated: 1
EndChar

StartChar: F
Encoding: 70 70 42
Width: 512
Flags: HW
LayerCount: 5
UndoRedoHistory
Layer: 1
Undoes
UndoOperation
Index: 0
Type: 3
WasModified: 0
WasOrder2: 0
Layer: 2
EndUndoOperation
EndUndoes
Redoes
EndRedoes
EndUndoRedoHistory
Fore
SplineSet
242.206054688 179.299804688 m 5
 210.872494199 183.819016559 186.694434304 195.794928017 169.671875 215.227539062 c 132
 152.649591023 234.660335234 141.426934773 258.085139922 136.00390625 285.501953125 c 5
 159.202673426 252.662109375 194.603389572 236.2421875 242.206054688 236.2421875 c 5
 242.206054688 275.559570312 l 5
 309.541992188 208.22265625 l 5
 242.206054688 140.885742188 l 5
 242.206054688 179.299804688 l 5
401 434 m 1
 401 400 l 1
 435 400 l 1
 435 434 l 1
 401 434 l 1
401 368 m 1
 401 74 l 1
 435 74 l 1
 435 368 l 1
 401 368 l 1
369 400 m 1
 369 434 l 1
 77 434 l 1
 77 400 l 1
 369 400 l 1
369 74 m 1
 369 368 l 1
 77 368 l 1
 77 74 l 1
 369 74 l 1
45 42 m 1
 45 466 l 1
 467 466 l 1
 467 42 l 1
 45 42 l 1
EndSplineSet
Validated: 1
EndChar

StartChar: G
Encoding: 71 71 43
Width: 512
Flags: HW
LayerCount: 5
UndoRedoHistory
Layer: 1
Undoes
UndoOperation
Index: 0
Type: 3
WasModified: 0
WasOrder2: 0
Layer: 2
EndUndoOperation
EndUndoes
Redoes
EndRedoes
EndUndoRedoHistory
Fore
SplineSet
239 141 m 5
 216 164 l 5
 268 216 l 5
 216 268 l 5
 239 291 l 5
 291 239 l 5
 343 291 l 5
 365 268 l 5
 313 216 l 5
 365 164 l 5
 343 141 l 5
 291 193 l 5
 239 141 l 5
76 398 m 1
 110 398 l 1
 110 432 l 1
 76 432 l 1
 76 398 l 1
142 398 m 1
 436 398 l 1
 436 432 l 1
 142 432 l 1
 142 398 l 1
110 366 m 1
 76 366 l 1
 76 74 l 1
 110 74 l 1
 110 366 l 1
436 366 m 1
 142 366 l 1
 142 74 l 1
 436 74 l 1
 436 366 l 1
468 42 m 1
 44 42 l 1
 44 464 l 1
 468 464 l 1
 468 42 l 1
EndSplineSet
Validated: 1
EndChar

StartChar: f
Encoding: 102 102 44
Width: 512
Flags: HW
LayerCount: 5
UndoRedoHistory
Layer: 1
Undoes
UndoOperation
Index: 0
Type: 3
WasModified: 0
WasOrder2: 0
Layer: 2
EndUndoOperation
EndUndoes
Redoes
EndRedoes
EndUndoRedoHistory
Fore
SplineSet
405 107 m 1
 405 341 l 1
 107 341 l 1
 107 107 l 1
 405 107 l 1
405 448 m 2
 416.333333333 448 426.333333333 443.666666667 435 435 c 128
 443.666666667 426.333333333 448 416.333333333 448 405 c 2
 448 107 l 2
 448 95.6666666667 443.666666667 85.6666666667 435 77 c 128
 426.333333333 68.3333333333 416.333333333 64 405 64 c 2
 107 64 l 2
 95 64 84.8333333333 68.3333333333 76.5 77 c 128
 68.1666666667 85.6666666667 64 95.6666666667 64 107 c 2
 64 405 l 2
 64 416.333333333 68.1666666667 426.333333333 76.5 435 c 128
 84.8333333333 443.666666667 95 448 107 448 c 2
 128 448 l 1
 128 491 l 1
 171 491 l 1
 171 448 l 1
 341 448 l 1
 341 491 l 1
 384 491 l 1
 384 448 l 1
 405 448 l 2
353 276 m 1
 226 149 l 1
 158 217 l 1
 181 240 l 1
 226 195 l 1
 330 299 l 1
 353 276 l 1
EndSplineSet
Validated: 1
EndChar

StartChar: g
Encoding: 103 103 45
Width: 512
Flags: HW
LayerCount: 5
UndoRedoHistory
Layer: 1
Undoes
UndoOperation
Index: 0
Type: 3
WasModified: 0
WasOrder2: 0
Layer: 2
EndUndoOperation
EndUndoes
Redoes
EndRedoes
EndUndoRedoHistory
Fore
SplineSet
405 107 m 1
 405 341 l 1
 107 341 l 1
 107 107 l 1
 405 107 l 1
341 491 m 1
 384 491 l 1
 384 448 l 1
 405 448 l 2
 416.333333333 448 426.333333333 443.666666667 435 435 c 128
 443.666666667 426.333333333 448 416.333333333 448 405 c 2
 448 107 l 2
 448 95.6666666667 443.666666667 85.6666666667 435 77 c 128
 426.333333333 68.3333333333 416.333333333 64 405 64 c 2
 107 64 l 2
 95 64 84.8333333333 68.3333333333 76.5 77 c 128
 68.1666666667 85.6666666667 64 95.6666666667 64 107 c 2
 64 405 l 2
 64 416.333333333 68.1666666667 426.333333333 76.5 435 c 128
 84.8333333333 443.666666667 95 448 107 448 c 2
 128 448 l 1
 128 491 l 1
 171 491 l 1
 171 448 l 1
 341 448 l 1
 341 491 l 1
363 256 m 5
 363 149 l 5
 256 149 l 5
 256 256 l 5
 363 256 l 5
EndSplineSet
Validated: 1
EndChar

StartChar: m
Encoding: 109 109 46
Width: 512
Flags: HW
LayerCount: 5
UndoRedoHistory
Layer: 1
Undoes
UndoOperation
Index: 0
Type: 3
WasModified: 0
WasOrder2: 0
Layer: 2
EndUndoOperation
EndUndoes
Redoes
EndRedoes
EndUndoRedoHistory
Fore
SplineSet
265.325195312 184.920898438 m 1
 265.325195312 262.241210938 l 1
 284.8828125 262.241210938 l 1
 284.8828125 184.920898438 l 1
 265.325195312 184.920898438 l 1
255.774414062 145.805664062 m 132
 276.999023438 145.805664062 295.268554688 153.461914062 310.580078125 168.775390625 c 132
 325.892578125 184.087890625 333.548828125 202.356445312 333.548828125 223.581054688 c 132
 333.548828125 244.805664062 325.892578125 263.075195312 310.580078125 278.387695312 c 132
 295.268554688 293.700195312 276.999023438 301.356445312 255.774414062 301.356445312 c 132
 234.548828125 301.356445312 216.280273438 293.700195312 200.967773438 278.387695312 c 132
 185.655273438 263.075195312 177.999023438 244.805664062 177.999023438 223.581054688 c 132
 177.999023438 202.356445312 185.655273438 184.087890625 200.967773438 168.775390625 c 132
 216.280273438 153.461914062 234.548828125 145.805664062 255.774414062 145.805664062 c 132
255.774414062 320.458984375 m 132
 282.45703125 320.458984375 305.274414062 310.983398438 324.225585938 292.032226562 c 132
 343.176757812 273.08203125 352.65234375 250.264648438 352.65234375 223.581054688 c 132
 352.65234375 196.8984375 343.176757812 174.081054688 324.225585938 155.129882812 c 132
 305.274414062 136.178710938 282.45703125 126.704101562 255.774414062 126.704101562 c 132
 229.091796875 126.704101562 206.274414062 136.178710938 187.322265625 155.129882812 c 132
 168.372070312 174.081054688 158.896484375 196.8984375 158.896484375 223.581054688 c 132
 158.896484375 250.264648438 168.372070312 273.08203125 187.322265625 292.032226562 c 132
 206.274414062 310.983398438 229.091796875 320.458984375 255.774414062 320.458984375 c 132
226.665039062 184.920898438 m 1
 226.665039062 262.241210938 l 1
 246.22265625 262.241210938 l 1
 246.22265625 184.920898438 l 1
 226.665039062 184.920898438 l 1
405 107 m 1
 405 341 l 1
 107 341 l 1
 107 107 l 1
 405 107 l 1
341 491 m 1
 384 491 l 1
 384 448 l 1
 405 448 l 2
 416.333333333 448 426.333333333 443.666666667 435 435 c 128
 443.666666667 426.333333333 448 416.333333333 448 405 c 2
 448 107 l 2
 448 95.6666666667 443.666666667 85.6666666667 435 77 c 128
 426.333333333 68.3333333333 416.333333333 64 405 64 c 2
 107 64 l 2
 95 64 84.8333333333 68.3333333333 76.5 77 c 128
 68.1666666667 85.6666666667 64 95.6666666667 64 107 c 2
 64 405 l 2
 64 416.333333333 68.1666666667 426.333333333 76.5 435 c 128
 84.8333333333 443.666666667 95 448 107 448 c 2
 128 448 l 1
 128 491 l 1
 171 491 l 1
 171 448 l 1
 341 448 l 1
 341 491 l 1
EndSplineSet
Validated: 1
EndChar

StartChar: n
Encoding: 110 110 47
Width: 512
Flags: HW
LayerCount: 5
UndoRedoHistory
Layer: 1
Undoes
UndoOperation
Index: 0
Type: 3
WasModified: 0
WasOrder2: 0
Layer: 2
EndUndoOperation
EndUndoes
Redoes
EndRedoes
EndUndoRedoHistory
Fore
SplineSet
255.552734375 145.323242188 m 132
 276.811759379 145.323242188 295.110914608 152.99218696 310.447265625 168.331054688 c 132
 325.784505208 183.668111003 333.453125 201.965962565 333.453125 223.224609375 c 132
 333.453125 244.484011951 325.784505208 262.783492185 310.447265625 278.12109375 c 132
 295.110914608 293.458333333 276.811759379 301.126953125 255.552734375 301.126953125 c 132
 234.292731839 301.126953125 215.994555284 293.458333333 200.657226562 278.12109375 c 132
 185.319335937 262.783492185 177.650390625 244.484011951 177.650390625 223.224609375 c 132
 177.650390625 201.965962565 185.319335937 183.668111003 200.657226562 168.331054688 c 132
 215.994555284 152.99218696 234.292731839 145.323242188 255.552734375 145.323242188 c 132
255.552734375 320.260742188 m 132
 282.279128505 320.260742188 305.133946746 310.769531251 324.116210938 291.787109375 c 132
 343.097330728 272.806093703 352.587890625 249.951600987 352.587890625 223.224609375 c 132
 352.587890625 196.498595914 343.097330728 173.644103198 324.116210938 154.662109375 c 132
 305.133946746 135.680988555 282.279128505 126.19140625 255.552734375 126.19140625 c 132
 228.827102198 126.19140625 205.97293553 135.680988555 186.990234375 154.662109375 c 132
 168.008789599 173.644103198 158.517578125 196.498595914 158.517578125 223.224609375 c 132
 158.517578125 249.951600987 168.008789599 272.806093703 186.990234375 291.787109375 c 132
 205.97293553 310.769531251 228.827102198 320.260742188 255.552734375 320.260742188 c 132
405 107 m 1
 405 341 l 1
 107 341 l 1
 107 107 l 1
 405 107 l 1
341 491 m 1
 384 491 l 1
 384 448 l 1
 405 448 l 2
 416.333333333 448 426.333333333 443.666666667 435 435 c 128
 443.666666667 426.333333333 448 416.333333333 448 405 c 2
 448 107 l 2
 448 95.6666666667 443.666666667 85.6666666667 435 77 c 128
 426.333333333 68.3333333333 416.333333333 64 405 64 c 2
 107 64 l 2
 95 64 84.8333333333 68.3333333333 76.5 77 c 128
 68.1666666667 85.6666666667 64 95.6666666667 64 107 c 2
 64 405 l 2
 64 416.333333333 68.1666666667 426.333333333 76.5 435 c 128
 84.8333333333 443.666666667 95 448 107 448 c 2
 128 448 l 1
 128 491 l 1
 171 491 l 1
 171 448 l 1
 341 448 l 1
 341 491 l 1
EndSplineSet
Validated: 1
EndChar

StartChar: o
Encoding: 111 111 48
Width: 512
Flags: HW
LayerCount: 5
UndoRedoHistory
Layer: 1
Undoes
UndoOperation
Index: 0
Type: 3
WasModified: 0
WasOrder2: 0
Layer: 2
EndUndoOperation
EndUndoes
Redoes
EndRedoes
EndUndoRedoHistory
Fore
SplineSet
301.96875 209.032226562 m 5
 344.704101562 252.173828125 l 5
 354.065429688 242.813476562 l 5
 301.96875 190.716796875 l 5
 274.29296875 218.393554688 l 5
 283.247070312 227.346679688 l 5
 301.96875 209.032226562 l 5
314.5859375 161.413085938 m 132
 331.408594984 161.413085938 345.721428749 167.382478829 357.524414062 179.321289062 c 132
 369.327148438 191.25984547 375.228515625 205.640379324 375.228515625 222.462890625 c 132
 375.228515625 239.285548109 369.327082104 253.598307298 357.524414062 265.401367188 c 132
 345.721420505 277.204752604 331.408594984 283.106445312 314.5859375 283.106445312 c 132
 297.763280016 283.106445312 283.450520831 277.20468627 271.647460938 265.401367188 c 132
 259.844726562 253.59837363 253.943359375 239.285548109 253.943359375 222.462890625 c 132
 253.943359375 205.640379324 259.844718319 191.25983732 271.647460938 179.321289062 c 132
 283.450454495 167.382486979 297.763280016 161.413085938 314.5859375 161.413085938 c 132
314.5859375 300.606445312 m 132
 336.292815564 300.606445312 354.743858103 292.941600702 369.938476562 277.611328125 c 132
 385.133138021 262.281012166 392.73046875 243.898199666 392.73046875 222.462890625 c 132
 392.73046875 201.027581584 385.133008701 182.644897259 369.938476562 167.314453125 c 132
 354.743661918 151.983723958 336.292815564 144.318359375 314.5859375 144.318359375 c 132
 292.879059436 144.318359375 274.428342404 151.983852135 259.233398438 167.314453125 c 132
 244.038736979 182.644769084 236.44140625 201.027581584 236.44140625 222.462890625 c 132
 236.44140625 243.898199666 244.038540793 262.281206618 259.233398438 277.611328125 c 132
 274.428213082 292.94140625 292.879059436 300.606445312 314.5859375 300.606445312 c 132
220.004882812 224.125976562 m 5
 182.263671875 176.384765625 l 5
 182.263671875 212.331054688 l 5
 125.013671875 212.331054688 l 5
 125.013671875 235.920898438 l 5
 182.263671875 235.920898438 l 5
 182.263671875 271.8671875 l 5
 220.004882812 224.125976562 l 5
405 107 m 5
 405 341 l 5
 107 341 l 5
 107 107 l 5
 405 107 l 5
341 491 m 5
 384 491 l 5
 384 448 l 5
 405 448 l 6
 416.333333333 448 426.333333333 443.666666667 435 435 c 132
 443.666666667 426.333333333 448 416.333333333 448 405 c 6
 448 107 l 6
 448 95.6666666667 443.666666667 85.6666666667 435 77 c 132
 426.333333333 68.3333333333 416.333333333 64 405 64 c 6
 107 64 l 6
 95 64 84.8333333333 68.3333333333 76.5 77 c 132
 68.1666666667 85.6666666667 64 95.6666666667 64 107 c 6
 64 405 l 6
 64 416.333333333 68.1666666667 426.333333333 76.5 435 c 132
 84.8333333333 443.666666667 95 448 107 448 c 6
 128 448 l 5
 128 491 l 5
 171 491 l 5
 171 448 l 5
 341 448 l 5
 341 491 l 5
EndSplineSet
Validated: 1
EndChar

StartChar: uni0081
Encoding: 129 129 49
Width: 512
Flags: HW
LayerCount: 5
UndoRedoHistory
Layer: 1
Undoes
UndoOperation
Index: 0
Type: 1
WasModified: 1
WasOrder2: 0
Layer: 2
Width: 512
VWidth: 512
LBearingChange: 0
UnicodeEnc: 0
InstructionsLength: 0
SplineSet
256 158 m 4
 238 158 222.833333333 164.166666667 210.5 176.5 c 132
 198.166666667 188.833333333 192 204 192 222 c 4
 192 233.333333333 194.833333333 244 200.5 254 c 132
 206.166666667 264 214 271.666666667 224 277 c 6
 431 397 l 5
 313 193 l 6
 307.666666667 182.333333333 299.833333333 173.833333333 289.5 167.5 c 132
 279.166666667 161.166666667 268 158 256 158 c 4
256 435 m 4
 293.333333333 435 328.666666667 425.666666667 362 407 c 5
 317 381 l 5
 297.666666667 388.333333333 277.333333333 392 256 392 c 4
 225.333333333 392 196.833333333 384.333333333 170.5 369 c 132
 144.166666667 353.666666667 123.333333333 333 108 307 c 132
 92.6666666667 281 85 252.666666667 85 222 c 4
 85 198.666666667 89.5 176.666666667 98.5 156 c 132
 107.5 135.333333333 119.666666667 117 135 101 c 5
 135 101 l 5
 139.666666667 97 142 92 142 86 c 132
 142 80 139.833333333 75 135.5 71 c 132
 131.166666667 67 126 65 120 65 c 132
 114 65 109 67 105 71 c 5
 105 71 l 5
 85.6666666667 90.3333333333 70.5 113 59.5 139 c 132
 48.5 165 43 192.333333333 43 221 c 132
 43 249.666666667 48.3333333333 277.166666667 59 303.5 c 132
 69.6666666667 329.833333333 85 353 105 373 c 132
 125 393 148.166666667 408.333333333 174.5 419 c 132
 200.833333333 429.666666667 228 435 256 435 c 4
469 222 m 4
 469 192.666666667 463.5 165 452.5 139 c 132
 441.5 113 426.333333333 90.3333333333 407 71 c 5
 407 71 l 5
 403 67 398 65 392 65 c 132
 386 65 381 67 377 71 c 132
 373 75 371 80 371 86 c 132
 371 92 373 97 377 101 c 5
 377 101 l 5
 392.333333333 117 404.5 135.333333333 413.5 156 c 132
 422.5 176.666666667 427 198.666666667 427 222 c 4
 427 243.333333333 423 264 415 284 c 5
 441 328 l 5
 459.666666667 294 469 258.666666667 469 222 c 4
EndSplineSet
EndUndoOperation
EndUndoes
Redoes
EndRedoes
EndUndoRedoHistory
Fore
SplineSet
256 159 m 4
 238 159 222.833333333 165.166666667 210.5 177.5 c 132
 198.166666667 189.833333333 192 205 192 223 c 4
 192 234.333333333 194.833333333 245 200.5 255 c 132
 206.166666667 265 214 272.666666667 224 278 c 6
 431 398 l 5
 313 194 l 6
 307.666666667 183.333333333 299.833333333 174.833333333 289.5 168.5 c 132
 279.166666667 162.166666667 268 159 256 159 c 4
256 436 m 4
 293.333333333 436 328.666666667 426.666666667 362 408 c 5
 317 382 l 5
 297.666666667 389.333333333 277.333333333 393 256 393 c 4
 225.333333333 393 196.833333333 385.333333333 170.5 370 c 132
 144.166666667 354.666666667 123.333333333 334 108 308 c 132
 92.6666666667 282 85 253.666666667 85 223 c 4
 85 199.666666667 89.5 177.666666667 98.5 157 c 132
 107.5 136.333333333 119.666666667 118 135 102 c 5
 135 102 l 5
 139.666666667 98 142 93 142 87 c 132
 142 81 139.833333333 76 135.5 72 c 132
 131.166666667 68 126 66 120 66 c 132
 114 66 109 68 105 72 c 5
 105 72 l 5
 85.6666666667 91.3333333333 70.5 114 59.5 140 c 132
 48.5 166 43 193.333333333 43 222 c 132
 43 250.666666667 48.3333333333 278.166666667 59 304.5 c 132
 69.6666666667 330.833333333 85 354 105 374 c 132
 125 394 148.166666667 409.333333333 174.5 420 c 132
 200.833333333 430.666666667 228 436 256 436 c 4
469 223 m 4
 469 193.666666667 463.5 166 452.5 140 c 132
 441.5 114 426.333333333 91.3333333333 407 72 c 5
 407 72 l 5
 403 68 398 66 392 66 c 132
 386 66 381 68 377 72 c 132
 373 76 371 81 371 87 c 132
 371 93 373 98 377 102 c 5
 377 102 l 5
 392.333333333 118 404.5 136.333333333 413.5 157 c 132
 422.5 177.666666667 427 199.666666667 427 223 c 4
 427 244.333333333 423 265 415 285 c 5
 441 329 l 5
 459.666666667 295 469 259.666666667 469 223 c 4
EndSplineSet
Validated: 1
EndChar

StartChar: uni007F
Encoding: 127 127 66
Width: 512
Flags: HW
LayerCount: 5
UndoRedoHistory
Layer: 1
Undoes
UndoOperation
Index: 0
Type: 1
WasModified: 1
WasOrder2: 0
Layer: 2
Width: 512
VWidth: 512
LBearingChange: 0
UnicodeEnc: 0
InstructionsLength: 0
SplineSet
256 161 m 4
 274 161 289.166666667 167.166666667 301.5 179.5 c 132
 313.833333333 191.833333333 320 207 320 225 c 4
 320 236.333333333 317.166666667 247 311.5 257 c 132
 305.833333333 267 298 274.666666667 288 280 c 6
 81 400 l 5
 199 196 l 6
 204.333333333 185.333333333 212.166666667 176.833333333 222.5 170.5 c 132
 232.833333333 164.166666667 244 161 256 161 c 4
256 438 m 4
 218.666666667 438 183.333333333 428.666666667 150 410 c 5
 195 384 l 5
 214.333333333 391.333333333 234.666666667 395 256 395 c 4
 286.666666667 395 315.166666667 387.333333333 341.5 372 c 132
 367.833333333 356.666666667 388.666666667 336 404 310 c 132
 419.333333333 284 427 255.666666667 427 225 c 4
 427 201.666666667 422.5 179.666666667 413.5 159 c 132
 404.5 138.333333333 392.333333333 120 377 104 c 5
 377 104 l 5
 372.333333333 100 370 95 370 89 c 132
 370 83 372.166666667 78 376.5 74 c 132
 380.833333333 70 386 68 392 68 c 132
 398 68 403 70 407 74 c 4
 426.333333333 93.3333333333 441.5 116 452.5 142 c 132
 463.5 168 469 195.666666667 469 225 c 4
 469 263 459.5 298.333333333 440.5 331 c 132
 421.5 363.666666667 395.666666667 389.666666667 363 409 c 132
 330.333333333 428.333333333 294.666666667 438 256 438 c 4
43 225 m 4
 43 195.666666667 48.5 168 59.5 142 c 132
 70.5 116 85.6666666667 93.3333333333 105 74 c 4
 109 70 114 68 120 68 c 132
 126 68 131 70 135 74 c 132
 139 78 141 83 141 89 c 132
 141 95 139 100 135 104 c 4
 119.666666667 120 107.5 138.333333333 98.5 159 c 132
 89.5 179.666666667 85 201.666666667 85 225 c 4
 85 246.333333333 89 267 97 287 c 5
 71 331 l 5
 52.3333333333 297 43 261.666666667 43 225 c 4
EndSplineSet
EndUndoOperation
EndUndoes
Redoes
EndRedoes
EndUndoRedoHistory
Fore
SplineSet
256 160 m 4
 274 160 289.166666667 166.166666667 301.5 178.5 c 132
 313.833333333 190.833333333 320 206 320 224 c 4
 320 235.333333333 317.166666667 246 311.5 256 c 132
 305.833333333 266 298 273.666666667 288 279 c 6
 81 399 l 5
 199 195 l 6
 204.333333333 184.333333333 212.166666667 175.833333333 222.5 169.5 c 132
 232.833333333 163.166666667 244 160 256 160 c 4
256 437 m 4
 218.666666667 437 183.333333333 427.666666667 150 409 c 5
 195 383 l 5
 214.333333333 390.333333333 234.666666667 394 256 394 c 4
 286.666666667 394 315.166666667 386.333333333 341.5 371 c 132
 367.833333333 355.666666667 388.666666667 335 404 309 c 132
 419.333333333 283 427 254.666666667 427 224 c 4
 427 200.666666667 422.5 178.666666667 413.5 158 c 132
 404.5 137.333333333 392.333333333 119 377 103 c 5
 377 103 l 5
 372.333333333 99 370 94 370 88 c 132
 370 82 372.166666667 77 376.5 73 c 132
 380.833333333 69 386 67 392 67 c 132
 398 67 403 69 407 73 c 4
 426.333333333 92.3333333333 441.5 115 452.5 141 c 132
 463.5 167 469 194.666666667 469 224 c 4
 469 262 459.5 297.333333333 440.5 330 c 132
 421.5 362.666666667 395.666666667 388.666666667 363 408 c 132
 330.333333333 427.333333333 294.666666667 437 256 437 c 4
43 224 m 4
 43 194.666666667 48.5 167 59.5 141 c 132
 70.5 115 85.6666666667 92.3333333333 105 73 c 4
 109 69 114 67 120 67 c 132
 126 67 131 69 135 73 c 132
 139 77 141 82 141 88 c 132
 141 94 139 99 135 103 c 4
 119.666666667 119 107.5 137.333333333 98.5 158 c 132
 89.5 178.666666667 85 200.666666667 85 224 c 4
 85 245.333333333 89 266 97 286 c 5
 71 330 l 5
 52.3333333333 296 43 260.666666667 43 224 c 4
EndSplineSet
Validated: 9
EndChar

StartChar: uni0080
Encoding: 128 128 67
Width: 512
Flags: HW
LayerCount: 5
UndoRedoHistory
Layer: 1
Undoes
UndoOperation
Index: 0
Type: 1
WasModified: 1
WasOrder2: 0
Layer: 2
Width: 512
VWidth: 512
LBearingChange: 0
UnicodeEnc: 0
InstructionsLength: 0
SplineSet
256 463 m 5
 195 235 l 6
 191 223.666666667 190.333333333 212.166666667 193 200.5 c 132
 195.666666667 188.833333333 201.333333333 178.333333333 210 169 c 4
 222.666666667 157 237.833333333 151 255.5 151 c 132
 273.166666667 151 288.333333333 157 301 169 c 4
 309 177.666666667 314.5 187.5 317.5 198.5 c 132
 320.5 209.5 320.666666667 220.666666667 318 232 c 6
 256 463 l 5
311 421 m 5
 325 371 l 5
 355 357.666666667 379.5 336.833333333 398.5 308.5 c 132
 417.5 280.166666667 427 249 427 215 c 4
 427 191.666666667 422.5 169.666666667 413.5 149 c 132
 404.5 128.333333333 392.333333333 110 377 94 c 5
 377 94 l 5
 372.333333333 90 370 85 370 79 c 132
 370 73 372.166666667 68 376.5 64 c 132
 380.833333333 60 386 58 392 58 c 132
 398 58 403 60 407 64 c 4
 426.333333333 83.3333333333 441.5 106 452.5 132 c 132
 463.5 158 469 185.666666667 469 215 c 4
 469 247 462.333333333 277.166666667 449 305.5 c 132
 435.666666667 333.833333333 417 358 393 378 c 132
 369 398 341.666666667 412.333333333 311 421 c 5
201 420 m 5
 170.333333333 412 143.166666667 398 119.5 378 c 132
 95.8333333333 358 77.1666666667 333.833333333 63.5 305.5 c 132
 49.8333333333 277.166666667 43 247 43 215 c 4
 43 185.666666667 48.5 158 59.5 132 c 132
 70.5 106 85.6666666667 83.3333333333 105 64 c 4
 109 60 114 58 120 58 c 132
 126 58 131 60 135 64 c 132
 139 68 141 73 141 79 c 132
 141 85 139 90 135 94 c 4
 119.666666667 110 107.5 128.333333333 98.5 149 c 132
 89.5 169.666666667 85 191.666666667 85 215 c 4
 85 250.333333333 94.3333333333 282 113 310 c 132
 131.666666667 338 156.666666667 358.333333333 188 371 c 5
 201 420 l 5
EndSplineSet
EndUndoOperation
EndUndoes
Redoes
EndRedoes
EndUndoRedoHistory
Fore
SplineSet
256 462 m 5
 195 234 l 6
 191 222.666666667 190.333333333 211.166666667 193 199.5 c 132
 195.666666667 187.833333333 201.333333333 177.333333333 210 168 c 4
 222.666666667 156 237.833333333 150 255.5 150 c 132
 273.166666667 150 288.333333333 156 301 168 c 4
 309 176.666666667 314.5 186.5 317.5 197.5 c 132
 320.5 208.5 320.666666667 219.666666667 318 231 c 6
 256 462 l 5
311 420 m 5
 325 370 l 5
 355 356.666666667 379.5 335.833333333 398.5 307.5 c 132
 417.5 279.166666667 427 248 427 214 c 4
 427 190.666666667 422.5 168.666666667 413.5 148 c 132
 404.5 127.333333333 392.333333333 109 377 93 c 5
 377 93 l 5
 372.333333333 89 370 84 370 78 c 132
 370 72 372.166666667 67 376.5 63 c 132
 380.833333333 59 386 57 392 57 c 132
 398 57 403 59 407 63 c 4
 426.333333333 82.3333333333 441.5 105 452.5 131 c 132
 463.5 157 469 184.666666667 469 214 c 4
 469 246 462.333333333 276.166666667 449 304.5 c 132
 435.666666667 332.833333333 417 357 393 377 c 132
 369 397 341.666666667 411.333333333 311 420 c 5
201 419 m 5
 170.333333333 411 143.166666667 397 119.5 377 c 132
 95.8333333333 357 77.1666666667 332.833333333 63.5 304.5 c 132
 49.8333333333 276.166666667 43 246 43 214 c 4
 43 184.666666667 48.5 157 59.5 131 c 132
 70.5 105 85.6666666667 82.3333333333 105 63 c 4
 109 59 114 57 120 57 c 132
 126 57 131 59 135 63 c 132
 139 67 141 72 141 78 c 132
 141 84 139 89 135 93 c 4
 119.666666667 109 107.5 127.333333333 98.5 148 c 132
 89.5 168.666666667 85 190.666666667 85 214 c 4
 85 249.333333333 94.3333333333 281 113 309 c 132
 131.666666667 337 156.666666667 357.333333333 188 370 c 5
 201 419 l 5
EndSplineSet
Validated: 41
EndChar

StartChar: r
Encoding: 114 114 69
Width: 512
Flags: HW
LayerCount: 5
UndoRedoHistory
Layer: 1
Undoes
UndoOperation
Index: 0
Type: 1
WasModified: 1
WasOrder2: 0
Layer: 2
Width: 512
VWidth: 512
LBearingChange: 0
UnicodeEnc: 0
InstructionsLength: 0
SplineSet
334.528320312 252.36328125 m 5
 345.638671875 241.364257812 l 5
 325.268554688 221.198242188 l 5
 345.638671875 201.032226562 l 5
 334.528320312 190.033203125 l 5
 314.157226562 210.198242188 l 5
 293.788085938 190.033203125 l 5
 282.677734375 201.032226562 l 5
 303.047851562 221.198242188 l 5
 282.677734375 241.364257812 l 5
 293.788085938 252.36328125 l 5
 314.157226562 232.198242188 l 5
 334.528320312 252.36328125 l 5
314.5859375 161.413085938 m 128
 331.408594984 161.413085938 345.721428749 167.382478829 357.524414062 179.321289062 c 128
 369.327148438 191.25984547 375.228515625 205.640379324 375.228515625 222.462890625 c 128
 375.228515625 239.285548109 369.327082104 253.598307298 357.524414062 265.401367188 c 128
 345.721420505 277.204752604 331.408594984 283.106445312 314.5859375 283.106445312 c 128
 297.763280016 283.106445312 283.450520831 277.20468627 271.647460938 265.401367188 c 128
 259.844726562 253.59837363 253.943359375 239.285548109 253.943359375 222.462890625 c 128
 253.943359375 205.640379324 259.844718319 191.25983732 271.647460938 179.321289062 c 128
 283.450454495 167.382486979 297.763280016 161.413085938 314.5859375 161.413085938 c 128
314.5859375 300.606445312 m 128
 336.292815564 300.606445312 354.743858102 292.941600701 369.938476562 277.611328125 c 128
 385.133138021 262.281012166 392.73046875 243.898199666 392.73046875 222.462890625 c 128
 392.73046875 201.027581584 385.1330087 182.64489726 369.938476562 167.314453125 c 128
 354.743661918 151.983723958 336.292815564 144.318359375 314.5859375 144.318359375 c 128
 292.879059436 144.318359375 274.428342405 151.983852136 259.233398438 167.314453125 c 128
 244.038736979 182.644769084 236.44140625 201.027581584 236.44140625 222.462890625 c 128
 236.44140625 243.898199666 244.038540794 262.281206617 259.233398438 277.611328125 c 128
 274.428213082 292.94140625 292.879059436 300.606445312 314.5859375 300.606445312 c 128
220.004882812 224.125976562 m 1
 182.263671875 176.384765625 l 1
 182.263671875 212.331054688 l 1
 125.013671875 212.331054688 l 1
 125.013671875 235.920898438 l 1
 182.263671875 235.920898438 l 1
 182.263671875 271.8671875 l 1
 220.004882812 224.125976562 l 1
405 107 m 1
 405 341 l 1
 107 341 l 1
 107 107 l 1
 405 107 l 1
341 491 m 1
 384 491 l 1
 384 448 l 1
 405 448 l 2
 416.333333333 448 426.333333333 443.666666667 435 435 c 128
 443.666666667 426.333333333 448 416.333333333 448 405 c 2
 448 107 l 2
 448 95.6666666667 443.666666667 85.6666666667 435 77 c 128
 426.333333333 68.3333333333 416.333333333 64 405 64 c 2
 107 64 l 2
 95 64 84.8333333333 68.3333333333 76.5 77 c 128
 68.1666666667 85.6666666667 64 95.6666666667 64 107 c 2
 64 405 l 2
 64 416.333333333 68.1666666667 426.333333333 76.5 435 c 128
 84.8333333333 443.666666667 95 448 107 448 c 2
 128 448 l 1
 128 491 l 1
 171 491 l 1
 171 448 l 1
 341 448 l 1
 341 491 l 1
EndSplineSet
EndUndoOperation
EndUndoes
Redoes
EndRedoes
EndUndoRedoHistory
Fore
SplineSet
334.528320312 253.36328125 m 5
 345.638671875 242.364257812 l 5
 325.268554688 222.198242188 l 5
 345.638671875 202.032226562 l 5
 334.528320312 191.033203125 l 5
 314.157226562 211.198242188 l 5
 293.788085938 191.033203125 l 5
 282.677734375 202.032226562 l 5
 303.047851562 222.198242188 l 5
 282.677734375 242.364257812 l 5
 293.788085938 253.36328125 l 5
 314.157226562 233.198242188 l 5
 334.528320312 253.36328125 l 5
314.5859375 161.413085938 m 128
 331.408594984 161.413085938 345.721428749 167.382478829 357.524414062 179.321289062 c 128
 369.327148438 191.25984547 375.228515625 205.640379324 375.228515625 222.462890625 c 128
 375.228515625 239.285548109 369.327082104 253.598307298 357.524414062 265.401367188 c 128
 345.721420505 277.204752604 331.408594984 283.106445312 314.5859375 283.106445312 c 128
 297.763280016 283.106445312 283.450520831 277.20468627 271.647460938 265.401367188 c 128
 259.844726562 253.59837363 253.943359375 239.285548109 253.943359375 222.462890625 c 128
 253.943359375 205.640379324 259.844718319 191.25983732 271.647460938 179.321289062 c 128
 283.450454495 167.382486979 297.763280016 161.413085938 314.5859375 161.413085938 c 128
314.5859375 300.606445312 m 128
 336.292815564 300.606445312 354.743858102 292.941600701 369.938476562 277.611328125 c 128
 385.133138021 262.281012166 392.73046875 243.898199666 392.73046875 222.462890625 c 128
 392.73046875 201.027581584 385.1330087 182.64489726 369.938476562 167.314453125 c 128
 354.743661918 151.983723958 336.292815564 144.318359375 314.5859375 144.318359375 c 128
 292.879059436 144.318359375 274.428342405 151.983852136 259.233398438 167.314453125 c 128
 244.038736979 182.644769084 236.44140625 201.027581584 236.44140625 222.462890625 c 128
 236.44140625 243.898199666 244.038540794 262.281206617 259.233398438 277.611328125 c 128
 274.428213082 292.94140625 292.879059436 300.606445312 314.5859375 300.606445312 c 128
220.004882812 224.125976562 m 1
 182.263671875 176.384765625 l 1
 182.263671875 212.331054688 l 1
 125.013671875 212.331054688 l 1
 125.013671875 235.920898438 l 1
 182.263671875 235.920898438 l 1
 182.263671875 271.8671875 l 1
 220.004882812 224.125976562 l 1
405 107 m 1
 405 341 l 1
 107 341 l 1
 107 107 l 1
 405 107 l 1
341 491 m 1
 384 491 l 1
 384 448 l 1
 405 448 l 2
 416.333333333 448 426.333333333 443.666666667 435 435 c 128
 443.666666667 426.333333333 448 416.333333333 448 405 c 2
 448 107 l 2
 448 95.6666666667 443.666666667 85.6666666667 435 77 c 128
 426.333333333 68.3333333333 416.333333333 64 405 64 c 2
 107 64 l 2
 95 64 84.8333333333 68.3333333333 76.5 77 c 128
 68.1666666667 85.6666666667 64 95.6666666667 64 107 c 2
 64 405 l 2
 64 416.333333333 68.1666666667 426.333333333 76.5 435 c 128
 84.8333333333 443.666666667 95 448 107 448 c 2
 128 448 l 1
 128 491 l 1
 171 491 l 1
 171 448 l 1
 341 448 l 1
 341 491 l 1
EndSplineSet
Validated: 1
EndChar

StartChar: s
Encoding: 115 115 70
Width: 512
Flags: HW
LayerCount: 5
UndoRedoHistory
Layer: 1
Undoes
UndoOperation
Index: 0
Type: 1
WasModified: 1
WasOrder2: 0
Layer: 2
Width: 512
VWidth: 512
LBearingChange: 0
UnicodeEnc: 0
InstructionsLength: 0
SplineSet
341 247 m 5
 341 204 l 5
 277 204 l 5
 277 140 l 5
 235 140 l 5
 235 204 l 5
 171 204 l 5
 171 247 l 5
 235 247 l 5
 235 311 l 5
 277 311 l 5
 277 247 l 5
 341 247 l 5
405 107 m 1
 405 341 l 1
 107 341 l 1
 107 107 l 1
 405 107 l 1
405 448 m 2
 416.333333333 448 426.333333333 443.666666667 435 435 c 128
 443.666666667 426.333333333 448 416.333333333 448 405 c 2
 448 107 l 2
 448 95.6666666667 443.666666667 85.6666666667 435 77 c 128
 426.333333333 68.3333333333 416.333333333 64 405 64 c 2
 107 64 l 2
 95 64 84.8333333333 68.3333333333 76.5 77 c 128
 68.1666666667 85.6666666667 64 95.6666666667 64 107 c 2
 64 405 l 2
 64 416.333333333 68.1666666667 426.333333333 76.5 435 c 128
 84.8333333333 443.666666667 95 448 107 448 c 2
 128 448 l 1
 128 491 l 1
 171 491 l 1
 171 448 l 1
 341 448 l 1
 341 491 l 1
 384 491 l 1
 384 448 l 1
 405 448 l 2
EndSplineSet
EndUndoOperation
EndUndoes
Redoes
EndRedoes
EndUndoRedoHistory
Fore
SplineSet
341 246 m 5
 341 203 l 5
 277 203 l 5
 277 139 l 5
 235 139 l 5
 235 203 l 5
 171 203 l 5
 171 246 l 5
 235 246 l 5
 235 310 l 5
 277 310 l 5
 277 246 l 5
 341 246 l 5
405 107 m 1
 405 341 l 1
 107 341 l 1
 107 107 l 1
 405 107 l 1
405 448 m 2
 416.333333333 448 426.333333333 443.666666667 435 435 c 128
 443.666666667 426.333333333 448 416.333333333 448 405 c 2
 448 107 l 2
 448 95.6666666667 443.666666667 85.6666666667 435 77 c 128
 426.333333333 68.3333333333 416.333333333 64 405 64 c 2
 107 64 l 2
 95 64 84.8333333333 68.3333333333 76.5 77 c 128
 68.1666666667 85.6666666667 64 95.6666666667 64 107 c 2
 64 405 l 2
 64 416.333333333 68.1666666667 426.333333333 76.5 435 c 128
 84.8333333333 443.666666667 95 448 107 448 c 2
 128 448 l 1
 128 491 l 1
 171 491 l 1
 171 448 l 1
 341 448 l 1
 341 491 l 1
 384 491 l 1
 384 448 l 1
 405 448 l 2
EndSplineSet
Validated: 1
EndChar

StartChar: t
Encoding: 116 116 71
Width: 512
Flags: HW
LayerCount: 5
UndoRedoHistory
Layer: 1
Undoes
UndoOperation
Index: 0
Type: 1
WasModified: 1
WasOrder2: 0
Layer: 2
Width: 512
VWidth: 512
LBearingChange: 0
UnicodeEnc: 0
InstructionsLength: 0
SplineSet
296.681640625 316.803710938 m 5
 335.859375 316.803710938 l 5
 335.859375 294.038085938 l 5
 178.090820312 294.038085938 l 5
 178.090820312 316.803710938 l 5
 217.268554688 316.803710938 l 5
 228.916015625 327.921875 l 5
 285.034179688 327.921875 l 5
 296.681640625 316.803710938 l 5
216.739257812 227.860351562 m 5
 241.092773438 203.505859375 l 5
 217.268554688 179.681640625 l 5
 233.150390625 163.799804688 l 5
 256.974609375 187.624023438 l 5
 280.799804688 163.799804688 l 5
 296.681640625 179.681640625 l 5
 272.857421875 203.505859375 l 5
 296.681640625 227.860351562 l 5
 280.799804688 243.7421875 l 5
 256.974609375 219.388671875 l 5
 233.150390625 243.7421875 l 5
 216.739257812 227.860351562 l 5
189.208984375 147.387695312 m 6
 189.208984375 282.919921875 l 5
 324.741210938 282.919921875 l 5
 324.741210938 147.387695312 l 6
 324.741210938 141.387521701 322.447265625 136.093250868 317.859375 131.504882812 c 132
 313.271006944 126.916341146 307.976736111 124.622070312 301.9765625 124.622070312 c 6
 211.974609375 124.622070312 l 6
 205.974435764 124.622070312 200.680164931 126.916341146 196.091796875 131.504882812 c 132
 191.503255208 136.093250868 189.208984375 141.387521701 189.208984375 147.387695312 c 6
405 107 m 1
 405 341 l 1
 107 341 l 1
 107 107 l 1
 405 107 l 1
405 448 m 2
 416.333333333 448 426.333333333 443.666666667 435 435 c 128
 443.666666667 426.333333333 448 416.333333333 448 405 c 2
 448 107 l 2
 448 95.6666666667 443.666666667 85.6666666667 435 77 c 128
 426.333333333 68.3333333333 416.333333333 64 405 64 c 2
 107 64 l 2
 95 64 84.8333333333 68.3333333333 76.5 77 c 128
 68.1666666667 85.6666666667 64 95.6666666667 64 107 c 2
 64 405 l 2
 64 416.333333333 68.1666666667 426.333333333 76.5 435 c 128
 84.8333333333 443.666666667 95 448 107 448 c 2
 128 448 l 1
 128 491 l 1
 171 491 l 1
 171 448 l 1
 341 448 l 1
 341 491 l 1
 384 491 l 1
 384 448 l 1
 405 448 l 2
EndSplineSet
EndUndoOperation
EndUndoes
Redoes
EndRedoes
EndUndoRedoHistory
Fore
SplineSet
295.681640625 316.803710938 m 5
 334.859375 316.803710938 l 5
 334.859375 294.038085938 l 5
 177.090820312 294.038085938 l 5
 177.090820312 316.803710938 l 5
 216.268554688 316.803710938 l 5
 227.916015625 327.921875 l 5
 284.034179688 327.921875 l 5
 295.681640625 316.803710938 l 5
215.739257812 227.860351562 m 5
 240.092773438 203.505859375 l 5
 216.268554688 179.681640625 l 5
 232.150390625 163.799804688 l 5
 255.974609375 187.624023438 l 5
 279.799804688 163.799804688 l 5
 295.681640625 179.681640625 l 5
 271.857421875 203.505859375 l 5
 295.681640625 227.860351562 l 5
 279.799804688 243.7421875 l 5
 255.974609375 219.388671875 l 5
 232.150390625 243.7421875 l 5
 215.739257812 227.860351562 l 5
188.208984375 147.387695312 m 6
 188.208984375 282.919921875 l 5
 323.741210938 282.919921875 l 5
 323.741210938 147.387695312 l 6
 323.741210938 141.387521701 321.447265625 136.093250868 316.859375 131.504882812 c 132
 312.271006944 126.916341146 306.976736111 124.622070312 300.9765625 124.622070312 c 6
 210.974609375 124.622070312 l 6
 204.974435764 124.622070312 199.680164931 126.916341146 195.091796875 131.504882812 c 132
 190.503255208 136.093250868 188.208984375 141.387521701 188.208984375 147.387695312 c 6
405 107 m 1
 405 341 l 1
 107 341 l 1
 107 107 l 1
 405 107 l 1
405 448 m 2
 416.333333333 448 426.333333333 443.666666667 435 435 c 128
 443.666666667 426.333333333 448 416.333333333 448 405 c 2
 448 107 l 2
 448 95.6666666667 443.666666667 85.6666666667 435 77 c 128
 426.333333333 68.3333333333 416.333333333 64 405 64 c 2
 107 64 l 2
 95 64 84.8333333333 68.3333333333 76.5 77 c 128
 68.1666666667 85.6666666667 64 95.6666666667 64 107 c 2
 64 405 l 2
 64 416.333333333 68.1666666667 426.333333333 76.5 435 c 128
 84.8333333333 443.666666667 95 448 107 448 c 2
 128 448 l 1
 128 491 l 1
 171 491 l 1
 171 448 l 1
 341 448 l 1
 341 491 l 1
 384 491 l 1
 384 448 l 1
 405 448 l 2
EndSplineSet
Validated: 1
EndChar

StartChar: v
Encoding: 118 118 72
Width: 512
Flags: HW
LayerCount: 5
UndoRedoHistory
Layer: 1
Undoes
UndoOperation
Index: 0
Type: 1
WasModified: 1
WasOrder2: 0
Layer: 2
Width: 512
VWidth: 512
LBearingChange: 0
UnicodeEnc: 0
InstructionsLength: 0
SplineSet
405 107 m 1
 405 341 l 5
 107 341 l 5
 107 107 l 1
 405 107 l 1
405 448 m 2
 416.333333333 448 426.333333333 443.666666667 435 435 c 128
 443.666666667 426.333333333 448 416.333333333 448 405 c 2
 448 107 l 2
 448 95.6666666667 443.666666667 85.6666666667 435 77 c 128
 426.333333333 68.3333333333 416.333333333 64 405 64 c 2
 107 64 l 2
 95 64 84.8333333333 68.3333333333 76.5 77 c 128
 68.1666666667 85.6666666667 64 95.6666666667 64 107 c 2
 64 405 l 2
 64 416.333333333 68.1666666667 426.333333333 76.5 435 c 128
 84.8333333333 443.666666667 95 448 107 448 c 2
 128 448 l 1
 128 491 l 1
 171 491 l 1
 171 448 l 1
 341 448 l 1
 341 491 l 1
 384 491 l 1
 384 448 l 1
 405 448 l 2
353 276 m 1
 226 149 l 1
 158 217 l 1
 181 240 l 1
 226 195 l 1
 330 299 l 1
 353 276 l 1
EndSplineSet
EndUndoOperation
UndoOperation
Index: 1
Type: 1
WasModified: 1
WasOrder2: 0
Layer: 2
Width: 512
VWidth: 512
LBearingChange: 0
UnicodeEnc: 0
InstructionsLength: 0
SplineSet
405 107 m 1
 405 341 l 1
 107 341 l 1
 107 107 l 1
 405 107 l 1
405 448 m 2
 416.333333333 448 426.333333333 443.666666667 435 435 c 128
 443.666666667 426.333333333 448 416.333333333 448 405 c 2
 448 107 l 2
 448 95.6666666667 443.666666667 85.6666666667 435 77 c 128
 426.333333333 68.3333333333 416.333333333 64 405 64 c 2
 107 64 l 2
 95 64 84.8333333333 68.3333333333 76.5 77 c 128
 68.1666666667 85.6666666667 64 95.6666666667 64 107 c 2
 64 405 l 2
 64 416.333333333 68.1666666667 426.333333333 76.5 435 c 128
 84.8333333333 443.666666667 95 448 107 448 c 2
 128 448 l 1
 128 491 l 1
 171 491 l 1
 171 448 l 1
 341 448 l 1
 341 491 l 1
 384 491 l 1
 384 448 l 1
 405 448 l 2
353 276 m 1
 226 149 l 1
 158 217 l 1
 181 240 l 1
 226 195 l 1
 330 299 l 1
 353 276 l 1
EndSplineSet
EndUndoOperation
UndoOperation
Index: 2
Type: 1
WasModified: 1
WasOrder2: 0
Layer: 2
Width: 512
VWidth: 512
LBearingChange: 0
UnicodeEnc: 0
InstructionsLength: 0
SplineSet
405 107 m 1
 405 341 l 1
 107 341 l 1
 107 107 l 1
 405 107 l 1
405 448 m 2
 416.333333333 448 426.333333333 443.666666667 435 435 c 128
 443.666666667 426.333333333 448 416.333333333 448 405 c 2
 448 107 l 2
 448 95.6666666667 443.666666667 85.6666666667 435 77 c 128
 426.333333333 68.3333333333 416.333333333 64 405 64 c 2
 107 64 l 2
 95 64 84.8333333333 68.3333333333 76.5 77 c 128
 68.1666666667 85.6666666667 64 95.6666666667 64 107 c 2
 64 405 l 2
 64 416.333333333 68.1666666667 426.333333333 76.5 435 c 128
 84.8333333333 443.666666667 95 448 107 448 c 2
 128 448 l 1
 128 491 l 1
 171 491 l 1
 171 448 l 1
 341 448 l 1
 341 491 l 1
 384 491 l 1
 384 448 l 1
 405 448 l 2
353 276 m 1
 226 149 l 1
 158 217 l 1
 181 240 l 1
 226 195 l 1
 330 299 l 1
 353 276 l 1
EndSplineSet
EndUndoOperation
UndoOperation
Index: 3
Type: 1
WasModified: 1
WasOrder2: 0
Layer: 2
Width: 512
VWidth: 512
LBearingChange: 0
UnicodeEnc: 0
InstructionsLength: 0
SplineSet
405 107 m 1
 405 341 l 1
 107 341 l 1
 107 107 l 1
 405 107 l 1
405 448 m 2
 416.333333333 448 426.333333333 443.666666667 435 435 c 128
 443.666666667 426.333333333 448 416.333333333 448 405 c 2
 448 107 l 2
 448 95.6666666667 443.666666667 85.6666666667 435 77 c 128
 426.333333333 68.3333333333 416.333333333 64 405 64 c 2
 107 64 l 2
 95 64 84.8333333333 68.3333333333 76.5 77 c 128
 68.1666666667 85.6666666667 64 95.6666666667 64 107 c 2
 64 405 l 2
 64 416.333333333 68.1666666667 426.333333333 76.5 435 c 128
 84.8333333333 443.666666667 95 448 107 448 c 2
 128 448 l 1
 128 491 l 1
 171 491 l 1
 171 448 l 1
 341 448 l 1
 341 491 l 1
 384 491 l 1
 384 448 l 1
 405 448 l 2
353 276 m 1
 226 149 l 1
 158 217 l 1
 181 240 l 1
 226 195 l 1
 330 299 l 1
 353 276 l 1
EndSplineSet
EndUndoOperation
UndoOperation
Index: 4
Type: 1
WasModified: 1
WasOrder2: 0
Layer: 2
Width: 512
VWidth: 512
LBearingChange: 0
UnicodeEnc: 0
InstructionsLength: 0
SplineSet
405 107 m 1
 405 341 l 1
 107 341 l 1
 107 107 l 1
 405 107 l 1
405 448 m 2
 416.333333333 448 426.333333333 443.666666667 435 435 c 128
 443.666666667 426.333333333 448 416.333333333 448 405 c 2
 448 107 l 2
 448 95.6666666667 443.666666667 85.6666666667 435 77 c 128
 426.333333333 68.3333333333 416.333333333 64 405 64 c 2
 107 64 l 2
 95 64 84.8333333333 68.3333333333 76.5 77 c 128
 68.1666666667 85.6666666667 64 95.6666666667 64 107 c 2
 64 405 l 2
 64 416.333333333 68.1666666667 426.333333333 76.5 435 c 128
 84.8333333333 443.666666667 95 448 107 448 c 2
 128 448 l 1
 128 491 l 1
 171 491 l 1
 171 448 l 1
 341 448 l 1
 341 491 l 1
 384 491 l 1
 384 448 l 1
 405 448 l 2
353 276 m 1
 226 149 l 1
 158 217 l 1
 181 240 l 1
 226 195 l 1
 330 299 l 1
 353 276 l 1
EndSplineSet
EndUndoOperation
UndoOperation
Index: 5
Type: 1
WasModified: 1
WasOrder2: 0
Layer: 2
Width: 512
VWidth: 512
LBearingChange: 0
UnicodeEnc: 0
InstructionsLength: 0
SplineSet
405 107 m 1
 405 341 l 1
 107 341 l 1
 107 107 l 1
 405 107 l 1
405 448 m 2
 416.333333333 448 426.333333333 443.666666667 435 435 c 128
 443.666666667 426.333333333 448 416.333333333 448 405 c 2
 448 107 l 2
 448 95.6666666667 443.666666667 85.6666666667 435 77 c 128
 426.333333333 68.3333333333 416.333333333 64 405 64 c 2
 107 64 l 2
 95 64 84.8333333333 68.3333333333 76.5 77 c 128
 68.1666666667 85.6666666667 64 95.6666666667 64 107 c 2
 64 405 l 2
 64 416.333333333 68.1666666667 426.333333333 76.5 435 c 128
 84.8333333333 443.666666667 95 448 107 448 c 2
 128 448 l 1
 128 491 l 1
 171 491 l 1
 171 448 l 1
 341 448 l 1
 341 491 l 1
 384 491 l 1
 384 448 l 1
 405 448 l 2
353 276 m 1
 226 149 l 1
 158 217 l 1
 181 240 l 1
 226 195 l 1
 330 299 l 1
 353 276 l 1
EndSplineSet
EndUndoOperation
UndoOperation
Index: 6
Type: 1
WasModified: 1
WasOrder2: 0
Layer: 2
Width: 512
VWidth: 512
LBearingChange: 0
UnicodeEnc: 0
InstructionsLength: 0
SplineSet
405 107 m 1
 405 341 l 1
 107 341 l 1
 107 107 l 1
 405 107 l 1
405 448 m 2
 416.333333333 448 426.333333333 443.666666667 435 435 c 128
 443.666666667 426.333333333 448 416.333333333 448 405 c 2
 448 107 l 2
 448 95.6666666667 443.666666667 85.6666666667 435 77 c 128
 426.333333333 68.3333333333 416.333333333 64 405 64 c 2
 107 64 l 2
 95 64 84.8333333333 68.3333333333 76.5 77 c 128
 68.1666666667 85.6666666667 64 95.6666666667 64 107 c 2
 64 405 l 2
 64 416.333333333 68.1666666667 426.333333333 76.5 435 c 128
 84.8333333333 443.666666667 95 448 107 448 c 2
 128 448 l 1
 128 491 l 1
 171 491 l 1
 171 448 l 1
 341 448 l 1
 341 491 l 1
 384 491 l 1
 384 448 l 1
 405 448 l 2
353 276 m 1
 226 149 l 1
 158 217 l 1
 181 240 l 1
 226 195 l 1
 330 299 l 1
 353 276 l 1
EndSplineSet
EndUndoOperation
UndoOperation
Index: 7
Type: 1
WasModified: 1
WasOrder2: 0
Layer: 2
Width: 512
VWidth: 512
LBearingChange: 0
UnicodeEnc: 0
InstructionsLength: 0
SplineSet
405 107 m 1
 405 341 l 1
 107 341 l 1
 107 107 l 1
 405 107 l 1
405 448 m 2
 416.333333333 448 426.333333333 443.666666667 435 435 c 128
 443.666666667 426.333333333 448 416.333333333 448 405 c 2
 448 107 l 2
 448 95.6666666667 443.666666667 85.6666666667 435 77 c 128
 426.333333333 68.3333333333 416.333333333 64 405 64 c 2
 107 64 l 2
 95 64 84.8333333333 68.3333333333 76.5 77 c 128
 68.1666666667 85.6666666667 64 95.6666666667 64 107 c 2
 64 405 l 2
 64 416.333333333 68.1666666667 426.333333333 76.5 435 c 128
 84.8333333333 443.666666667 95 448 107 448 c 2
 128 448 l 1
 128 491 l 1
 171 491 l 1
 171 448 l 1
 341 448 l 1
 341 491 l 1
 384 491 l 1
 384 448 l 1
 405 448 l 2
353 276 m 1
 226 149 l 1
 158 217 l 1
 181 240 l 1
 226 195 l 1
 330 299 l 1
 353 276 l 1
EndSplineSet
EndUndoOperation
UndoOperation
Index: 8
Type: 1
WasModified: 1
WasOrder2: 0
Layer: 2
Width: 512
VWidth: 512
LBearingChange: 0
UnicodeEnc: 0
InstructionsLength: 0
SplineSet
405 107 m 1
 405 341 l 1
 107 341 l 1
 107 107 l 1
 405 107 l 1
405 448 m 2
 416.333333333 448 426.333333333 443.666666667 435 435 c 128
 443.666666667 426.333333333 448 416.333333333 448 405 c 2
 448 107 l 2
 448 95.6666666667 443.666666667 85.6666666667 435 77 c 128
 426.333333333 68.3333333333 416.333333333 64 405 64 c 2
 107 64 l 2
 95 64 84.8333333333 68.3333333333 76.5 77 c 128
 68.1666666667 85.6666666667 64 95.6666666667 64 107 c 2
 64 405 l 2
 64 416.333333333 68.1666666667 426.333333333 76.5 435 c 128
 84.8333333333 443.666666667 95 448 107 448 c 2
 128 448 l 1
 128 491 l 1
 171 491 l 1
 171 448 l 1
 341 448 l 1
 341 491 l 1
 384 491 l 1
 384 448 l 1
 405 448 l 2
353 276 m 1
 226 149 l 1
 158 217 l 1
 181 240 l 1
 226 195 l 1
 330 299 l 1
 353 276 l 1
EndSplineSet
EndUndoOperation
UndoOperation
Index: 9
Type: 1
WasModified: 1
WasOrder2: 0
Layer: 2
Width: 512
VWidth: 512
LBearingChange: 0
UnicodeEnc: 0
InstructionsLength: 0
SplineSet
405 107 m 1
 405 341 l 1
 107 341 l 1
 107 107 l 1
 405 107 l 1
405 448 m 2
 416.333333333 448 426.333333333 443.666666667 435 435 c 128
 443.666666667 426.333333333 448 416.333333333 448 405 c 2
 448 107 l 2
 448 95.6666666667 443.666666667 85.6666666667 435 77 c 128
 426.333333333 68.3333333333 416.333333333 64 405 64 c 2
 107 64 l 2
 95 64 84.8333333333 68.3333333333 76.5 77 c 128
 68.1666666667 85.6666666667 64 95.6666666667 64 107 c 2
 64 405 l 2
 64 416.333333333 68.1666666667 426.333333333 76.5 435 c 128
 84.8333333333 443.666666667 95 448 107 448 c 2
 128 448 l 1
 128 491 l 1
 171 491 l 1
 171 448 l 1
 341 448 l 1
 341 491 l 1
 384 491 l 1
 384 448 l 1
 405 448 l 2
353 276 m 1
 226 149 l 1
 158 217 l 1
 181 240 l 1
 226 195 l 1
 330 299 l 1
 353 276 l 1
EndSplineSet
EndUndoOperation
UndoOperation
Index: 10
Type: 1
WasModified: 1
WasOrder2: 0
Layer: 2
Width: 512
VWidth: 512
LBearingChange: 0
UnicodeEnc: 0
InstructionsLength: 0
SplineSet
405 107 m 1
 405 341 l 1
 107 341 l 1
 107 107 l 1
 405 107 l 1
405 448 m 2
 416.333333333 448 426.333333333 443.666666667 435 435 c 128
 443.666666667 426.333333333 448 416.333333333 448 405 c 2
 448 107 l 2
 448 95.6666666667 443.666666667 85.6666666667 435 77 c 128
 426.333333333 68.3333333333 416.333333333 64 405 64 c 2
 107 64 l 2
 95 64 84.8333333333 68.3333333333 76.5 77 c 128
 68.1666666667 85.6666666667 64 95.6666666667 64 107 c 2
 64 405 l 2
 64 416.333333333 68.1666666667 426.333333333 76.5 435 c 128
 84.8333333333 443.666666667 95 448 107 448 c 2
 128 448 l 1
 128 491 l 1
 171 491 l 1
 171 448 l 1
 341 448 l 1
 341 491 l 1
 384 491 l 1
 384 448 l 1
 405 448 l 2
353 276 m 1
 226 149 l 1
 158 217 l 1
 181 240 l 1
 226 195 l 1
 330 299 l 1
 353 276 l 1
EndSplineSet
EndUndoOperation
UndoOperation
Index: 11
Type: 1
WasModified: 1
WasOrder2: 0
Layer: 2
Width: 512
VWidth: 512
LBearingChange: 0
UnicodeEnc: 0
InstructionsLength: 0
SplineSet
405 107 m 1
 405 341 l 1
 107 341 l 1
 107 107 l 1
 405 107 l 1
405 448 m 2
 416.333333333 448 426.333333333 443.666666667 435 435 c 128
 443.666666667 426.333333333 448 416.333333333 448 405 c 2
 448 107 l 2
 448 95.6666666667 443.666666667 85.6666666667 435 77 c 128
 426.333333333 68.3333333333 416.333333333 64 405 64 c 2
 107 64 l 2
 95 64 84.8333333333 68.3333333333 76.5 77 c 128
 68.1666666667 85.6666666667 64 95.6666666667 64 107 c 2
 64 405 l 2
 64 416.333333333 68.1666666667 426.333333333 76.5 435 c 128
 84.8333333333 443.666666667 95 448 107 448 c 2
 128 448 l 1
 128 491 l 1
 171 491 l 1
 171 448 l 1
 341 448 l 1
 341 491 l 1
 384 491 l 1
 384 448 l 1
 405 448 l 2
353 276 m 1
 226 149 l 1
 158 217 l 1
 181 240 l 1
 226 195 l 1
 330 299 l 1
 353 276 l 1
EndSplineSet
EndUndoOperation
UndoOperation
Index: 12
Type: 1
WasModified: 1
WasOrder2: 0
Layer: 2
Width: 512
VWidth: 512
LBearingChange: 0
UnicodeEnc: 0
InstructionsLength: 0
SplineSet
405 107 m 1
 405 341 l 1
 107 341 l 1
 107 107 l 1
 405 107 l 1
405 448 m 2
 416.333333333 448 426.333333333 443.666666667 435 435 c 128
 443.666666667 426.333333333 448 416.333333333 448 405 c 2
 448 107 l 2
 448 95.6666666667 443.666666667 85.6666666667 435 77 c 128
 426.333333333 68.3333333333 416.333333333 64 405 64 c 2
 107 64 l 2
 95 64 84.8333333333 68.3333333333 76.5 77 c 128
 68.1666666667 85.6666666667 64 95.6666666667 64 107 c 2
 64 405 l 2
 64 416.333333333 68.1666666667 426.333333333 76.5 435 c 128
 84.8333333333 443.666666667 95 448 107 448 c 2
 128 448 l 1
 128 491 l 1
 171 491 l 1
 171 448 l 1
 341 448 l 1
 341 491 l 1
 384 491 l 1
 384 448 l 1
 405 448 l 2
353 276 m 1
 226 149 l 1
 158 217 l 1
 181 240 l 1
 226 195 l 1
 330 299 l 1
 353 276 l 1
EndSplineSet
EndUndoOperation
UndoOperation
Index: 13
Type: 1
WasModified: 1
WasOrder2: 0
Layer: 2
Width: 512
VWidth: 512
LBearingChange: 0
UnicodeEnc: 0
InstructionsLength: 0
SplineSet
405 107 m 1
 405 341 l 1
 107 341 l 1
 107 107 l 1
 405 107 l 1
405 448 m 2
 416.333333333 448 426.333333333 443.666666667 435 435 c 128
 443.666666667 426.333333333 448 416.333333333 448 405 c 2
 448 107 l 2
 448 95.6666666667 443.666666667 85.6666666667 435 77 c 128
 426.333333333 68.3333333333 416.333333333 64 405 64 c 2
 107 64 l 2
 95 64 84.8333333333 68.3333333333 76.5 77 c 128
 68.1666666667 85.6666666667 64 95.6666666667 64 107 c 2
 64 405 l 2
 64 416.333333333 68.1666666667 426.333333333 76.5 435 c 128
 84.8333333333 443.666666667 95 448 107 448 c 2
 128 448 l 1
 128 491 l 1
 171 491 l 1
 171 448 l 1
 341 448 l 1
 341 491 l 1
 384 491 l 1
 384 448 l 1
 405 448 l 2
353 276 m 1
 226 149 l 1
 158 217 l 1
 181 240 l 1
 226 195 l 1
 330 299 l 1
 353 276 l 1
EndSplineSet
EndUndoOperation
UndoOperation
Index: 14
Type: 1
WasModified: 1
WasOrder2: 0
Layer: 2
Width: 512
VWidth: 512
LBearingChange: 0
UnicodeEnc: 0
InstructionsLength: 0
SplineSet
405 107 m 1
 405 341 l 1
 107 341 l 1
 107 107 l 1
 405 107 l 1
405 448 m 2
 416.333333333 448 426.333333333 443.666666667 435 435 c 128
 443.666666667 426.333333333 448 416.333333333 448 405 c 2
 448 107 l 2
 448 95.6666666667 443.666666667 85.6666666667 435 77 c 128
 426.333333333 68.3333333333 416.333333333 64 405 64 c 2
 107 64 l 2
 95 64 84.8333333333 68.3333333333 76.5 77 c 128
 68.1666666667 85.6666666667 64 95.6666666667 64 107 c 2
 64 405 l 2
 64 416.333333333 68.1666666667 426.333333333 76.5 435 c 128
 84.8333333333 443.666666667 95 448 107 448 c 2
 128 448 l 1
 128 491 l 1
 171 491 l 1
 171 448 l 1
 341 448 l 1
 341 491 l 1
 384 491 l 1
 384 448 l 1
 405 448 l 2
353 276 m 1
 226 149 l 1
 158 217 l 1
 181 240 l 1
 226 195 l 1
 330 299 l 1
 353 276 l 1
EndSplineSet
EndUndoOperation
UndoOperation
Index: 15
Type: 1
WasModified: 1
WasOrder2: 0
Layer: 2
Width: 512
VWidth: 512
LBearingChange: 0
UnicodeEnc: 0
InstructionsLength: 0
SplineSet
405 107 m 1
 405 341 l 1
 107 341 l 1
 107 107 l 1
 405 107 l 1
405 448 m 2
 416.333333333 448 426.333333333 443.666666667 435 435 c 128
 443.666666667 426.333333333 448 416.333333333 448 405 c 2
 448 107 l 2
 448 95.6666666667 443.666666667 85.6666666667 435 77 c 128
 426.333333333 68.3333333333 416.333333333 64 405 64 c 2
 107 64 l 2
 95 64 84.8333333333 68.3333333333 76.5 77 c 128
 68.1666666667 85.6666666667 64 95.6666666667 64 107 c 2
 64 405 l 2
 64 416.333333333 68.1666666667 426.333333333 76.5 435 c 128
 84.8333333333 443.666666667 95 448 107 448 c 2
 128 448 l 1
 128 491 l 1
 171 491 l 1
 171 448 l 1
 341 448 l 1
 341 491 l 1
 384 491 l 1
 384 448 l 1
 405 448 l 2
353 276 m 1
 226 149 l 1
 158 217 l 1
 181 240 l 1
 226 195 l 1
 330 299 l 1
 353 276 l 1
EndSplineSet
EndUndoOperation
UndoOperation
Index: 16
Type: 1
WasModified: 1
WasOrder2: 0
Layer: 2
Width: 512
VWidth: 512
LBearingChange: 0
UnicodeEnc: 0
InstructionsLength: 0
SplineSet
405 107 m 1
 405 341 l 1
 107 341 l 1
 107 107 l 1
 405 107 l 1
405 448 m 2
 416.333333333 448 426.333333333 443.666666667 435 435 c 128
 443.666666667 426.333333333 448 416.333333333 448 405 c 2
 448 107 l 2
 448 95.6666666667 443.666666667 85.6666666667 435 77 c 128
 426.333333333 68.3333333333 416.333333333 64 405 64 c 2
 107 64 l 2
 95 64 84.8333333333 68.3333333333 76.5 77 c 128
 68.1666666667 85.6666666667 64 95.6666666667 64 107 c 2
 64 405 l 2
 64 416.333333333 68.1666666667 426.333333333 76.5 435 c 128
 84.8333333333 443.666666667 95 448 107 448 c 2
 128 448 l 1
 128 491 l 1
 171 491 l 1
 171 448 l 1
 341 448 l 1
 341 491 l 1
 384 491 l 1
 384 448 l 1
 405 448 l 2
353 276 m 1
 226 149 l 1
 158 217 l 1
 181 240 l 1
 226 195 l 1
 330 299 l 1
 353 276 l 1
EndSplineSet
EndUndoOperation
UndoOperation
Index: 17
Type: 1
WasModified: 1
WasOrder2: 0
Layer: 2
Width: 512
VWidth: 512
LBearingChange: 0
UnicodeEnc: 0
InstructionsLength: 0
SplineSet
405 107 m 1
 405 341 l 1
 107 341 l 1
 107 107 l 1
 405 107 l 1
405 448 m 2
 416.333333333 448 426.333333333 443.666666667 435 435 c 128
 443.666666667 426.333333333 448 416.333333333 448 405 c 2
 448 107 l 2
 448 95.6666666667 443.666666667 85.6666666667 435 77 c 128
 426.333333333 68.3333333333 416.333333333 64 405 64 c 2
 107 64 l 2
 95 64 84.8333333333 68.3333333333 76.5 77 c 128
 68.1666666667 85.6666666667 64 95.6666666667 64 107 c 2
 64 405 l 2
 64 416.333333333 68.1666666667 426.333333333 76.5 435 c 128
 84.8333333333 443.666666667 95 448 107 448 c 2
 128 448 l 1
 128 491 l 1
 171 491 l 1
 171 448 l 1
 341 448 l 1
 341 491 l 1
 384 491 l 1
 384 448 l 1
 405 448 l 2
353 276 m 1
 226 149 l 1
 158 217 l 1
 181 240 l 1
 226 195 l 1
 330 299 l 1
 353 276 l 1
EndSplineSet
EndUndoOperation
UndoOperation
Index: 18
Type: 1
WasModified: 1
WasOrder2: 0
Layer: 2
Width: 512
VWidth: 512
LBearingChange: 0
UnicodeEnc: 0
InstructionsLength: 0
SplineSet
405 107 m 1
 405 341 l 1
 107 341 l 1
 107 107 l 1
 405 107 l 1
405 448 m 2
 416.333333333 448 426.333333333 443.666666667 435 435 c 128
 443.666666667 426.333333333 448 416.333333333 448 405 c 2
 448 107 l 2
 448 95.6666666667 443.666666667 85.6666666667 435 77 c 128
 426.333333333 68.3333333333 416.333333333 64 405 64 c 2
 107 64 l 2
 95 64 84.8333333333 68.3333333333 76.5 77 c 128
 68.1666666667 85.6666666667 64 95.6666666667 64 107 c 2
 64 405 l 2
 64 416.333333333 68.1666666667 426.333333333 76.5 435 c 128
 84.8333333333 443.666666667 95 448 107 448 c 2
 128 448 l 1
 128 491 l 1
 171 491 l 1
 171 448 l 1
 341 448 l 1
 341 491 l 1
 384 491 l 1
 384 448 l 1
 405 448 l 2
353 276 m 1
 226 149 l 1
 158 217 l 1
 181 240 l 1
 226 195 l 1
 330 299 l 1
 353 276 l 1
EndSplineSet
EndUndoOperation
UndoOperation
Index: 19
Type: 1
WasModified: 1
WasOrder2: 0
Layer: 2
Width: 512
VWidth: 512
LBearingChange: 0
UnicodeEnc: 0
InstructionsLength: 0
SplineSet
405 107 m 1
 405 341 l 5
 107 341 l 5
 107 107 l 1
 405 107 l 1
405 448 m 2
 416.333333333 448 426.333333333 443.666666667 435 435 c 128
 443.666666667 426.333333333 448 416.333333333 448 405 c 2
 448 107 l 2
 448 95.6666666667 443.666666667 85.6666666667 435 77 c 128
 426.333333333 68.3333333333 416.333333333 64 405 64 c 2
 107 64 l 2
 95 64 84.8333333333 68.3333333333 76.5 77 c 128
 68.1666666667 85.6666666667 64 95.6666666667 64 107 c 2
 64 405 l 2
 64 416.333333333 68.1666666667 426.333333333 76.5 435 c 128
 84.8333333333 443.666666667 95 448 107 448 c 2
 128 448 l 1
 128 491 l 1
 171 491 l 1
 171 448 l 1
 341 448 l 1
 341 491 l 1
 384 491 l 1
 384 448 l 1
 405 448 l 2
353 276 m 1
 226 149 l 1
 158 217 l 1
 181 240 l 1
 226 195 l 1
 330 299 l 1
 353 276 l 1
EndSplineSet
EndUndoOperation
EndUndoes
Redoes
EndRedoes
EndUndoRedoHistory
Fore
SplineSet
405 107 m 1
 395 397.999023438 l 5
 97 397.999023438 l 5
 107 107 l 1
 405 107 l 1
405 448 m 2
 416.333333333 448 426.333333333 443.666666667 435 435 c 128
 443.666666667 426.333333333 448 416.333333333 448 405 c 2
 448 107 l 2
 448 95.6666666667 443.666666667 85.6666666667 435 77 c 128
 426.333333333 68.3333333333 416.333333333 64 405 64 c 2
 107 64 l 2
 95 64 84.8333333333 68.3333333333 76.5 77 c 128
 68.1666666667 85.6666666667 64 95.6666666667 64 107 c 2
 64 405 l 2
 64 416.333333333 68.1666666667 426.333333333 76.5 435 c 128
 84.8333333333 443.666666667 95 448 107 448 c 2
 128 448 l 1
 128 491 l 1
 171 491 l 1
 171 448 l 1
 341 448 l 1
 341 491 l 1
 384 491 l 1
 384 448 l 1
 405 448 l 2
353 276 m 1
 226 149 l 1
 158 217 l 1
 181 240 l 1
 226 195 l 1
 330 299 l 1
 353 276 l 1
EndSplineSet
EndChar
